<svg width="40" height="40" viewBox="0 0 40 40" fill="none" xmlns="http://www.w3.org/2000/svg">
<g opacity="0.5">
<path d="M24.7237 25.8232C24.5684 25.8251 24.4182 25.7676 24.304 25.6623C23.6407 25.003 23.1587 24.1837 22.9047 23.2836C21.2845 23.8993 19.4946 23.8993 17.8744 23.2836C17.6178 24.1825 17.1362 25.0012 16.4751 25.6623C16.3477 25.7577 16.1892 25.8018 16.0309 25.7861C15.8725 25.7704 15.7258 25.696 15.6196 25.5775C15.5134 25.459 15.4554 25.305 15.4571 25.1459C15.4587 24.9868 15.5199 24.8341 15.6286 24.7178C16.2625 24.0374 16.6896 23.1904 16.8599 22.2761C16.8825 22.1842 16.9257 22.0986 16.9863 22.0258C17.0469 21.9531 17.1234 21.8951 17.2097 21.8563C17.2953 21.8168 17.3884 21.7964 17.4826 21.7964C17.5768 21.7964 17.6699 21.8168 17.7554 21.8563C18.5729 22.2668 19.4749 22.4806 20.3896 22.4806C21.3042 22.4806 22.2062 22.2668 23.0236 21.8563C23.109 21.8164 23.2022 21.7957 23.2965 21.7957C23.3908 21.7957 23.4839 21.8164 23.5693 21.8563C23.6557 21.8951 23.7321 21.9531 23.7928 22.0258C23.8534 22.0986 23.8966 22.1842 23.9192 22.2761C24.0951 23.1969 24.5295 24.0487 25.1715 24.7318C25.269 24.8163 25.3381 24.9287 25.3696 25.0538C25.4012 25.1788 25.3935 25.3106 25.3477 25.4311C25.3019 25.5517 25.2202 25.6553 25.1136 25.728C25.007 25.8006 24.8807 25.8387 24.7517 25.8372L24.7237 25.8232Z" fill="black"/>
<path d="M20.1688 39.9977C16.7269 40.0237 13.2869 39.8274 9.87026 39.41C5.6725 38.8363 5.0918 38.1017 5.0918 37.388V35.4431C5.0918 29.4403 9.19862 24.5569 14.2429 24.5569H16.0759C16.1944 24.557 16.3104 24.5906 16.4107 24.6537C16.5109 24.7168 16.5913 24.8069 16.6426 24.9137C16.6963 25.019 16.7189 25.1375 16.7078 25.2552C16.6966 25.3729 16.6522 25.485 16.5797 25.5783C16.3409 25.8657 16.2075 26.2262 16.2019 26.5998C16.2019 27.4673 16.9785 28.2789 18.1818 28.6637C18.6142 28.7974 19.0657 28.8589 19.5181 28.8456H21.2042C21.656 28.8574 22.1069 28.7984 22.5405 28.6707C23.7438 28.2789 24.5204 27.4673 24.5204 26.5718C24.5148 26.1982 24.3815 25.8377 24.1426 25.5504C24.0683 25.4569 24.0221 25.3443 24.0094 25.2256C23.9967 25.1069 24.018 24.987 24.0708 24.88C24.1235 24.7729 24.2057 24.6831 24.3076 24.6209C24.4095 24.5587 24.527 24.5268 24.6464 24.5289H26.4794C31.5237 24.5289 35.6235 29.4263 35.6235 35.4151V37.3601C35.6235 38.1786 34.777 38.8363 30.6562 39.382C27.1767 39.806 23.674 40.0117 20.1688 39.9977ZM6.36512 37.2551C7.1487 37.8918 12.228 38.7313 20.1757 38.7313C28.1235 38.7313 33.5456 37.8708 34.3642 37.2481V35.4431C34.3642 30.1399 30.8311 25.8232 26.4864 25.8232H25.6748C25.7468 26.0759 25.7844 26.3371 25.7868 26.5998C25.7868 27.999 24.6674 29.3074 22.9323 29.8741C22.3722 30.0432 21.7891 30.1234 21.2042 30.1119H19.5181C18.9331 30.1242 18.3499 30.044 17.79 29.8741C16.0549 29.3074 14.9355 28.027 14.9355 26.5998C14.9345 26.3368 14.9722 26.0752 15.0475 25.8232H14.2429C9.89824 25.8232 6.35812 30.1399 6.35812 35.4431L6.36512 37.2551Z" fill="black"/>
<path d="M23.023 16.1544C22.8176 16.1545 22.6142 16.1136 22.4248 16.0341C22.2353 15.9547 22.0636 15.8383 21.9197 15.6917C21.7757 15.5452 21.6624 15.3714 21.5864 15.1806C21.5103 14.9897 21.4731 14.7857 21.4768 14.5803C21.4933 14.4238 21.5671 14.279 21.684 14.1738C21.8009 14.0685 21.9527 14.0103 22.11 14.0103C22.2673 14.0103 22.419 14.0685 22.536 14.1738C22.6529 14.279 22.7267 14.4238 22.7431 14.5803C22.7431 14.6545 22.7726 14.7257 22.8251 14.7782C22.8776 14.8306 22.9488 14.8601 23.023 14.8601C23.0594 14.8601 23.0955 14.8528 23.129 14.8387C23.1626 14.8246 23.193 14.8038 23.2184 14.7777C23.2439 14.7517 23.2638 14.7207 23.2771 14.6868C23.2904 14.6529 23.2968 14.6167 23.2959 14.5803C23.3123 14.4238 23.3861 14.279 23.503 14.1738C23.62 14.0685 23.7717 14.0103 23.929 14.0103C24.0863 14.0103 24.2381 14.0685 24.355 14.1738C24.4719 14.279 24.5457 14.4238 24.5622 14.5803C24.5659 14.7851 24.5289 14.9886 24.4533 15.1789C24.3777 15.3693 24.265 15.5428 24.1218 15.6892C23.9786 15.8357 23.8077 15.9522 23.6191 16.0321C23.4304 16.112 23.2278 16.1535 23.023 16.1544Z" fill="black"/>
<path d="M20.4337 20.5412C19.2303 20.5412 18.4258 20.0724 18.4258 19.3728C18.4289 19.2268 18.4822 19.0863 18.5766 18.9748C18.671 18.8634 18.8008 18.7878 18.9443 18.7608C19.0878 18.7337 19.2363 18.7568 19.3648 18.8262C19.4933 18.8956 19.594 19.0071 19.6501 19.1419C19.8997 19.2385 20.1662 19.2837 20.4337 19.2748C20.7011 19.2822 20.9673 19.2371 21.2173 19.1419C21.2734 19.0071 21.3741 18.8956 21.5026 18.8262C21.6311 18.7568 21.7796 18.7337 21.9231 18.7608C22.0666 18.7878 22.1965 18.8634 22.2909 18.9748C22.3853 19.0863 22.4385 19.2268 22.4417 19.3728C22.4556 20.0724 21.6301 20.5412 20.4337 20.5412Z" fill="black"/>
<path d="M17.8453 16.1544C17.6398 16.1545 17.4365 16.1136 17.247 16.0341C17.0576 15.9547 16.8859 15.8383 16.7419 15.6917C16.598 15.5452 16.4847 15.3714 16.4086 15.1806C16.3326 14.9897 16.2954 14.7857 16.2991 14.5803C16.3155 14.4238 16.3894 14.279 16.5063 14.1738C16.6232 14.0685 16.7749 14.0103 16.9322 14.0103C17.0896 14.0103 17.2413 14.0685 17.3582 14.1738C17.4751 14.279 17.5489 14.4238 17.5654 14.5803C17.559 14.6202 17.5614 14.6611 17.5723 14.7001C17.5833 14.7391 17.6026 14.7752 17.6288 14.806C17.6551 14.8368 17.6878 14.8615 17.7245 14.8785C17.7613 14.8954 17.8013 14.9042 17.8417 14.9042C17.8822 14.9042 17.9222 14.8954 17.959 14.8785C17.9957 14.8615 18.0284 14.8368 18.0547 14.806C18.0809 14.7752 18.1002 14.7391 18.1112 14.7001C18.1221 14.6611 18.1245 14.6202 18.1181 14.5803C18.1346 14.4238 18.2084 14.279 18.3253 14.1738C18.4422 14.0685 18.5939 14.0103 18.7513 14.0103C18.9086 14.0103 19.0603 14.0685 19.1772 14.1738C19.2941 14.279 19.3679 14.4238 19.3844 14.5803C19.3881 14.7851 19.3511 14.9886 19.2755 15.1789C19.1999 15.3693 19.0872 15.5428 18.944 15.6892C18.8008 15.8357 18.63 15.9522 18.4413 16.0321C18.2527 16.112 18.0501 16.1535 17.8453 16.1544Z" fill="black"/>
<path d="M27.7111 16.4483C27.3167 16.4478 26.929 16.3467 26.5847 16.1544C26.4853 16.1004 26.4022 16.0205 26.3444 15.9232C26.2865 15.826 26.2559 15.7149 26.2559 15.6017V11.6698C26.2559 11.5865 26.2724 11.5041 26.3045 11.4272C26.3365 11.3504 26.3836 11.2807 26.4428 11.2221C26.502 11.1635 26.5722 11.1173 26.6494 11.0861C26.7266 11.0548 26.8092 11.0392 26.8925 11.0402H29.0264C29.1397 11.0166 29.2573 11.025 29.366 11.0646C29.4748 11.1041 29.5704 11.1732 29.6421 11.264C30.1032 11.8659 30.3495 12.6048 30.3417 13.3629C30.3487 15.063 29.1663 16.4483 27.7111 16.4483ZM27.5222 15.168C28.3407 15.3289 29.0824 14.4683 29.0824 13.3629C29.0857 12.9947 28.9967 12.6315 28.8235 12.3065H27.5222V15.168Z" fill="black"/>
<path d="M13.0108 16.4482C11.5556 16.4482 10.3732 15.049 10.3732 13.3629C10.3654 12.6047 10.6117 11.8658 11.0729 11.264C11.1434 11.1738 11.2378 11.105 11.3453 11.0654C11.4528 11.0259 11.5693 11.0171 11.6815 11.0401H13.8224C13.9894 11.0401 14.1495 11.1065 14.2676 11.2246C14.3857 11.3426 14.452 11.5028 14.452 11.6698V15.6017C14.452 15.7149 14.4214 15.8259 14.3635 15.9232C14.3057 16.0205 14.2226 16.1003 14.1232 16.1544C13.7832 16.3447 13.4005 16.4457 13.0108 16.4482ZM11.8984 12.3065C11.7252 12.6314 11.6362 12.9946 11.6396 13.3629C11.6396 14.4473 12.3392 15.3288 13.1927 15.1679V12.3065H11.8984Z" fill="black"/>
<path d="M20.3575 23.7455C18.458 23.7436 16.6369 22.9882 15.2937 21.6451C13.9506 20.3019 13.1952 18.4808 13.1934 16.5813V11.6839C13.1934 11.6006 13.2099 11.5182 13.2419 11.4413C13.274 11.3645 13.321 11.2947 13.3802 11.2362C13.4395 11.1776 13.5097 11.1314 13.5869 11.1001C13.6641 11.0689 13.7467 11.0533 13.83 11.0542H26.892C27.059 11.0542 27.2192 11.1206 27.3373 11.2387C27.4554 11.3567 27.5217 11.5169 27.5217 11.6839V16.5813C27.5198 18.4808 26.7645 20.3019 25.4213 21.6451C24.0782 22.9882 22.257 23.7436 20.3575 23.7455ZM14.4597 12.3066V16.5813C14.4597 18.1455 15.0811 19.6456 16.1871 20.7517C17.2932 21.8578 18.7933 22.4791 20.3575 22.4791C21.9217 22.4791 23.4219 21.8578 24.5279 20.7517C25.634 19.6456 26.2554 18.1455 26.2554 16.5813V12.3066H14.4597Z" fill="black"/>
<path d="M28.9482 12.3065H11.7724C11.5442 12.3213 11.3154 12.2891 11.1001 12.212C10.8848 12.1348 10.6876 12.0143 10.5208 11.8579C10.3539 11.7015 10.221 11.5126 10.13 11.3027C10.0391 11.0929 9.99219 10.8666 9.99219 10.6379C9.99219 10.4092 10.0391 10.183 10.13 9.97314C10.221 9.7633 10.3539 9.57435 10.5208 9.41795C10.6876 9.26156 10.8848 9.14105 11.1001 9.06388C11.3154 8.98672 11.5442 8.95453 11.7724 8.96932H28.9482C29.1764 8.95453 29.4053 8.98672 29.6206 9.06388C29.8358 9.14105 30.033 9.26156 30.1998 9.41795C30.3667 9.57435 30.4997 9.7633 30.5906 9.97314C30.6815 10.183 30.7285 10.4092 30.7285 10.6379C30.7285 10.8666 30.6815 11.0929 30.5906 11.3027C30.4997 11.5126 30.3667 11.7015 30.1998 11.8579C30.033 12.0143 29.8358 12.1348 29.6206 12.212C29.4053 12.2891 29.1764 12.3213 28.9482 12.3065ZM11.7724 10.2077C11.7151 10.2001 11.6569 10.2048 11.6016 10.2216C11.5463 10.2383 11.4952 10.2667 11.4518 10.3048C11.4083 10.3429 11.3735 10.3898 11.3496 10.4424C11.3258 10.4951 11.3134 10.5522 11.3134 10.6099C11.3134 10.6677 11.3258 10.7248 11.3496 10.7775C11.3735 10.8301 11.4083 10.877 11.4518 10.9151C11.4952 10.9532 11.5463 10.9815 11.6016 10.9983C11.6569 11.015 11.7151 11.0198 11.7724 11.0122H28.9482C29.0055 11.0198 29.0637 11.015 29.119 10.9983C29.1743 10.9815 29.2254 10.9532 29.2689 10.9151C29.3123 10.877 29.3472 10.8301 29.371 10.7775C29.3949 10.7248 29.4072 10.6677 29.4072 10.6099C29.4072 10.5522 29.3949 10.4951 29.371 10.4424C29.3472 10.3898 29.3123 10.3429 29.2689 10.3048C29.2254 10.2667 29.1743 10.2383 29.119 10.2216C29.0637 10.2048 29.0055 10.2001 28.9482 10.2077H11.7724Z" fill="black"/>
<path d="M28.564 10.1936H12.3046C12.1358 10.1936 11.9738 10.1266 11.8544 10.0072C11.7351 9.88778 11.668 9.72584 11.668 9.55699C11.6723 7.6141 12.322 5.72769 13.5149 4.19412C14.7078 2.66056 16.3764 1.56674 18.2585 1.08451C18.3524 1.05991 18.4508 1.05786 18.5456 1.07853C18.6404 1.0992 18.729 1.14201 18.8042 1.20345C18.8801 1.2621 18.9417 1.33735 18.9842 1.42345C19.0266 1.50954 19.0488 1.60419 19.049 1.70017V4.6596C19.0584 4.74834 19.049 4.83805 19.0214 4.92291C18.9938 5.00778 18.9487 5.08591 18.889 5.15222C18.8293 5.21854 18.7564 5.27156 18.6748 5.30786C18.5933 5.34416 18.5051 5.3629 18.4159 5.3629C18.3267 5.3629 18.2384 5.34416 18.1569 5.30786C18.0754 5.27156 18.0024 5.21854 17.9427 5.15222C17.883 5.08591 17.8379 5.00778 17.8103 4.92291C17.7828 4.83805 17.7734 4.74834 17.7827 4.6596V2.56072C16.4669 3.0632 15.3194 3.92635 14.4717 5.05119C13.6241 6.17603 13.1106 7.51701 12.9903 8.92033H27.9273C27.8126 7.49379 27.2899 6.13037 26.4215 4.9928C25.5531 3.85522 24.3757 2.99152 23.0299 2.50475V4.6526C23.0393 4.74134 23.0298 4.83106 23.0023 4.91592C22.9747 5.00079 22.9296 5.0789 22.8699 5.14522C22.8102 5.21153 22.7372 5.26456 22.6557 5.30086C22.5742 5.33715 22.486 5.35591 22.3968 5.35591C22.3075 5.35591 22.2193 5.33715 22.1378 5.30086C22.0563 5.26456 21.9833 5.21153 21.9236 5.14522C21.8639 5.0789 21.8188 5.00079 21.7912 4.91592C21.7637 4.83106 21.7543 4.74134 21.7636 4.6526V1.6582C21.7625 1.5627 21.7834 1.46823 21.8246 1.3821C21.8659 1.29596 21.9264 1.22048 22.0015 1.16147C22.0753 1.10012 22.1627 1.0573 22.2564 1.03661C22.3501 1.01592 22.4474 1.01795 22.5402 1.04252C24.455 1.49539 26.1606 2.58227 27.3798 4.12667C28.5991 5.67108 29.2605 7.5823 29.2566 9.54999C29.259 9.63942 29.2424 9.72835 29.2078 9.81084C29.1731 9.89334 29.1213 9.96751 29.0558 10.0284C28.9903 10.0893 28.9125 10.1355 28.8277 10.164C28.7429 10.1925 28.653 10.2026 28.564 10.1936Z" fill="black"/>
<path d="M22.331 5.29617C22.2477 5.29617 22.1653 5.27966 22.0884 5.24758C22.0116 5.2155 21.9418 5.1685 21.8833 5.10928C21.8247 5.05007 21.7785 4.97982 21.7473 4.90262C21.716 4.82541 21.7004 4.74279 21.7014 4.65952V1.39925C21.7014 1.37936 21.6973 1.35966 21.6895 1.34136C21.6817 1.32306 21.6703 1.30655 21.6559 1.29281C21.6415 1.27907 21.6245 1.2684 21.6058 1.26144C21.5872 1.25449 21.5673 1.25138 21.5474 1.25233H19.1687C19.1297 1.25233 19.0924 1.26781 19.0648 1.29536C19.0373 1.32291 19.0218 1.36029 19.0218 1.39925V4.65952C19.0311 4.74826 19.0217 4.83796 18.9941 4.92283C18.9666 5.00769 18.9215 5.08582 18.8618 5.15214C18.8021 5.21845 18.7291 5.27148 18.6476 5.30777C18.5661 5.34407 18.4778 5.36282 18.3886 5.36282C18.2994 5.36282 18.2112 5.34407 18.1296 5.30777C18.0481 5.27148 17.9752 5.21845 17.9155 5.15214C17.8558 5.08582 17.8107 5.00769 17.7831 4.92283C17.7555 4.83796 17.7461 4.74826 17.7554 4.65952V1.39925C17.7554 1.02815 17.9029 0.672242 18.1653 0.409831C18.4277 0.14742 18.7836 0 19.1547 0H21.5334C21.9045 0 22.2604 0.14742 22.5229 0.409831C22.7853 0.672242 22.9327 1.02815 22.9327 1.39925V4.65952C22.9329 4.82248 22.8707 4.97933 22.7588 5.09777C22.6468 5.21621 22.4937 5.28722 22.331 5.29617Z" fill="black"/>
<path d="M25.8771 8.38164H14.8439C14.7552 8.39098 14.6655 8.38156 14.5806 8.354C14.4957 8.32644 14.4176 8.28135 14.3513 8.22164C14.285 8.16194 14.232 8.08897 14.1957 8.00745C14.1594 7.92594 14.1406 7.83771 14.1406 7.74848C14.1406 7.65925 14.1594 7.57101 14.1957 7.4895C14.232 7.40799 14.285 7.33501 14.3513 7.27531C14.4176 7.21561 14.4957 7.17052 14.5806 7.14295C14.6655 7.11539 14.7552 7.10597 14.8439 7.11531H25.8771C26.0335 7.13178 26.1783 7.20559 26.2836 7.3225C26.3888 7.43942 26.4471 7.59116 26.4471 7.74848C26.4471 7.90579 26.3888 8.05753 26.2836 8.17445C26.1783 8.29136 26.0335 8.36517 25.8771 8.38164Z" fill="black"/>
<path d="M20.3582 4.08581C20.2749 4.08581 20.1925 4.06929 20.1156 4.03721C20.0388 4.00513 19.969 3.95813 19.9105 3.89891C19.8519 3.8397 19.8057 3.76946 19.7745 3.69226C19.7432 3.61505 19.7276 3.53242 19.7286 3.44915V2.24579C19.745 2.08934 19.8188 1.94453 19.9357 1.83928C20.0527 1.73402 20.2044 1.67578 20.3617 1.67578C20.519 1.67578 20.6708 1.73402 20.7877 1.83928C20.9046 1.94453 20.9784 2.08934 20.9949 2.24579V3.44915C20.9949 3.53275 20.9784 3.61555 20.9464 3.69279C20.9144 3.77003 20.8675 3.84022 20.8084 3.89934C20.7493 3.95846 20.6791 4.00535 20.6018 4.03734C20.5246 4.06934 20.4418 4.08581 20.3582 4.08581Z" fill="black"/>
<path d="M26.5428 36.2687H22.4989C22.1724 36.2687 21.8592 36.1389 21.6282 35.908C21.3973 35.6771 21.2676 35.3639 21.2676 35.0373V32.9385C21.2694 32.6131 21.4 32.3017 21.6307 32.0723C21.8614 31.8429 22.1736 31.7141 22.4989 31.7141H26.5428C26.8681 31.7141 27.1803 31.8429 27.411 32.0723C27.6417 32.3017 27.7723 32.6131 27.7741 32.9385V35.0373C27.7741 35.3639 27.6444 35.6771 27.4135 35.908C27.1825 36.1389 26.8693 36.2687 26.5428 36.2687ZM22.5339 35.0024H26.5008V33.0154H22.5339V35.0024Z" fill="black"/>
<path d="M27.1372 34.7854H25.549C25.4603 34.7948 25.3706 34.7854 25.2857 34.7578C25.2008 34.7302 25.1227 34.6851 25.0564 34.6254C24.9901 34.5657 24.9371 34.4928 24.9008 34.4113C24.8645 34.3297 24.8457 34.2415 24.8457 34.1523C24.8457 34.0631 24.8645 33.9748 24.9008 33.8933C24.9371 33.8118 24.9901 33.7388 25.0564 33.6791C25.1227 33.6194 25.2008 33.5743 25.2857 33.5468C25.3706 33.5192 25.4603 33.5098 25.549 33.5191H27.1372C27.2259 33.5098 27.3156 33.5192 27.4005 33.5468C27.4854 33.5743 27.5635 33.6194 27.6298 33.6791C27.6961 33.7388 27.7491 33.8118 27.7854 33.8933C27.8217 33.9748 27.8405 34.0631 27.8405 34.1523C27.8405 34.2415 27.8217 34.3297 27.7854 34.4113C27.7491 34.4928 27.6961 34.5657 27.6298 34.6254C27.5635 34.6851 27.4854 34.7302 27.4005 34.7578C27.3156 34.7854 27.2259 34.7948 27.1372 34.7854Z" fill="black"/>
</g>
</svg>
