<svg width="40" height="40" viewBox="0 0 40 40" fill="none" xmlns="http://www.w3.org/2000/svg">
<g opacity="0.5">
<path d="M20.8937 27.36H7.15705C7.05678 27.359 6.95804 27.3354 6.8681 27.2911C6.77817 27.2467 6.69936 27.1827 6.63749 27.1038C6.57853 27.0242 6.53884 26.9319 6.52155 26.8344C6.50426 26.7368 6.50983 26.6366 6.53784 26.5415L11.7051 8.36358C11.7439 8.22955 11.8253 8.11184 11.9371 8.02834C12.0488 7.94484 12.1848 7.90011 12.3243 7.90095H15.7193C15.8591 7.89891 15.9957 7.94319 16.1077 8.02687C16.2197 8.11055 16.3009 8.22894 16.3386 8.36358L21.5129 26.5415C21.54 26.6371 21.5444 26.7377 21.5258 26.8352C21.5073 26.9328 21.4664 27.0248 21.4062 27.1038C21.3458 27.1826 21.2682 27.2465 21.1795 27.2909C21.0907 27.3353 20.993 27.359 20.8937 27.36ZM8.01116 26.0718H20.0396L15.2354 9.1892H12.8154L8.01116 26.0718Z" fill="black"/>
<path d="M22.6291 30.1429H5.41915C5.24738 30.1429 5.08264 30.0746 4.96117 29.9532C4.83971 29.8317 4.77148 29.667 4.77148 29.4952V26.7336C4.77148 26.6489 4.78826 26.565 4.8209 26.4868C4.85353 26.4087 4.90137 26.3377 4.96161 26.2781C5.02184 26.2186 5.0933 26.1715 5.17184 26.1398C5.25038 26.108 5.33443 26.0921 5.41915 26.0931H22.6291C22.799 26.0931 22.962 26.1605 23.0821 26.2807C23.2022 26.4008 23.2697 26.5637 23.2697 26.7336V29.5165C23.266 29.684 23.1969 29.8433 23.0771 29.9603C22.9574 30.0774 22.7966 30.1429 22.6291 30.1429ZM6.05974 28.8689H21.9814V27.3742H6.05974V28.8689Z" fill="black"/>
<path d="M25.7972 33.5238H2.25267C2.14527 33.5244 2.03943 33.498 1.94491 33.447C1.85039 33.396 1.77021 33.3221 1.71174 33.232C1.65464 33.1429 1.62025 33.0411 1.61156 32.9357C1.60288 32.8302 1.62016 32.7242 1.66191 32.627L3.14235 29.2391C3.19245 29.1243 3.27511 29.0267 3.3801 28.9584C3.4851 28.8901 3.60783 28.854 3.73309 28.8547H24.3167C24.442 28.854 24.5647 28.8901 24.6697 28.9584C24.7747 29.0267 24.8574 29.1243 24.9075 29.2391L26.3879 32.627C26.4287 32.7249 26.4448 32.8312 26.4349 32.9368C26.425 33.0424 26.3893 33.1439 26.3309 33.2324C26.2726 33.321 26.1934 33.3938 26.1004 33.4446C26.0073 33.4954 25.9032 33.5226 25.7972 33.5238ZM3.23488 32.2355H24.8078L23.8968 30.143H4.15301L3.23488 32.2355Z" fill="black"/>
<path d="M7.156 27.3599C6.99775 27.3609 6.84475 27.3033 6.72647 27.1981C6.60819 27.093 6.53301 26.9478 6.51543 26.7905C6.4973 26.6219 6.54605 26.4529 6.65119 26.3198C6.75632 26.1867 6.90947 26.1002 7.07771 26.0788C7.14889 26.0788 14.2592 25.2033 18.793 20.5129C18.9158 20.4099 19.0724 20.356 19.2326 20.3617C19.3928 20.3675 19.5451 20.4324 19.6602 20.5439C19.7753 20.6555 19.845 20.8058 19.8557 20.9657C19.8664 21.1256 19.8175 21.2838 19.7183 21.4097C14.8642 26.4347 7.53322 27.3243 7.22718 27.3599H7.156Z" fill="black"/>
<path d="M8.73565 21.8012C8.58151 21.7985 8.43342 21.7408 8.31799 21.6386C8.20255 21.5364 8.12735 21.3964 8.10591 21.2437C8.08446 21.0911 8.11818 20.9358 8.201 20.8057C8.28382 20.6757 8.4103 20.5795 8.55772 20.5343C11.87 19.6723 14.903 17.9683 17.362 15.5877C17.4831 15.4741 17.6432 15.4113 17.8092 15.4124C17.9752 15.4134 18.1345 15.4781 18.2542 15.5932C18.3738 15.7083 18.4447 15.865 18.4522 16.0308C18.4597 16.1967 18.4032 16.3591 18.2944 16.4845C15.674 19.0198 12.4424 20.8342 8.91359 21.7514C8.85629 21.7745 8.79662 21.7912 8.73565 21.8012Z" fill="black"/>
<path d="M10.4516 15.7658C10.3258 15.765 10.2029 15.7275 10.098 15.658C9.99305 15.5885 9.91067 15.4899 9.86089 15.3743C9.82678 15.2968 9.80838 15.2133 9.80676 15.1286C9.80514 15.044 9.82031 14.9598 9.85142 14.881C9.88253 14.8023 9.92895 14.7305 9.988 14.6697C10.047 14.609 10.1175 14.5606 10.1954 14.5273C12.3462 13.6338 14.2984 12.3226 15.9392 10.6697C15.9988 10.6094 16.0697 10.5616 16.1479 10.529C16.2261 10.4963 16.31 10.4795 16.3947 10.4795C16.4794 10.4795 16.5633 10.4963 16.6415 10.529C16.7197 10.5616 16.7906 10.6094 16.8502 10.6697C16.9702 10.7909 17.0375 10.9546 17.0375 11.1252C17.0375 11.2958 16.9702 11.4595 16.8502 11.5807C15.0826 13.3465 12.9862 14.7489 10.6794 15.7088C10.6076 15.7417 10.5304 15.761 10.4516 15.7658Z" fill="black"/>
<path d="M14.0243 9.18917C13.8525 9.18917 13.6878 9.12093 13.5663 8.99947C13.4448 8.878 13.3766 8.71326 13.3766 8.54148V7.55216C13.3671 7.46188 13.3767 7.37062 13.4047 7.28428C13.4328 7.19795 13.4786 7.11847 13.5394 7.05101C13.6001 6.98354 13.6743 6.9296 13.7573 6.89268C13.8402 6.85575 13.93 6.83667 14.0207 6.83667C14.1115 6.83667 14.2013 6.85575 14.2842 6.89268C14.3671 6.9296 14.4414 6.98354 14.5021 7.05101C14.5628 7.11847 14.6087 7.19795 14.6367 7.28428C14.6648 7.37062 14.6744 7.46188 14.6649 7.55216V8.54148C14.6658 8.6262 14.6499 8.71027 14.6182 8.78881C14.5864 8.86735 14.5394 8.93881 14.4798 8.99904C14.4202 9.05928 14.3493 9.1071 14.2711 9.13974C14.1929 9.17238 14.109 9.18918 14.0243 9.18917Z" fill="black"/>
<path d="M32.7431 27.3601H25.2484C25.0893 27.3434 24.9419 27.2683 24.8349 27.1494C24.7278 27.0304 24.6686 26.8761 24.6686 26.716C24.6686 26.556 24.7278 26.4016 24.8349 26.2827C24.9419 26.1637 25.0893 26.0886 25.2484 26.0719H31.8605L27.0491 9.18931H24.6292L21.7822 19.1537C21.7341 19.3177 21.6239 19.4564 21.4749 19.5402C21.326 19.624 21.1502 19.6462 20.9851 19.6021C20.8214 19.5542 20.6832 19.4435 20.6006 19.2943C20.5179 19.145 20.4975 18.9692 20.5438 18.805L23.5189 8.34234C23.5576 8.20832 23.6391 8.09061 23.7509 8.0071C23.8626 7.9236 23.9986 7.87887 24.1381 7.87971H27.5331C27.6729 7.87767 27.8095 7.92195 27.9215 8.00563C28.0335 8.08931 28.1146 8.2077 28.1523 8.34234L33.3267 26.5203C33.3537 26.6159 33.3582 26.7164 33.3396 26.814C33.3211 26.9116 33.2801 27.0035 33.22 27.0826C33.1655 27.1607 33.0946 27.2261 33.0122 27.274C32.9298 27.322 32.838 27.3514 32.7431 27.3601Z" fill="black"/>
<path d="M34.4525 30.1429H27.5415C27.3823 30.1261 27.235 30.051 27.1279 29.9321C27.0209 29.8131 26.9616 29.6588 26.9616 29.4987C26.9616 29.3387 27.0209 29.1843 27.1279 29.0654C27.235 28.9464 27.3823 28.8713 27.5415 28.8546H33.8048V27.3599H27.1999C27.1096 27.3694 27.0183 27.3599 26.932 27.3318C26.8457 27.3038 26.7662 27.2579 26.6987 27.1972C26.6313 27.1364 26.5773 27.0622 26.5404 26.9793C26.5034 26.8963 26.4844 26.8066 26.4844 26.7158C26.4844 26.625 26.5034 26.5353 26.5404 26.4523C26.5773 26.3694 26.6313 26.2952 26.6987 26.2344C26.7662 26.1737 26.8457 26.1278 26.932 26.0998C27.0183 26.0718 27.1096 26.0622 27.1999 26.0717H34.4525C34.6224 26.0717 34.7854 26.1392 34.9055 26.2593C35.0256 26.3794 35.0931 26.5424 35.0931 26.7122V29.4952C35.094 29.5799 35.0782 29.6639 35.0464 29.7425C35.0146 29.821 34.9676 29.8925 34.908 29.9527C34.8484 30.013 34.7775 30.0608 34.6993 30.0934C34.6211 30.1261 34.5373 30.1429 34.4525 30.1429Z" fill="black"/>
<path d="M37.6182 33.5237H23.49C23.3309 33.5069 23.1835 33.4318 23.0765 33.3129C22.9694 33.194 22.9102 33.0396 22.9102 32.8795C22.9102 32.7195 22.9694 32.5651 23.0765 32.4462C23.1835 32.3273 23.3309 32.2522 23.49 32.2354H36.6075L35.6964 30.1429H27.8673C27.777 30.1524 27.6857 30.1428 27.5994 30.1148C27.513 30.0867 27.4336 30.0409 27.3661 29.9801C27.2987 29.9194 27.2447 29.8451 27.2078 29.7622C27.1708 29.6793 27.1518 29.5895 27.1518 29.4988C27.1518 29.408 27.1708 29.3182 27.2078 29.2353C27.2447 29.1524 27.2987 29.0781 27.3661 29.0174C27.4336 28.9567 27.513 28.9108 27.5994 28.8828C27.6857 28.8547 27.777 28.8451 27.8673 28.8546H36.1021C36.2274 28.8539 36.3501 28.8899 36.4551 28.9583C36.5601 29.0266 36.6428 29.1242 36.6929 29.239L38.1733 32.6269C38.2141 32.7247 38.2302 32.8311 38.2203 32.9367C38.2104 33.0423 38.1747 33.1438 38.1163 33.2323C38.058 33.3209 37.9788 33.3937 37.8858 33.4445C37.7927 33.4953 37.6886 33.5225 37.5826 33.5237H37.6182Z" fill="black"/>
<path d="M26.1383 25.1251C25.9928 25.1264 25.8513 25.0781 25.7369 24.9882C25.6225 24.8983 25.5422 24.7722 25.509 24.6305C25.4759 24.4889 25.492 24.3401 25.5546 24.2088C25.6172 24.0775 25.7227 23.9715 25.8536 23.9081C27.6221 23.0557 29.2305 21.9048 30.608 20.5059C30.7291 20.3923 30.8892 20.3296 31.0552 20.3306C31.2213 20.3316 31.3806 20.3964 31.5002 20.5114C31.6199 20.6265 31.6908 20.7832 31.6982 20.9491C31.7057 21.1149 31.6492 21.2773 31.5404 21.4027C30.0573 22.9069 28.3262 24.1445 26.423 25.0611C26.3335 25.1019 26.2366 25.1237 26.1383 25.1251Z" fill="black"/>
<path d="M24.4806 20.3281C24.333 20.3313 24.1888 20.2834 24.0724 20.1925C23.9561 20.1016 23.8747 19.9733 23.842 19.8293C23.8094 19.6853 23.8275 19.5345 23.8933 19.4023C23.9591 19.2701 24.0685 19.1647 24.203 19.1039C26.0602 18.2415 27.7477 17.0531 29.1853 15.595C29.2448 15.5347 29.3158 15.4869 29.3939 15.4542C29.4721 15.4216 29.5561 15.4048 29.6408 15.4048C29.7255 15.4048 29.8094 15.4216 29.8876 15.4542C29.9658 15.4869 30.0367 15.5347 30.0963 15.595C30.2163 15.7162 30.2835 15.8799 30.2835 16.0505C30.2835 16.2211 30.2163 16.3848 30.0963 16.506C28.548 18.0717 26.7332 19.3491 24.7369 20.2783C24.6558 20.3125 24.5686 20.3294 24.4806 20.3281Z" fill="black"/>
<path d="M22.2739 15.7658C22.1481 15.765 22.0251 15.7275 21.9202 15.658C21.8153 15.5885 21.7329 15.4899 21.6832 15.3743C21.649 15.2968 21.6306 15.2133 21.629 15.1286C21.6274 15.0439 21.6426 14.9598 21.6737 14.881C21.7048 14.8023 21.7512 14.7304 21.8103 14.6697C21.8693 14.609 21.9398 14.5606 22.0177 14.5273C24.167 13.6311 26.1188 12.3203 27.7615 10.6697C27.8842 10.5666 28.0408 10.5128 28.201 10.5185C28.3612 10.5242 28.5136 10.5891 28.6287 10.7007C28.7437 10.8122 28.8134 10.9625 28.8241 11.1224C28.8348 11.2823 28.7859 11.4406 28.6867 11.5665C26.9263 13.338 24.8343 14.7455 22.5301 15.7088C22.4496 15.7453 22.3623 15.7647 22.2739 15.7658Z" fill="black"/>
<path d="M25.8466 9.18917C25.7615 9.18917 25.6773 9.17242 25.5987 9.13987C25.5201 9.10732 25.4487 9.05961 25.3886 8.99947C25.3284 8.93932 25.2807 8.86792 25.2482 8.78934C25.2156 8.71076 25.1989 8.62654 25.1989 8.54148V7.55216C25.1894 7.46188 25.199 7.37062 25.227 7.28428C25.255 7.19795 25.3009 7.11847 25.3616 7.05101C25.4224 6.98354 25.4966 6.9296 25.5795 6.89268C25.6625 6.85575 25.7522 6.83667 25.843 6.83667C25.9338 6.83667 26.0235 6.85575 26.1065 6.89268C26.1894 6.9296 26.2636 6.98354 26.3244 7.05101C26.3851 7.11847 26.431 7.19795 26.459 7.28428C26.4871 7.37062 26.4966 7.46188 26.4871 7.55216V8.54148C26.4881 8.6262 26.4722 8.71027 26.4404 8.78881C26.4087 8.86735 26.3616 8.93881 26.302 8.99904C26.2425 9.05928 26.1715 9.1071 26.0933 9.13974C26.0152 9.17238 25.9313 9.18918 25.8466 9.18917Z" fill="black"/>
<path d="M39.2845 33.5237H0.579878C0.420719 33.507 0.273392 33.4319 0.166315 33.313C0.0592384 33.194 0 33.0397 0 32.8796C0 32.7196 0.0592384 32.5652 0.166315 32.4463C0.273392 32.3273 0.420719 32.2522 0.579878 32.2355H39.2845C39.3748 32.226 39.4661 32.2356 39.5524 32.2636C39.6387 32.2917 39.7182 32.3375 39.7857 32.3983C39.8531 32.459 39.9071 32.5332 39.944 32.6162C39.9809 32.6991 40 32.7888 40 32.8796C40 32.9704 39.9809 33.0602 39.944 33.1431C39.9071 33.226 39.8531 33.3002 39.7857 33.361C39.7182 33.4217 39.6387 33.4676 39.5524 33.4956C39.4661 33.5237 39.3748 33.5332 39.2845 33.5237Z" fill="black"/>
</g>
</svg>
