<svg width="40" height="40" viewBox="0 0 40 40" fill="none" xmlns="http://www.w3.org/2000/svg">
<g opacity="0.5">
<path d="M23.068 30.4074H16.5953C16.4362 30.4073 16.2825 30.3499 16.1623 30.2457C16.0421 30.1416 15.9635 29.9976 15.9408 29.8402L15.4171 25.9783C15.4034 25.8852 15.41 25.7902 15.4363 25.6999C15.4627 25.6095 15.5082 25.5259 15.5698 25.4547C15.631 25.3835 15.7069 25.3265 15.7923 25.2876C15.8777 25.2486 15.9705 25.2287 16.0644 25.2293H23.6062C23.7 25.2287 23.7929 25.2486 23.8783 25.2876C23.9637 25.3265 24.0396 25.3835 24.1008 25.4547C24.1632 25.5255 24.2098 25.6089 24.2374 25.6992C24.265 25.7895 24.273 25.8847 24.2608 25.9783L23.7298 29.8402C23.7084 29.9995 23.6292 30.1454 23.5071 30.25C23.385 30.3546 23.2287 30.4107 23.068 30.4074ZM17.1553 29.0911H22.4935L22.8353 26.5456H16.8062L17.1553 29.0911Z" fill="black"/>
<path d="M23.0689 26.5454H16.5962C16.4256 26.5456 16.2615 26.4799 16.1382 26.362C16.0149 26.2441 15.9419 26.0831 15.9344 25.9127L15.4107 13.5491C15.407 13.4598 15.4211 13.3707 15.4524 13.287C15.4836 13.2033 15.5313 13.1268 15.5926 13.0618C15.6535 12.9977 15.7268 12.9466 15.8081 12.9116C15.8893 12.8766 15.9768 12.8584 16.0653 12.8582H23.6071C23.6965 12.8581 23.785 12.8761 23.8673 12.9112C23.9495 12.9462 24.0238 12.9976 24.0857 13.0622C24.1475 13.1267 24.1957 13.2032 24.2272 13.2869C24.2586 13.3705 24.2729 13.4597 24.2689 13.5491L23.738 25.9127C23.7323 26.085 23.6589 26.2482 23.5336 26.3666C23.4083 26.4851 23.2413 26.5493 23.0689 26.5454ZM17.2507 25.2291H22.4798L22.9526 14.16H16.7853L17.2507 25.2291Z" fill="black"/>
<path d="M25.3663 14.16H14.3408C14.1757 14.1605 14.0165 14.0986 13.8951 13.9866C13.7737 13.8747 13.6991 13.721 13.6863 13.5564L12.959 4.65457C12.952 4.56453 12.9639 4.474 12.9939 4.38883C13.024 4.30365 13.0715 4.22571 13.1335 4.16002C13.1941 4.09297 13.2682 4.03951 13.3509 4.00316C13.4337 3.96681 13.5232 3.94839 13.6135 3.94912H14.5081C14.6654 3.04812 15.135 2.23133 15.8346 1.64215C16.5341 1.05296 17.4189 0.729057 18.3335 0.727295H21.3735C22.2873 0.72933 23.1711 1.0535 23.8694 1.64278C24.5678 2.23206 25.036 3.04872 25.1917 3.94912H26.0863C26.1766 3.94839 26.2661 3.96681 26.3488 4.00316C26.4316 4.03951 26.5057 4.09297 26.5663 4.16002C26.6294 4.22491 26.6777 4.30273 26.7079 4.38812C26.738 4.4735 26.7492 4.56442 26.7408 4.65457L26.0135 13.5564C26.0008 13.7198 25.9272 13.8724 25.8074 13.9842C25.6875 14.096 25.5301 14.1587 25.3663 14.16ZM14.9154 12.8437H24.7626L25.359 5.26548H24.5735C24.487 5.26549 24.4013 5.24831 24.3214 5.21497C24.2415 5.18162 24.169 5.13275 24.1081 5.0712C24.0472 5.00965 23.9992 4.93663 23.9667 4.85638C23.9343 4.77612 23.918 4.69023 23.919 4.60366C23.9171 3.9253 23.6467 3.27527 23.1671 2.79559C22.6874 2.31591 22.0373 2.04558 21.359 2.04366H18.319C17.6406 2.04558 16.9906 2.31591 16.5109 2.79559C16.0312 3.27527 15.7609 3.9253 15.759 4.60366C15.759 4.69057 15.7419 4.77663 15.7086 4.85692C15.6754 4.93722 15.6266 5.01018 15.5651 5.07163C15.5037 5.13309 15.4307 5.18184 15.3504 5.2151C15.2701 5.24836 15.1841 5.26548 15.0972 5.26548H14.3408L14.9154 12.8437Z" fill="black"/>
<path d="M21.0465 36.3418H18.632C18.4707 36.3412 18.3152 36.2818 18.1947 36.1746C18.0742 36.0675 17.9969 35.92 17.9774 35.76L17.2501 29.8254C17.2399 29.7336 17.2492 29.6406 17.2774 29.5526C17.3057 29.4645 17.3523 29.3835 17.4141 29.3148C17.476 29.2461 17.5516 29.1913 17.6362 29.1539C17.7208 29.1166 17.8123 29.0976 17.9047 29.0982H21.7229C21.8153 29.0976 21.9068 29.1166 21.9914 29.1539C22.0759 29.1913 22.1516 29.2461 22.2135 29.3148C22.2753 29.3835 22.3219 29.4645 22.3501 29.5526C22.3784 29.6406 22.3877 29.7336 22.3774 29.8254L21.6501 35.76C21.6322 35.9117 21.5622 36.0526 21.4522 36.1586C21.3422 36.2647 21.1988 36.3294 21.0465 36.3418ZM19.2138 35.0472H20.4574L21.0029 30.4291H18.7047L19.2138 35.0472Z" fill="black"/>
<path d="M19.8396 39.8836C19.664 39.8836 19.4957 39.8138 19.3716 39.6897C19.2475 39.5656 19.1777 39.3973 19.1777 39.2218V35.6799C19.1949 35.5173 19.2716 35.3668 19.3931 35.2574C19.5146 35.1479 19.6724 35.0874 19.8359 35.0874C19.9994 35.0874 20.1572 35.1479 20.2787 35.2574C20.4003 35.3668 20.477 35.5173 20.4941 35.6799V39.2218C20.4951 39.3083 20.4788 39.3942 20.4464 39.4745C20.4139 39.5547 20.3659 39.6277 20.305 39.6893C20.2441 39.7508 20.1716 39.7997 20.0917 39.8331C20.0118 39.8664 19.9261 39.8836 19.8396 39.8836Z" fill="black"/>
<path d="M33.3156 10.3926H25.8829C25.7941 10.3927 25.7062 10.3749 25.6245 10.3403C25.5427 10.3056 25.4688 10.2549 25.407 10.1912C25.3453 10.1274 25.297 10.0518 25.2651 9.96897C25.2331 9.88614 25.2181 9.79774 25.2211 9.70901L25.3447 7.06173C25.3522 6.89323 25.4245 6.73412 25.5464 6.61759C25.6684 6.50106 25.8306 6.43611 25.9992 6.43628H33.3156C33.8403 6.43628 34.3434 6.64469 34.7144 7.01567C35.0854 7.38665 35.2938 7.88982 35.2938 8.41446C35.2938 8.93911 35.0854 9.44226 34.7144 9.81324C34.3434 10.1842 33.8403 10.3926 33.3156 10.3926ZM26.5665 9.07627H33.3156C33.4025 9.07627 33.4886 9.05916 33.5689 9.0259C33.6492 8.99264 33.7221 8.94389 33.7836 8.88244C33.845 8.82098 33.8938 8.74802 33.927 8.66772C33.9603 8.58743 33.9774 8.50137 33.9774 8.41446C33.9774 8.32755 33.9603 8.24148 33.927 8.16119C33.8938 8.08089 33.845 8.00793 33.7836 7.94648C33.7221 7.88502 33.6492 7.83628 33.5689 7.80302C33.4886 7.76976 33.4025 7.75264 33.3156 7.75264H26.632L26.5665 9.07627Z" fill="black"/>
<path d="M31.7952 39.8837H7.86794C7.70531 39.8666 7.55477 39.7899 7.44536 39.6683C7.33594 39.5468 7.27539 39.3891 7.27539 39.2255C7.27539 39.062 7.33594 38.9043 7.44536 38.7827C7.55477 38.6612 7.70531 38.5845 7.86794 38.5674H31.7952C31.8875 38.5576 31.9807 38.5674 32.0689 38.5961C32.1572 38.6247 32.2384 38.6716 32.3073 38.7337C32.3762 38.7957 32.4314 38.8716 32.4691 38.9563C32.5068 39.0411 32.5263 39.1328 32.5263 39.2255C32.5263 39.3183 32.5068 39.41 32.4691 39.4947C32.4314 39.5795 32.3762 39.6553 32.3073 39.7174C32.2384 39.7795 32.1572 39.8263 32.0689 39.855C31.9807 39.8836 31.8875 39.8934 31.7952 39.8837Z" fill="black"/>
<path d="M23.6071 35.6581C23.4561 35.6601 23.3093 35.6085 23.1926 35.5127C23.0567 35.4017 22.9703 35.2413 22.9526 35.0668C22.9349 34.8922 22.9872 34.7178 23.0981 34.5818L24.2326 33.1999C24.3487 33.0832 24.5042 33.014 24.6686 33.0057C24.833 32.9975 24.9946 33.0508 25.1219 33.1553C25.2491 33.2598 25.3328 33.408 25.3566 33.5709C25.3805 33.7338 25.3427 33.8997 25.2508 34.0363L24.1162 35.4181C24.0546 35.4935 23.9769 35.5541 23.8888 35.5956C23.8008 35.6371 23.7045 35.6585 23.6071 35.6581Z" fill="black"/>
<path d="M25.1201 37.3455C24.9731 37.3449 24.8305 37.2954 24.7148 37.2048C24.599 37.1142 24.5168 36.9876 24.4809 36.8451C24.4451 36.7025 24.4577 36.5521 24.5168 36.4176C24.5759 36.283 24.6781 36.1719 24.8074 36.1019L28.3564 34.2182C28.5085 34.1551 28.6786 34.151 28.8336 34.2066C28.9885 34.2623 29.1172 34.3737 29.1944 34.5191C29.2717 34.6644 29.292 34.8334 29.2513 34.993C29.2107 35.1525 29.112 35.2912 28.9746 35.3819L25.4255 37.2655C25.3316 37.3164 25.2269 37.3439 25.1201 37.3455Z" fill="black"/>
<path d="M16.0649 35.6582C15.9675 35.6586 15.8713 35.6372 15.7832 35.5957C15.6952 35.5542 15.6175 35.4935 15.5558 35.4182L14.4285 34.0364C14.3734 33.9701 14.3319 33.8935 14.3065 33.8112C14.2811 33.7288 14.2721 33.6422 14.2802 33.5564C14.2884 33.4706 14.3133 33.3872 14.3538 33.3111C14.3942 33.2349 14.4492 33.1675 14.5158 33.1127C14.6516 33.0029 14.8251 32.9505 14.999 32.9668C15.173 32.9831 15.3336 33.0668 15.4467 33.2L16.574 34.5818C16.6548 34.6777 16.7064 34.7949 16.7226 34.9193C16.7388 35.0437 16.7189 35.1701 16.6652 35.2836C16.6116 35.397 16.5265 35.4926 16.42 35.559C16.3136 35.6254 16.1903 35.6598 16.0649 35.6582Z" fill="black"/>
<path d="M14.5599 37.3455C14.451 37.3426 14.3441 37.3153 14.2472 37.2655L10.7054 35.3819C10.568 35.2912 10.4693 35.1525 10.4287 34.993C10.388 34.8334 10.4083 34.6644 10.4856 34.5191C10.5628 34.3737 10.6915 34.2623 10.8464 34.2066C11.0014 34.151 11.1715 34.1551 11.3236 34.2182L14.8654 36.1019C14.9941 36.1716 15.0961 36.282 15.1553 36.4159C15.2145 36.5497 15.2277 36.6995 15.1928 36.8416C15.1579 36.9838 15.0769 37.1103 14.9623 37.2015C14.8478 37.2927 14.7063 37.3433 14.5599 37.3455Z" fill="black"/>
<path d="M24.5236 5.26555H15.0691C14.9065 5.24844 14.7559 5.17171 14.6465 5.05018C14.5371 4.92864 14.4766 4.7709 14.4766 4.60737C14.4766 4.44384 14.5371 4.2861 14.6465 4.16457C14.7559 4.04303 14.9065 3.96631 15.0691 3.94919H24.5236C24.6159 3.93948 24.7091 3.94927 24.7974 3.97792C24.8856 4.00658 24.9668 4.05345 25.0357 4.11551C25.1047 4.17757 25.1598 4.25343 25.1975 4.33816C25.2352 4.4229 25.2547 4.51462 25.2547 4.60737C25.2547 4.70013 25.2352 4.79185 25.1975 4.87658C25.1598 4.96132 25.1047 5.03717 25.0357 5.09923C24.9668 5.16129 24.8856 5.20817 24.7974 5.23682C24.7091 5.26548 24.6159 5.27526 24.5236 5.26555Z" fill="black"/>
<path d="M21.0768 14.16C20.9484 14.1613 20.8222 14.126 20.7131 14.0582C20.5681 13.9605 20.4671 13.8098 20.4318 13.6386C20.3964 13.4673 20.4296 13.289 20.524 13.1418L21.935 10.96L22.1895 8.19639C22.2023 8.03176 22.2769 7.87807 22.3983 7.76612C22.5197 7.65418 22.6789 7.59225 22.844 7.59275H25.7531C25.8454 7.58304 25.9386 7.59283 26.0269 7.62148C26.1151 7.65013 26.1963 7.697 26.2652 7.75906C26.3341 7.82112 26.3893 7.89698 26.427 7.98172C26.4647 8.06645 26.4842 8.15817 26.4842 8.25093C26.4842 8.34368 26.4647 8.4354 26.427 8.52014C26.3893 8.60487 26.3341 8.68073 26.2652 8.74279C26.1963 8.80485 26.1151 8.85173 26.0269 8.88038C25.9386 8.90903 25.8454 8.91882 25.7531 8.90911H23.4113L23.2004 11.2437C23.1931 11.3502 23.158 11.4531 23.0986 11.5418L21.6149 13.8618C21.5561 13.9514 21.4764 14.0253 21.3826 14.0773C21.2889 14.1292 21.1839 14.1576 21.0768 14.16Z" fill="black"/>
<path d="M13.796 10.3926H6.34146C5.81682 10.3926 5.31365 10.1842 4.94267 9.81324C4.57169 9.44226 4.36328 8.93911 4.36328 8.41446C4.36328 7.88982 4.57169 7.38665 4.94267 7.01567C5.31365 6.64469 5.81682 6.43628 6.34146 6.43628H13.6505C13.8192 6.43611 13.9815 6.50106 14.1034 6.61759C14.2254 6.73412 14.2976 6.89323 14.3051 7.06173L14.4287 9.70901C14.4319 9.79709 14.4175 9.88493 14.3863 9.96735C14.355 10.0498 14.3077 10.1251 14.2469 10.189C14.129 10.3133 13.9672 10.3864 13.796 10.3926ZM6.34146 7.75264C6.25455 7.75264 6.1685 7.76976 6.0882 7.80302C6.00791 7.83628 5.93495 7.88502 5.87349 7.94648C5.81204 8.00793 5.76328 8.08089 5.73002 8.16119C5.69677 8.24148 5.67964 8.32755 5.67964 8.41446C5.67964 8.50137 5.69677 8.58743 5.73002 8.66772C5.76328 8.74802 5.81204 8.82098 5.87349 8.88244C5.93495 8.94389 6.00791 8.99264 6.0882 9.0259C6.1685 9.05916 6.25455 9.07627 6.34146 9.07627H13.0833L13.0178 7.75264H6.34146Z" fill="black"/>
<path d="M18.6025 14.16C18.4926 14.1613 18.3842 14.1346 18.2875 14.0824C18.1908 14.0302 18.109 13.9543 18.0498 13.8618L16.5225 11.5636C16.4631 11.4748 16.4279 11.372 16.4207 11.2654L16.2098 8.93087H13.8679C13.7053 8.91375 13.5548 8.83703 13.4454 8.71549C13.3359 8.59396 13.2754 8.43622 13.2754 8.27269C13.2754 8.10916 13.3359 7.95142 13.4454 7.82988C13.5548 7.70835 13.7053 7.63162 13.8679 7.6145H16.8134C16.9785 7.614 17.1377 7.67593 17.2591 7.78788C17.3805 7.89982 17.4551 8.05352 17.4679 8.21814L17.7152 10.9818L19.1261 13.1636C19.2225 13.3102 19.2567 13.4891 19.2213 13.6609C19.1858 13.8328 19.0836 13.9835 18.937 14.08C18.835 14.137 18.7192 14.1647 18.6025 14.16Z" fill="black"/>
<path d="M19.7963 22.6037C19.6208 22.6037 19.4525 22.534 19.3283 22.4099C19.2042 22.2858 19.1345 22.1175 19.1345 21.9419V16.9965C19.1248 16.9042 19.1346 16.811 19.1632 16.7228C19.1919 16.6345 19.2388 16.5533 19.3008 16.4844C19.3629 16.4155 19.4387 16.3603 19.5235 16.3226C19.6082 16.2849 19.6999 16.2654 19.7927 16.2654C19.8854 16.2654 19.9772 16.2849 20.0619 16.3226C20.1466 16.3603 20.2225 16.4155 20.2845 16.4844C20.3466 16.5533 20.3935 16.6345 20.4221 16.7228C20.4508 16.811 20.4606 16.9042 20.4509 16.9965V21.9565C20.4489 22.1288 20.3791 22.2934 20.2566 22.4146C20.134 22.5358 19.9687 22.6038 19.7963 22.6037Z" fill="black"/>
</g>
</svg>
