<svg width="40" height="40" viewBox="0 0 40 40" fill="none" xmlns="http://www.w3.org/2000/svg">
<g opacity="0.5">
<path d="M22.598 37.1186H17.178C16.7368 37.1186 16.3134 36.9447 15.9996 36.6346C15.6858 36.3244 15.5069 35.9031 15.5018 35.4619V32.1029C15.117 31.966 14.7387 31.8029 14.3734 31.6333L12.0058 34.0009C11.6916 34.3144 11.2659 34.4904 10.8221 34.4904C10.3782 34.4904 9.95249 34.3144 9.63826 34.0009L5.80316 30.1658C5.48971 29.8516 5.31368 29.4259 5.31368 28.982C5.31368 28.5382 5.48971 28.1125 5.80316 27.7982L8.17075 25.4307C7.99465 25.0589 7.83811 24.6806 7.70114 24.3023H4.35521C3.91573 24.2938 3.49701 24.1136 3.18864 23.8004C2.88026 23.4871 2.7067 23.0656 2.70508 22.6261V17.1995C2.70508 16.755 2.88168 16.3286 3.19603 16.0143C3.51039 15.6999 3.93674 15.5233 4.3813 15.5233H7.72723C7.8635 15.1391 8.02026 14.7624 8.19684 14.395L5.82925 12.0274C5.5158 11.7131 5.33977 11.2874 5.33977 10.8436C5.33977 10.3997 5.5158 9.97401 5.82925 9.65978L9.66435 5.82468C9.98339 5.52045 10.4073 5.35073 10.8481 5.35073C11.289 5.35073 11.7129 5.52045 12.0319 5.82468L14.3995 8.19227C14.767 8.01569 15.1436 7.85893 15.5279 7.72266V4.38326C15.5279 3.93869 15.7045 3.51234 16.0188 3.19799C16.3332 2.88363 16.7595 2.70703 17.2041 2.70703H22.598C23.0421 2.70875 23.4674 2.8859 23.7814 3.19988C24.0954 3.51387 24.2725 3.93922 24.2743 4.38326V7.72919C24.6525 7.86615 25.0308 8.02269 25.4026 8.19879L27.7702 5.8312C28.0844 5.51775 28.5101 5.34172 28.954 5.34172C29.3978 5.34172 29.8235 5.51775 30.1378 5.8312L33.9729 9.6663C34.2863 9.98054 34.4624 10.4063 34.4624 10.8501C34.4624 11.2939 34.2863 11.7197 33.9729 12.0339L31.6053 14.4015C31.7752 14.7693 31.9255 15.146 32.0553 15.5298H35.4013C35.6219 15.5281 35.8408 15.57 36.0452 15.653C36.2497 15.7361 36.4357 15.8587 36.5927 16.0139C36.7496 16.169 36.8744 16.3536 36.9598 16.5571C37.0453 16.7605 37.0897 16.9789 37.0905 17.1995V22.6196C37.0905 23.063 36.9148 23.4884 36.6019 23.8025C36.2889 24.1167 35.8643 24.2941 35.4208 24.2958H32.0553C31.9184 24.6741 31.7618 25.0524 31.5857 25.4241L33.9533 27.7917C34.2668 28.1059 34.4428 28.5317 34.4428 28.9755C34.4428 29.4193 34.2668 29.8451 33.9533 30.1593L30.1182 33.9944C29.804 34.3079 29.3783 34.4839 28.9344 34.4839C28.4906 34.4839 28.0649 34.3079 27.7506 33.9944L25.4026 31.6333C25.0308 31.8029 24.6525 31.966 24.2743 32.1029V35.4619C24.2691 35.9031 24.0902 36.3244 23.7764 36.6346C23.4626 36.9447 23.0392 37.1186 22.598 37.1186ZM14.2495 30.3224C14.3445 30.3239 14.438 30.3462 14.5234 30.3876C15.0853 30.6781 15.6699 30.9224 16.2714 31.1181C16.3907 31.1556 16.4949 31.2303 16.5689 31.3312C16.6428 31.432 16.6825 31.5539 16.6823 31.679V35.4619C16.684 35.5922 16.737 35.7167 16.8298 35.8082C16.9226 35.8998 17.0477 35.9511 17.178 35.9511H22.598C22.7284 35.9511 22.8535 35.8998 22.9462 35.8082C23.039 35.7167 23.092 35.5922 23.0937 35.4619V31.679C23.0931 31.5547 23.1319 31.4335 23.2046 31.3327C23.2772 31.2319 23.38 31.1567 23.4981 31.1181C24.1017 30.9224 24.6885 30.6781 25.2526 30.3876C25.3599 30.3384 25.4795 30.3226 25.5958 30.3424C25.7122 30.3622 25.8199 30.4166 25.9048 30.4985L28.5724 33.1661C28.6661 33.2565 28.7912 33.3071 28.9214 33.3071C29.0516 33.3071 29.1767 33.2565 29.2703 33.1661L33.1054 29.331C33.1959 29.2373 33.2464 29.1122 33.2464 28.982C33.2464 28.8518 33.1959 28.7267 33.1054 28.6331L30.4378 25.9655C30.3559 25.8805 30.3015 25.7728 30.2817 25.6565C30.2619 25.5401 30.2777 25.4205 30.3269 25.3132C30.6191 24.7499 30.8635 24.163 31.0574 23.5588C31.0961 23.4407 31.1712 23.3379 31.272 23.2652C31.3728 23.1925 31.4941 23.1537 31.6183 23.1544H35.3882C35.5185 23.1527 35.643 23.0997 35.7345 23.0069C35.8261 22.9141 35.8774 22.789 35.8774 22.6587V17.1995C35.8774 17.0692 35.8261 16.9441 35.7345 16.8513C35.643 16.7585 35.5185 16.7056 35.3882 16.7038H31.6509C31.5261 16.703 31.4047 16.6629 31.304 16.5891C31.2033 16.5154 31.1284 16.4117 31.09 16.2929C30.896 15.6908 30.6517 15.1061 30.3595 14.545C30.3023 14.4329 30.2822 14.3055 30.3022 14.1812C30.3221 14.0569 30.381 13.9422 30.4704 13.8536L33.138 11.1925C33.2285 11.0989 33.2791 10.9738 33.2791 10.8436C33.2791 10.7134 33.2285 10.5883 33.138 10.4946L29.3029 6.65953C29.2574 6.61319 29.2031 6.57638 29.1432 6.55125C29.0833 6.52613 29.019 6.51318 28.954 6.51318C28.889 6.51318 28.8247 6.52613 28.7648 6.55125C28.7049 6.57638 28.6506 6.61319 28.605 6.65953L25.9374 9.32062C25.8525 9.40253 25.7448 9.45692 25.6284 9.4767C25.5121 9.49648 25.3925 9.48073 25.2852 9.4315C24.7113 9.14303 24.1133 8.90515 23.4981 8.72057C23.38 8.67984 23.2776 8.60328 23.2051 8.50156C23.1326 8.39984 23.0937 8.27804 23.0937 8.15313V4.38326C23.0937 4.25179 23.0415 4.12571 22.9485 4.03275C22.8556 3.93979 22.7295 3.88756 22.598 3.88756H17.178C17.0465 3.88756 16.9205 3.93979 16.8275 4.03275C16.7345 4.12571 16.6823 4.25179 16.6823 4.38326V8.14661C16.6829 8.27256 16.6434 8.39542 16.5695 8.49743C16.4957 8.59943 16.3913 8.6753 16.2714 8.71405C15.669 8.90462 15.0842 9.14684 14.5234 9.43802C14.4113 9.49523 14.2839 9.51532 14.1597 9.49539C14.0354 9.47546 13.9207 9.41654 13.8321 9.32714L11.184 6.66605C11.0904 6.57559 10.9653 6.52503 10.8351 6.52503C10.7049 6.52503 10.5798 6.57559 10.4862 6.66605L6.61844 10.5012C6.5721 10.5467 6.53529 10.601 6.51016 10.6609C6.48504 10.7208 6.4721 10.7851 6.4721 10.8501C6.4721 10.9151 6.48504 10.9794 6.51016 11.0393C6.53529 11.0992 6.5721 11.1535 6.61844 11.199L9.28606 13.8601C9.37267 13.9505 9.42919 14.0655 9.44787 14.1893C9.46656 14.313 9.44649 14.4396 9.39041 14.5515C9.10196 15.1135 8.85983 15.6981 8.66644 16.2995C8.62682 16.4188 8.55073 16.5226 8.44892 16.5963C8.3471 16.6701 8.22471 16.7099 8.099 16.7104H4.35521C4.22375 16.7104 4.09767 16.7626 4.00471 16.8555C3.91175 16.9485 3.85952 17.0746 3.85952 17.2061V22.6261C3.85952 22.7575 3.91175 22.8836 4.00471 22.9766C4.09767 23.0695 4.22375 23.1218 4.35521 23.1218H8.11857C8.2437 23.1207 8.36596 23.1593 8.46787 23.2319C8.56978 23.3046 8.64613 23.4075 8.68601 23.5261C8.8794 24.1296 9.12152 24.7164 9.40998 25.2806C9.45916 25.3875 9.47549 25.5065 9.45691 25.6226C9.43833 25.7387 9.38568 25.8467 9.30562 25.9329L6.61844 28.6331C6.5721 28.6786 6.53529 28.7329 6.51016 28.7928C6.48504 28.8527 6.4721 28.9171 6.4721 28.982C6.4721 29.047 6.48504 29.1113 6.51016 29.1712C6.53529 29.2311 6.5721 29.2854 6.61844 29.331L10.4535 33.1661C10.5472 33.2565 10.6723 33.3071 10.8025 33.3071C10.9327 33.3071 11.0578 33.2565 11.1514 33.1661L13.8125 30.4985C13.8692 30.4405 13.9374 30.395 14.0126 30.3646C14.0878 30.3343 14.1685 30.3199 14.2495 30.3224Z" fill="black"/>
<path d="M19.8849 32.853C17.3224 32.853 14.8175 32.093 12.6871 30.6691C10.5567 29.2452 8.89642 27.2214 7.9164 24.8538C6.93639 22.4861 6.68063 19.881 7.1815 17.3679C7.68236 14.8549 8.91733 12.5469 10.7302 10.7358C12.543 8.92482 14.8523 7.69217 17.3658 7.19384C19.8794 6.69551 22.4843 6.95389 24.8509 7.93629C27.2176 8.9187 29.2397 10.581 30.6615 12.7128C32.0832 14.8447 32.8407 17.3504 32.8381 19.9128C32.8312 23.3449 31.4639 26.6343 29.0358 29.0599C26.6077 31.4856 23.317 32.8496 19.8849 32.853ZM19.8849 8.12707C17.5629 8.12707 15.2931 8.81562 13.3624 10.1056C11.4318 11.3957 9.92703 13.2292 9.03845 15.3744C8.14987 17.5197 7.91737 19.8802 8.37037 22.1576C8.82336 24.4349 9.9415 26.5268 11.5834 28.1687C13.2253 29.8106 15.3171 30.9287 17.5945 31.3817C19.8719 31.8347 22.2324 31.6022 24.3776 30.7136C26.5229 29.825 28.3564 28.3203 29.6464 26.3896C30.9364 24.459 31.625 22.1891 31.625 19.8672C31.6095 16.7595 30.3673 13.7836 28.1685 11.5874C25.9698 9.39108 22.9926 8.15212 19.8849 8.14012V8.12707Z" fill="black"/>
<path d="M19.8849 30.1919C19.7391 30.1765 19.6041 30.1077 19.5059 29.9987C19.4078 29.8897 19.3535 29.7482 19.3535 29.6016C19.3535 29.4549 19.4078 29.3135 19.5059 29.2045C19.6041 29.0955 19.7391 29.0267 19.8849 29.0113C20.1817 29.0041 20.4778 28.9801 20.7719 28.9396C20.9292 28.925 21.0858 28.9729 21.2079 29.0731C21.33 29.1732 21.4077 29.3174 21.4242 29.4744C21.4332 29.5521 21.4266 29.6308 21.4048 29.7058C21.383 29.7809 21.3464 29.8509 21.2972 29.9117C21.248 29.9724 21.1872 30.0227 21.1182 30.0597C21.0493 30.0966 20.9737 30.1193 20.8959 30.1266C20.5567 30.1723 20.2241 30.1919 19.8849 30.1919Z" fill="black"/>
<path d="M23.7795 29.3768C23.6427 29.3802 23.5089 29.3357 23.4014 29.251C23.2939 29.1663 23.2193 29.0466 23.1907 28.9127C23.1621 28.7789 23.1811 28.6392 23.2446 28.5179C23.3081 28.3966 23.4119 28.3013 23.5382 28.2484C24.1245 27.9902 24.6819 27.6711 25.2014 27.2962C25.3329 27.2045 25.4954 27.1688 25.6532 27.1969C25.8109 27.2251 25.9511 27.3147 26.0428 27.4462C26.1344 27.5777 26.1701 27.7402 26.142 27.8979C26.1139 28.0557 26.0242 28.1959 25.8928 28.2876C25.3066 28.7102 24.6769 29.0688 24.0143 29.3572C23.9387 29.382 23.8583 29.3887 23.7795 29.3768ZM27.6929 26.2265C27.566 26.2256 27.4427 26.1845 27.3407 26.1091C27.2785 26.0634 27.226 26.0058 27.1861 25.9397C27.1462 25.8736 27.1198 25.8003 27.1083 25.7239C27.0968 25.6476 27.1004 25.5697 27.119 25.4948C27.1377 25.4199 27.1709 25.3494 27.2168 25.2873C27.5935 24.7702 27.9149 24.2149 28.1756 23.6307C28.2077 23.5596 28.2535 23.4955 28.3104 23.4421C28.3672 23.3887 28.4341 23.3471 28.5071 23.3195C28.58 23.2919 28.6577 23.279 28.7357 23.2815C28.8137 23.284 28.8904 23.3018 28.9615 23.3339C29.0326 23.366 29.0966 23.4118 29.15 23.4687C29.2034 23.5256 29.2451 23.5924 29.2726 23.6654C29.3002 23.7384 29.3131 23.8161 29.3106 23.894C29.3082 23.972 29.2904 24.0487 29.2583 24.1198C28.9564 24.7754 28.5916 25.4001 28.169 25.9852C28.1154 26.0581 28.0457 26.1177 27.9655 26.1595C27.8852 26.2014 27.7964 26.2243 27.706 26.2265H27.6929ZM29.5061 21.524H29.4474C29.2909 21.5075 29.1472 21.4296 29.0482 21.3073C28.9491 21.1849 28.9027 21.0283 28.9191 20.8717C28.9886 20.2344 28.9886 19.5915 28.9191 18.9542C28.9114 18.8771 28.9189 18.7992 28.9413 18.7251C28.9637 18.6509 29.0005 18.5819 29.0495 18.5219C29.0986 18.462 29.159 18.4122 29.2272 18.3756C29.2955 18.339 29.3703 18.3162 29.4474 18.3085C29.5245 18.3008 29.6023 18.3083 29.6765 18.3307C29.7507 18.3531 29.8197 18.3898 29.8797 18.4389C29.9396 18.488 29.9893 18.5483 30.026 18.6166C30.0626 18.6849 30.0854 18.7597 30.0931 18.8368C30.1323 19.192 30.1519 19.5491 30.1518 19.9064C30.1545 20.2702 30.1371 20.6338 30.0996 20.9957C30.0851 21.1398 30.0178 21.2736 29.9107 21.3711C29.8035 21.4686 29.664 21.5231 29.5191 21.524H29.5061ZM28.7365 16.5475C28.6217 16.5481 28.5092 16.5151 28.413 16.4525C28.3168 16.3899 28.241 16.3005 28.1951 16.1953C27.9345 15.613 27.6131 15.0599 27.2363 14.5451C27.1904 14.4831 27.1572 14.4125 27.1386 14.3376C27.12 14.2627 27.1163 14.1848 27.1278 14.1085C27.1393 14.0322 27.1658 13.9589 27.2057 13.8928C27.2456 13.8267 27.2981 13.7691 27.3603 13.7233C27.4867 13.6302 27.6448 13.591 27.8 13.6142C27.9553 13.6375 28.095 13.7212 28.1886 13.8472C28.613 14.43 28.9758 15.0551 29.2713 15.7126C29.3355 15.8554 29.3407 16.0178 29.2857 16.1644C29.2307 16.311 29.1201 16.4299 28.9778 16.4953C28.9014 16.5279 28.8195 16.5456 28.7365 16.5475ZM25.534 12.6341C25.4102 12.6333 25.2896 12.5946 25.1884 12.5232C24.6835 12.158 24.1439 11.8434 23.5773 11.584C23.4346 11.5209 23.3229 11.4036 23.2666 11.2581C23.2103 11.1125 23.2142 10.9506 23.2773 10.8079C23.3405 10.6651 23.4577 10.5534 23.6033 10.4971C23.7488 10.4408 23.9108 10.4447 24.0535 10.5078C24.714 10.7963 25.3415 11.1549 25.9254 11.5775C25.988 11.6228 26.0412 11.68 26.0817 11.7458C26.1221 11.8117 26.1492 11.8849 26.1614 11.9613C26.1735 12.0376 26.1704 12.1156 26.1523 12.1908C26.1342 12.266 26.1014 12.3368 26.0558 12.3993C25.997 12.4806 25.9178 12.5451 25.8263 12.5863C25.7347 12.6275 25.6339 12.644 25.534 12.6341Z" fill="black"/>
<path d="M20.8306 10.8664H20.7719C20.4784 10.8664 20.1849 10.8273 19.8849 10.8273C19.7391 10.8119 19.6041 10.7431 19.5059 10.6341C19.4078 10.5251 19.3535 10.3837 19.3535 10.237C19.3535 10.0903 19.4078 9.94888 19.5059 9.83988C19.6041 9.73089 19.7391 9.66208 19.8849 9.64673C20.2175 9.64673 20.5371 9.64673 20.8893 9.69238C21.0358 9.71333 21.1691 9.78821 21.2632 9.90235C21.3573 10.0165 21.4054 10.1617 21.3981 10.3094C21.3907 10.4572 21.3285 10.5968 21.2235 10.7011C21.1186 10.8053 20.9784 10.8666 20.8306 10.8729V10.8664Z" fill="black"/>
<path d="M19.8854 30.1919C17.2049 30.1244 14.6569 29.0121 12.7849 27.0924C10.913 25.1726 9.86523 22.5974 9.86523 19.9161C9.86523 17.2347 10.913 14.6595 12.7849 12.7398C14.6569 10.82 17.2049 9.70776 19.8854 9.64022C19.9682 9.63152 20.0518 9.64029 20.1309 9.66599C20.21 9.69169 20.2829 9.73373 20.3447 9.78938C20.4065 9.84504 20.4559 9.91307 20.4898 9.98906C20.5236 10.0651 20.5411 10.1473 20.5411 10.2305C20.5411 10.3137 20.5236 10.3959 20.4898 10.4719C20.4559 10.5479 20.4065 10.6159 20.3447 10.6716C20.2829 10.7273 20.21 10.7693 20.1309 10.795C20.0518 10.8207 19.9682 10.8295 19.8854 10.8208C17.5154 10.8842 15.2637 11.8703 13.6098 13.5691C11.9559 15.2679 11.0304 17.5452 11.0304 19.9161C11.0304 22.287 11.9559 24.5643 13.6098 26.263C15.2637 27.9618 17.5154 28.9479 19.8854 29.0114C19.9682 29.0027 20.0518 29.0115 20.1309 29.0372C20.21 29.0629 20.2829 29.1049 20.3447 29.1606C20.4065 29.2162 20.4559 29.2842 20.4898 29.3602C20.5236 29.4362 20.5411 29.5185 20.5411 29.6017C20.5411 29.6848 20.5236 29.7671 20.4898 29.8431C20.4559 29.9191 20.4065 29.9871 20.3447 30.0428C20.2829 30.0984 20.21 30.1405 20.1309 30.1662C20.0518 30.1919 19.9682 30.2006 19.8854 30.1919Z" fill="black"/>
<path d="M19.8857 27.5895C18.3674 27.5895 16.8832 27.1393 15.6208 26.2958C14.3583 25.4522 13.3744 24.2533 12.7933 22.8506C12.2123 21.4478 12.0603 19.9043 12.3565 18.4152C12.6527 16.926 13.3838 15.5582 14.4574 14.4845C15.5311 13.4109 16.8989 12.6798 18.3881 12.3836C19.8772 12.0874 21.4207 12.2394 22.8235 12.8204C24.2262 13.4015 25.4251 14.3854 26.2687 15.6479C27.1122 16.9103 27.5624 18.3945 27.5624 19.9128C27.5624 21.9488 26.7536 23.9014 25.314 25.3411C23.8743 26.7807 21.9217 27.5895 19.8857 27.5895ZM19.8857 13.4231C18.5943 13.4232 17.332 13.8065 16.2588 14.5246C15.1855 15.2428 14.3495 16.2634 13.8569 17.457C13.3642 18.6507 13.2369 19.9638 13.4912 21.2299C13.7456 22.496 14.37 23.6581 15.2854 24.5689C16.2008 25.4798 17.366 26.0984 18.6334 26.3463C19.9007 26.5943 21.2131 26.4605 22.4044 25.9618C23.5956 25.4632 24.6119 24.6221 25.3247 23.5452C26.0374 22.4684 26.4144 21.2042 26.408 19.9128C26.3994 18.1887 25.7084 16.538 24.4862 15.3219C23.2639 14.1058 21.6099 13.4231 19.8857 13.4231Z" fill="black"/>
<path d="M19.8854 24.6611C19.0404 24.6611 18.2145 24.4106 17.5119 23.9412C16.8094 23.4717 16.2618 22.8045 15.9385 22.0239C15.6151 21.2433 15.5305 20.3843 15.6954 19.5556C15.8602 18.7269 16.2671 17.9657 16.8646 17.3682C17.462 16.7707 18.2232 16.3639 19.0519 16.199C19.8806 16.0342 20.7396 16.1188 21.5202 16.4421C22.3009 16.7655 22.9681 17.313 23.4375 18.0156C23.9069 18.7181 24.1575 19.5441 24.1575 20.389C24.1557 21.5215 23.7051 22.6072 22.9043 23.408C22.1035 24.2088 21.0179 24.6594 19.8854 24.6611ZM19.8854 17.2975C19.2739 17.2975 18.6762 17.4788 18.1678 17.8185C17.6594 18.1582 17.2631 18.641 17.0291 19.206C16.7952 19.7709 16.7339 20.3925 16.8532 20.9922C16.9725 21.5919 17.267 22.1427 17.6993 22.5751C18.1317 23.0075 18.6825 23.3019 19.2822 23.4212C19.8819 23.5405 20.5036 23.4793 21.0685 23.2453C21.6334 23.0113 22.1162 22.615 22.4559 22.1066C22.7956 21.5982 22.9769 21.0005 22.9769 20.389C22.9752 19.5696 22.6489 18.7843 22.0695 18.2049C21.4901 17.6255 20.7048 17.2992 19.8854 17.2975Z" fill="black"/>
<path d="M18.1954 20.5586H18.0519C17.9008 20.5186 17.7714 20.4213 17.691 20.2873C17.6106 20.1533 17.5856 19.9933 17.6214 19.8412C17.7167 19.4562 17.9087 19.102 18.1792 18.8121C18.4497 18.5222 18.7898 18.3062 19.1672 18.1845C19.2409 18.1605 19.3185 18.1513 19.3957 18.1573C19.473 18.1633 19.5483 18.1845 19.6173 18.2197C19.6864 18.2548 19.7478 18.3032 19.7981 18.362C19.8485 18.4209 19.8868 18.4891 19.9107 18.5628C19.9347 18.6365 19.944 18.7141 19.9379 18.7913C19.9319 18.8686 19.9107 18.9439 19.8756 19.0129C19.8405 19.082 19.7921 19.1434 19.7332 19.1937C19.6743 19.2441 19.6061 19.2823 19.5324 19.3063C19.3461 19.3655 19.178 19.4715 19.0444 19.6143C18.9108 19.757 18.816 19.9317 18.7693 20.1216C18.736 20.2479 18.6614 20.3595 18.5574 20.4387C18.4534 20.5178 18.326 20.56 18.1954 20.5586Z" fill="black"/>
<path d="M20.7268 17.3953C20.6814 17.4018 20.6353 17.4018 20.5898 17.3953C20.1268 17.2845 19.6441 17.2845 19.181 17.3953C19.0943 17.4152 19.0043 17.4156 18.9174 17.3964C18.8306 17.3773 18.7491 17.339 18.6788 17.2845C18.6092 17.2291 18.553 17.1587 18.5146 17.0784C18.4762 16.9982 18.4565 16.9103 18.457 16.8214V15.5821C18.457 15.3054 18.567 15.0399 18.7627 14.8442C18.9584 14.6485 19.2238 14.5386 19.5006 14.5386H20.2702C20.5476 14.5386 20.8137 14.6483 21.0105 14.8438C21.2072 15.0393 21.3186 15.3048 21.3203 15.5821V16.8083C21.3196 16.8977 21.2987 16.9858 21.2592 17.066C21.2196 17.1462 21.1625 17.2164 21.092 17.2714C20.9882 17.3536 20.8592 17.3974 20.7268 17.3953ZM19.6637 15.7191V16.1235H20.1659V15.7191H19.6637Z" fill="black"/>
<path d="M19.8839 15.7191C19.8063 15.7191 19.7294 15.7037 19.6578 15.6738C19.5861 15.6439 19.5211 15.6001 19.4665 15.5449C19.4119 15.4897 19.3688 15.4242 19.3397 15.3522C19.3106 15.2802 19.296 15.2032 19.2969 15.1256V12.8297C19.3123 12.6839 19.3811 12.5489 19.4901 12.4508C19.5991 12.3526 19.7405 12.2983 19.8872 12.2983C20.0338 12.2983 20.1753 12.3526 20.2843 12.4508C20.3933 12.5489 20.4621 12.6839 20.4774 12.8297V15.1256C20.4774 15.2035 20.4621 15.2807 20.4323 15.3527C20.4024 15.4247 20.3587 15.4901 20.3036 15.5453C20.2485 15.6004 20.1831 15.6441 20.111 15.6739C20.039 15.7038 19.9619 15.7191 19.8839 15.7191Z" fill="black"/>
</g>
</svg>
