<svg width="40" height="40" viewBox="0 0 40 40" fill="none" xmlns="http://www.w3.org/2000/svg">
<g opacity="0.5">
<path d="M38.9231 26.56H2.61032C2.36112 26.56 2.11438 26.5106 1.88441 26.4146C1.65445 26.3186 1.44582 26.1779 1.27062 26.0006C1.09542 25.8234 0.95713 25.6132 0.863761 25.3821C0.770393 25.1511 0.723802 24.9038 0.726689 24.6546V22.6037C0.728613 22.1054 0.927916 21.6281 1.28096 21.2764C1.634 20.9248 2.11201 20.7273 2.61032 20.7273H36.2467C36.676 20.7167 37.1032 20.7913 37.5036 20.9467C37.904 21.1021 38.2696 21.3353 38.5793 21.6329C38.889 21.9304 39.1367 22.2864 39.308 22.6802C39.4794 23.074 39.571 23.4979 39.5776 23.9273V25.9128C39.5757 26.0851 39.5059 26.2497 39.3833 26.3709C39.2608 26.4921 39.0954 26.56 38.9231 26.56ZM2.61032 22.0655C2.53617 22.0645 2.46257 22.0783 2.39379 22.106C2.325 22.1337 2.26241 22.1748 2.20964 22.2269C2.15686 22.279 2.11496 22.3411 2.08636 22.4095C2.05777 22.4779 2.04305 22.5513 2.04305 22.6255V24.6546C2.04305 24.805 2.10282 24.9493 2.2092 25.0557C2.31559 25.1621 2.45987 25.2219 2.61032 25.2219H38.2467V23.9273C38.224 23.4154 37.9992 22.9333 37.6215 22.587C37.2438 22.2407 36.7441 22.0583 36.2321 22.08L2.61032 22.0655Z" fill="black"/>
<path d="M35.9057 22.0656H3.36748C3.2809 22.0656 3.19519 22.0484 3.1153 22.015C3.03541 21.9817 2.96293 21.9328 2.90205 21.8713C2.84118 21.8097 2.79312 21.7367 2.76065 21.6564C2.72819 21.5762 2.71197 21.4903 2.71293 21.4037C2.7187 16.6933 4.59246 12.1775 7.92322 8.84677C11.254 5.51601 15.7698 3.64225 20.4802 3.63647C24.8438 3.63647 27.1275 5.20738 30.0293 7.61466H35.3529C35.4395 7.61369 35.5254 7.62991 35.6056 7.66237C35.6859 7.69484 35.7589 7.7429 35.8205 7.80378C35.882 7.86465 35.9309 7.93713 35.9642 8.01702C35.9976 8.09691 36.0148 8.18263 36.0147 8.2692V16.8946C36.3983 18.3669 36.5914 19.8823 36.5893 21.4037C36.5904 21.4928 36.5733 21.5812 36.539 21.6634C36.5047 21.7456 36.4541 21.82 36.3901 21.8819C36.3261 21.9439 36.2501 21.9921 36.1668 22.0237C36.0835 22.0553 35.9946 22.0695 35.9057 22.0656ZM4.01475 20.7492H35.2657C35.215 19.533 35.0321 18.3258 34.7202 17.1492C34.7126 17.0937 34.7126 17.0374 34.7202 16.9819V8.93102H29.7893C29.6355 8.92901 29.4869 8.87521 29.3675 8.7783C26.5166 6.40012 24.502 4.95284 20.4802 4.95284C16.2318 4.95683 12.1494 6.60277 9.08628 9.54661C6.02318 12.4904 4.21648 16.5043 4.04384 20.7492H4.01475Z" fill="black"/>
<path d="M35.3519 16.6546C35.2653 16.6546 35.1796 16.6374 35.0997 16.6041C35.0198 16.5707 34.9473 16.5219 34.8864 16.4603C34.8256 16.3988 34.7775 16.3258 34.745 16.2455C34.7126 16.1653 34.6963 16.0794 34.6973 15.9928V9.35278C34.6973 9.17919 34.7663 9.01271 34.889 8.88996C35.0118 8.76721 35.1783 8.69824 35.3519 8.69824C35.8657 8.69824 36.3745 8.79944 36.8492 8.99607C37.3239 9.1927 37.7552 9.48093 38.1186 9.84426C38.4819 10.2076 38.7701 10.6389 38.9667 11.1136C39.1634 11.5883 39.2646 12.0971 39.2646 12.611V12.7419C39.2627 13.779 38.8498 14.7731 38.1164 15.5065C37.3831 16.2398 36.389 16.6527 35.3519 16.6546ZM36.0137 10.1092V15.2001C36.5678 15.054 37.0581 14.7286 37.408 14.2748C37.7579 13.8209 37.9479 13.2641 37.9482 12.691V12.5601C37.9435 11.9898 37.7516 11.4368 37.4021 10.9862C37.0526 10.5355 36.5648 10.2121 36.0137 10.0655V10.1092Z" fill="black"/>
<path d="M35.3522 17.6364H33.2213C33.1291 17.6461 33.0358 17.6363 32.9476 17.6077C32.8594 17.579 32.7782 17.5321 32.7092 17.4701C32.6403 17.408 32.5852 17.3322 32.5475 17.2474C32.5097 17.1627 32.4902 17.071 32.4902 16.9782C32.4902 16.8855 32.5097 16.7937 32.5475 16.709C32.5852 16.6243 32.6403 16.5484 32.7092 16.4863C32.7782 16.4243 32.8594 16.3774 32.9476 16.3488C33.0358 16.3201 33.1291 16.3103 33.2213 16.32H35.3522C35.4445 16.3103 35.5377 16.3201 35.626 16.3488C35.7142 16.3774 35.7954 16.4243 35.8643 16.4863C35.9333 16.5484 35.9884 16.6243 36.0261 16.709C36.0638 16.7937 36.0833 16.8855 36.0833 16.9782C36.0833 17.071 36.0638 17.1627 36.0261 17.2474C35.9884 17.3322 35.9333 17.408 35.8643 17.4701C35.7954 17.5321 35.7142 17.579 35.626 17.6077C35.5377 17.6363 35.4445 17.6461 35.3522 17.6364Z" fill="black"/>
<path d="M29.7891 8.93111H27.28C27.1174 8.91399 26.9669 8.83727 26.8575 8.71573C26.748 8.5942 26.6875 8.43646 26.6875 8.27293C26.6875 8.1094 26.748 7.95166 26.8575 7.83012C26.9669 7.70859 27.1174 7.63187 27.28 7.61475H29.7891C29.9518 7.63187 30.1023 7.70859 30.2117 7.83012C30.3211 7.95166 30.3817 8.1094 30.3817 8.27293C30.3817 8.43646 30.3211 8.5942 30.2117 8.71573C30.1023 8.83727 29.9518 8.91399 29.7891 8.93111Z" fill="black"/>
<path d="M13.6427 19.7747H7.88992C7.66635 19.7896 7.44209 19.7585 7.23104 19.6832C7.01999 19.6079 6.82666 19.4901 6.66302 19.337C6.49939 19.1839 6.36893 18.9989 6.27974 18.7933C6.19055 18.5878 6.14453 18.3661 6.14453 18.142C6.14453 17.9179 6.19055 17.6962 6.27974 17.4907C6.36893 17.2851 6.49939 17.1 6.66302 16.947C6.82666 16.7939 7.01999 16.6761 7.23104 16.6008C7.44209 16.5255 7.66635 16.4943 7.88992 16.5093H13.6427C13.8662 16.4943 14.0905 16.5255 14.3015 16.6008C14.5126 16.6761 14.7059 16.7939 14.8696 16.947C15.0332 17.1 15.1636 17.2851 15.2528 17.4907C15.342 17.6962 15.388 17.9179 15.388 18.142C15.388 18.3661 15.342 18.5878 15.2528 18.7933C15.1636 18.9989 15.0332 19.1839 14.8696 19.337C14.7059 19.4901 14.5126 19.6079 14.3015 19.6832C14.0905 19.7585 13.8662 19.7896 13.6427 19.7747ZM7.88992 17.8256C7.80506 17.8256 7.72366 17.8593 7.66365 17.9193C7.60364 17.9794 7.56993 18.0607 7.56993 18.1456C7.57183 18.2292 7.60638 18.3088 7.66618 18.3672C7.72599 18.4257 7.8063 18.4584 7.88992 18.4584H13.6427C13.7256 18.4584 13.8051 18.4254 13.8638 18.3668C13.9224 18.3081 13.9554 18.2286 13.9554 18.1456C13.9554 18.062 13.9227 17.9817 13.8642 17.9219C13.8058 17.8621 13.7263 17.8275 13.6427 17.8256H7.88992Z" fill="black"/>
<path d="M23.948 19.7747H18.1953C17.7811 19.7471 17.3929 19.563 17.1093 19.2598C16.8257 18.9567 16.668 18.5571 16.668 18.142C16.668 17.7269 16.8257 17.3273 17.1093 17.0241C17.3929 16.721 17.7811 16.5369 18.1953 16.5093H23.948C24.1716 16.4943 24.3959 16.5255 24.6069 16.6008C24.818 16.6761 25.0113 16.7939 25.1749 16.947C25.3386 17.1 25.469 17.2851 25.5582 17.4907C25.6474 17.6962 25.6934 17.9179 25.6934 18.142C25.6934 18.3661 25.6474 18.5878 25.5582 18.7933C25.469 18.9989 25.3386 19.1839 25.1749 19.337C25.0113 19.4901 24.818 19.6079 24.6069 19.6832C24.3959 19.7585 24.1716 19.7896 23.948 19.7747ZM18.1953 17.8256C18.1117 17.8275 18.0322 17.8621 17.9737 17.9219C17.9153 17.9817 17.8826 18.062 17.8826 18.1456C17.8826 18.2286 17.9155 18.3081 17.9742 18.3668C18.0328 18.4254 18.1124 18.4584 18.1953 18.4584H23.948C24.0317 18.4584 24.112 18.4257 24.1718 18.3672C24.2316 18.3088 24.2661 18.2292 24.268 18.1456C24.268 18.0607 24.2343 17.9794 24.1743 17.9193C24.1143 17.8593 24.0329 17.8256 23.948 17.8256H18.1953Z" fill="black"/>
<path d="M31.9491 19.7747H28.5091C28.2855 19.7896 28.0612 19.7585 27.8502 19.6832C27.6391 19.6079 27.4458 19.4901 27.2822 19.337C27.1185 19.1839 26.9881 18.9989 26.8989 18.7933C26.8097 18.5878 26.7637 18.3661 26.7637 18.142C26.7637 17.9179 26.8097 17.6962 26.8989 17.4907C26.9881 17.2851 27.1185 17.1 27.2822 16.947C27.4458 16.7939 27.6391 16.6761 27.8502 16.6008C28.0612 16.5255 28.2855 16.4943 28.5091 16.5093H30.64C30.7322 16.4995 30.8255 16.5093 30.9137 16.538C31.0019 16.5666 31.0831 16.6135 31.1521 16.6756C31.221 16.7376 31.2761 16.8135 31.3138 16.8982C31.3516 16.983 31.3711 17.0747 31.3711 17.1674C31.3711 17.2602 31.3516 17.3519 31.3138 17.4367C31.2761 17.5214 31.221 17.5972 31.1521 17.6593C31.0831 17.7214 31.0019 17.7682 30.9137 17.7969C30.8255 17.8255 30.7322 17.8353 30.64 17.8256H28.5091C28.4242 17.8256 28.3428 17.8593 28.2828 17.9193C28.2228 17.9794 28.1891 18.0607 28.1891 18.1456C28.1891 18.1873 28.1974 18.2286 28.2135 18.267C28.2297 18.3054 28.2534 18.3402 28.2832 18.3694C28.313 18.3985 28.3484 18.4214 28.3872 18.4367C28.4259 18.452 28.4674 18.4593 28.5091 18.4584H31.9491C32.0413 18.4486 32.1346 18.4584 32.2228 18.4871C32.311 18.5157 32.3922 18.5626 32.4612 18.6247C32.5301 18.6867 32.5852 18.7626 32.6229 18.8473C32.6607 18.9321 32.6802 19.0238 32.6802 19.1165C32.6802 19.2093 32.6607 19.301 32.6229 19.3857C32.5852 19.4705 32.5301 19.5463 32.4612 19.6084C32.3922 19.6705 32.311 19.7173 32.2228 19.746C32.1346 19.7746 32.0413 19.7844 31.9491 19.7747Z" fill="black"/>
<path d="M13.6643 36.8874C13.5713 36.889 13.4792 36.8691 13.3952 36.8292C13.316 36.7939 13.2446 36.7431 13.1852 36.68C13.1258 36.6168 13.0795 36.5425 13.049 36.4613C13.0186 36.3801 13.0046 36.2937 13.0078 36.207C13.0111 36.1203 13.0315 36.0352 13.0679 35.9565L14.8134 32.1165C13.7789 32.0223 12.7818 31.6832 11.9043 31.1274L9.44612 36.5092C9.36641 36.6577 9.23304 36.7702 9.07323 36.8237C8.91342 36.8773 8.7392 36.8678 8.58611 36.7973C8.43303 36.7268 8.31261 36.6006 8.24943 36.4443C8.18625 36.288 8.18507 36.1136 8.24612 35.9565L11.0388 29.8474C11.0809 29.754 11.1442 29.6718 11.2238 29.6074C11.3034 29.543 11.397 29.4982 11.497 29.4765C11.5959 29.4552 11.6983 29.4565 11.7965 29.4804C11.8948 29.5044 11.9863 29.5503 12.0643 29.6147C13.1153 30.484 14.4651 30.907 15.8243 30.7928C15.9387 30.784 16.0535 30.8052 16.1573 30.8541C16.2611 30.9031 16.3504 30.9782 16.4165 31.0721C16.4825 31.1659 16.5229 31.2754 16.5339 31.3896C16.5448 31.5039 16.5259 31.619 16.4788 31.7238L14.297 36.5092C14.2417 36.6285 14.1518 36.7284 14.039 36.7958C13.9261 36.8633 13.7955 36.8952 13.6643 36.8874Z" fill="black"/>
<path d="M15.3442 32.1382C13.6735 32.1412 12.067 31.4952 10.8635 30.3365C9.66 29.1777 8.95358 27.5969 8.89325 25.9273C8.88916 25.8374 8.90386 25.7476 8.93642 25.6637C8.96898 25.5798 9.01868 25.5036 9.08234 25.44C9.14415 25.3775 9.21778 25.328 9.29895 25.2943C9.38011 25.2606 9.46718 25.2434 9.55506 25.2437H21.1405C21.3177 25.2447 21.4875 25.3152 21.6132 25.44C21.6745 25.505 21.7222 25.5816 21.7534 25.6653C21.7847 25.749 21.7988 25.838 21.7951 25.9273C21.7347 27.5969 21.0283 29.1777 19.8248 30.3365C18.6213 31.4952 17.0148 32.1412 15.3442 32.1382ZM10.2532 26.56C10.4611 27.7526 11.0831 28.8337 12.0097 29.6128C12.9363 30.3918 14.1081 30.819 15.3187 30.819C16.5293 30.819 17.7011 30.3918 18.6277 29.6128C19.5543 28.8337 20.1763 27.7526 20.3842 26.56H10.2532Z" fill="black"/>
<path d="M15.345 29.3382C14.4244 29.3318 13.5398 28.98 12.8663 28.3523C12.1929 27.7247 11.7797 26.867 11.7086 25.9491C11.7023 25.858 11.7146 25.7666 11.7446 25.6804C11.7746 25.5941 11.8217 25.5148 11.8832 25.4473C11.9452 25.3826 12.0198 25.3312 12.1023 25.2962C12.1848 25.2612 12.2736 25.2433 12.3632 25.2437H18.3632C18.4528 25.2433 18.5416 25.2612 18.6241 25.2962C18.7066 25.3312 18.7811 25.3826 18.8432 25.4473C18.9046 25.5148 18.9518 25.5941 18.9818 25.6804C19.0118 25.7666 19.024 25.858 19.0177 25.9491C18.9445 26.8726 18.5257 27.7345 17.8449 28.3627C17.1641 28.9909 16.2714 29.3393 15.345 29.3382ZM13.1632 26.56C13.3373 26.9964 13.6383 27.3705 14.0272 27.6341C14.4161 27.8977 14.8752 28.0385 15.345 28.0385C15.8148 28.0385 16.2739 27.8977 16.6628 27.6341C17.0517 27.3705 17.3527 26.9964 17.5268 26.56H13.1632Z" fill="black"/>
</g>
</svg>
