<svg width="41" height="40" viewBox="0 0 41 40" fill="none" xmlns="http://www.w3.org/2000/svg">
<g opacity="0.5">
<path d="M24.3829 35.5201H6.12104C5.09423 35.5182 4.11013 35.1089 3.38474 34.3822C2.65935 33.6554 2.25195 32.6706 2.25195 31.6438V30.851C2.25388 29.8255 2.66213 28.8425 3.38731 28.1173C4.11249 27.3921 5.09549 26.9839 6.12104 26.9819H24.3829C25.4097 26.9819 26.3945 27.3893 27.1213 28.1147C27.848 28.8401 28.2573 29.8242 28.2592 30.851V31.6438C28.2592 32.6718 27.8508 33.6578 27.1239 34.3848C26.3969 35.1117 25.4109 35.5201 24.3829 35.5201V35.5201ZM6.12104 28.2983C5.44402 28.2983 4.79472 28.5673 4.31599 29.046C3.83726 29.5247 3.56832 30.174 3.56832 30.851V31.6438C3.56831 32.3215 3.83703 32.9715 4.31555 33.4514C4.79407 33.9313 5.44335 34.2018 6.12104 34.2038H24.3829C25.0612 34.2018 25.7113 33.9315 26.1909 33.4518C26.6706 32.9722 26.9409 32.3221 26.9429 31.6438V30.851C26.9409 30.1733 26.6704 29.5241 26.1905 29.0455C25.7106 28.567 25.0606 28.2983 24.3829 28.2983H6.12104Z" fill="black"/>
<path d="M23.5753 33.3675H6.94254C6.38124 33.3675 5.84294 33.1445 5.44604 32.7476C5.04915 32.3507 4.82617 31.8124 4.82617 31.2511C4.82617 30.6898 5.04915 30.1515 5.44604 29.7546C5.84294 29.3577 6.38124 29.1348 6.94254 29.1348H23.5753C24.1366 29.1348 24.6749 29.3577 25.0718 29.7546C25.4687 30.1515 25.6916 30.6898 25.6916 31.2511C25.6916 31.8124 25.4687 32.3507 25.0718 32.7476C24.6749 33.1445 24.1366 33.3675 23.5753 33.3675V33.3675ZM6.97163 30.4584C6.86657 30.4584 6.76254 30.4791 6.66548 30.5193C6.56842 30.5595 6.48023 30.6184 6.40594 30.6927C6.33166 30.767 6.27273 30.8552 6.23252 30.9522C6.19232 31.0493 6.17163 31.1533 6.17163 31.2584C6.17163 31.3634 6.19232 31.4675 6.23252 31.5645C6.27273 31.6616 6.33166 31.7498 6.40594 31.8241C6.48023 31.8984 6.56842 31.9573 6.66548 31.9975C6.76254 32.0377 6.86657 32.0584 6.97163 32.0584H23.5753C23.7874 32.0584 23.9909 31.9741 24.1409 31.8241C24.291 31.6741 24.3753 31.4706 24.3753 31.2584C24.3753 31.0462 24.291 30.8427 24.1409 30.6927C23.9909 30.5427 23.7874 30.4584 23.5753 30.4584H6.97163Z" fill="black"/>
<path d="M15.2396 28.2982H2.22869C1.65004 28.2982 1.09509 28.0684 0.685915 27.6592C0.276745 27.25 0.046875 26.6951 0.046875 26.1164V21.9782C0.046875 21.3996 0.276745 20.8446 0.685915 20.4355C1.09509 20.0263 1.65004 19.7964 2.22869 19.7964H15.2396C15.3262 19.7955 15.4121 19.8117 15.4923 19.8441C15.5726 19.8766 15.6456 19.9247 15.7071 19.9855C15.7687 20.0464 15.8176 20.1189 15.8509 20.1988C15.8843 20.2787 15.9014 20.3644 15.9014 20.451V27.5928C15.9074 27.6833 15.8947 27.7741 15.8641 27.8595C15.8336 27.9449 15.7858 28.0231 15.7237 28.0892C15.6616 28.1554 15.5866 28.2081 15.5034 28.244C15.4201 28.28 15.3303 28.2984 15.2396 28.2982V28.2982ZM2.22869 21.1564C2.11791 21.1564 2.0082 21.1782 1.90585 21.2206C1.80349 21.263 1.71049 21.3252 1.63215 21.4035C1.55381 21.4819 1.49167 21.5748 1.44927 21.6772C1.40688 21.7796 1.38506 21.8893 1.38506 22.0001V26.1382C1.38506 26.362 1.47394 26.5766 1.63215 26.7348C1.79036 26.893 2.00495 26.9819 2.22869 26.9819H14.5923V21.1637L2.22869 21.1564Z" fill="black"/>
<path d="M27.2114 28.2983H15.2405C15.154 28.2983 15.0682 28.2811 14.9883 28.2478C14.9085 28.2144 14.836 28.1656 14.7751 28.104C14.7142 28.0425 14.6662 27.9694 14.6337 27.8892C14.6012 27.8089 14.585 27.7231 14.586 27.6365V17.8765C14.586 17.7029 14.6549 17.5364 14.7777 17.4136C14.9004 17.2909 15.0669 17.2219 15.2405 17.2219H21.1242C21.275 17.2212 21.4214 17.2726 21.5387 17.3674L27.5969 22.2401C27.6741 22.3022 27.7364 22.3808 27.7792 22.4702C27.822 22.5596 27.8442 22.6574 27.8442 22.7565V27.6728C27.8369 27.8376 27.7677 27.9936 27.6504 28.1096C27.5331 28.2256 27.3763 28.2929 27.2114 28.2983V28.2983ZM15.9242 26.9819H26.5278V23.0328L20.8987 18.5238H15.9023L15.9242 26.9819Z" fill="black"/>
<path d="M39.6475 35.5202H0.731101C0.638855 35.5299 0.545598 35.5201 0.457379 35.4915C0.369161 35.4628 0.28795 35.4159 0.219014 35.3539C0.150079 35.2918 0.0949584 35.2159 0.0572281 35.1312C0.0194978 35.0465 0 34.9548 0 34.862C0 34.7693 0.0194978 34.6775 0.0572281 34.5928C0.0949584 34.5081 0.150079 34.4322 0.219014 34.3701C0.28795 34.3081 0.369161 34.2612 0.457379 34.2326C0.545598 34.2039 0.638855 34.1941 0.731101 34.2038H39.6475C39.8101 34.221 39.9606 34.2977 40.07 34.4192C40.1795 34.5407 40.24 34.6985 40.24 34.862C40.24 35.0255 40.1795 35.1833 40.07 35.3048C39.9606 35.4264 39.8101 35.5031 39.6475 35.5202V35.5202Z" fill="black"/>
<path d="M19.0153 28.2983C18.8398 28.2983 18.6715 28.2286 18.5474 28.1045C18.4232 27.9804 18.3535 27.8121 18.3535 27.6365V22.7202C18.3535 22.5446 18.4232 22.3763 18.5474 22.2522C18.6715 22.1281 18.8398 22.0583 19.0153 22.0583H27.2117C27.3872 22.0583 27.5556 22.1281 27.6797 22.2522C27.8038 22.3763 27.8735 22.5446 27.8735 22.7202C27.8735 22.8957 27.8038 23.064 27.6797 23.1881C27.5556 23.3123 27.3872 23.382 27.2117 23.382H19.6699V27.6365C19.6708 27.7231 19.6546 27.809 19.6222 27.8892C19.5897 27.9695 19.5416 28.0425 19.4808 28.1041C19.4199 28.1656 19.3474 28.2145 19.2675 28.2478C19.1876 28.2812 19.1019 28.2983 19.0153 28.2983V28.2983Z" fill="black"/>
<path d="M19.0151 23.3819C18.9282 23.3819 18.8421 23.3647 18.7618 23.3315C18.6815 23.2982 18.6085 23.2495 18.5471 23.188C18.4856 23.1266 18.4369 23.0536 18.4036 22.9733C18.3704 22.893 18.3532 22.8069 18.3532 22.72V21.8473C18.3435 21.7551 18.3533 21.6618 18.382 21.5736C18.4106 21.4854 18.4575 21.4042 18.5196 21.3352C18.5816 21.2663 18.6575 21.2112 18.7422 21.1734C18.827 21.1357 18.9187 21.1162 19.0114 21.1162C19.1042 21.1162 19.1959 21.1357 19.2806 21.1734C19.3654 21.2112 19.4412 21.2663 19.5033 21.3352C19.5653 21.4042 19.6122 21.4854 19.6409 21.5736C19.6695 21.6618 19.6793 21.7551 19.6696 21.8473V22.72C19.6706 22.8066 19.6544 22.8925 19.6219 22.9727C19.5894 23.053 19.5414 23.126 19.4805 23.1876C19.4196 23.2491 19.3471 23.298 19.2672 23.3313C19.1873 23.3647 19.1016 23.3819 19.0151 23.3819Z" fill="black"/>
<path d="M6.94197 33.3673C6.80911 33.3689 6.6792 33.3282 6.57106 33.251C6.42687 33.1522 6.32759 33.0004 6.29489 32.8287C6.26219 32.6571 6.29872 32.4794 6.39652 32.3346L8.38197 29.4255C8.48801 29.306 8.63372 29.2288 8.79219 29.2083C8.95066 29.1879 9.1112 29.2254 9.24415 29.314C9.3771 29.4027 9.4735 29.5364 9.51554 29.6906C9.55758 29.8447 9.54243 30.0089 9.47288 30.1528L7.48742 33.0619C7.42871 33.1538 7.3482 33.2298 7.25304 33.283C7.15788 33.3363 7.05102 33.3653 6.94197 33.3673V33.3673Z" fill="black"/>
<path d="M10.6292 33.3675C10.5088 33.3682 10.3906 33.3357 10.2875 33.2736C10.1844 33.2115 10.1004 33.1222 10.0448 33.0154C9.98917 32.9087 9.96405 32.7887 9.97221 32.6686C9.98036 32.5485 10.0215 32.433 10.091 32.3347L12.0765 29.4257C12.1253 29.3541 12.1878 29.2929 12.2605 29.2457C12.3332 29.1984 12.4145 29.1661 12.4997 29.1505C12.5849 29.135 12.6724 29.1365 12.7571 29.155C12.8417 29.1735 12.9219 29.2086 12.9928 29.2584C13.0642 29.3065 13.1252 29.3684 13.1724 29.4404C13.2195 29.5125 13.2518 29.5932 13.2674 29.6778C13.283 29.7625 13.2815 29.8494 13.2631 29.9334C13.2447 30.0175 13.2097 30.0971 13.1601 30.1675L11.1747 33.0766C11.1147 33.1662 11.0336 33.2397 10.9384 33.2905C10.8433 33.3412 10.7371 33.3677 10.6292 33.3675V33.3675Z" fill="black"/>
<path d="M14.3248 33.3675C14.1921 33.3681 14.0625 33.3274 13.9539 33.2511C13.8097 33.1524 13.7104 33.0006 13.6777 32.8289C13.645 32.6572 13.6815 32.4796 13.7793 32.3347L15.7648 29.4257C15.8136 29.3541 15.8762 29.2929 15.9488 29.2457C16.0215 29.1984 16.1028 29.1661 16.188 29.1505C16.2733 29.135 16.3607 29.1365 16.4454 29.155C16.53 29.1735 16.6102 29.2086 16.6811 29.2584C16.7531 29.3059 16.8148 29.3674 16.8626 29.4392C16.9104 29.5109 16.9435 29.5915 16.9597 29.6762C16.976 29.7609 16.9752 29.848 16.9573 29.9323C16.9394 30.0167 16.9049 30.0966 16.8557 30.1675L14.8702 33.0766C14.8099 33.1658 14.7286 33.2389 14.6336 33.2896C14.5385 33.3403 14.4325 33.367 14.3248 33.3675V33.3675Z" fill="black"/>
<path d="M18.019 33.3673C17.8862 33.3689 17.7563 33.3282 17.6481 33.251C17.576 33.2027 17.5141 33.1406 17.4662 33.0682C17.4183 32.9958 17.3852 32.9146 17.369 32.8293C17.3527 32.744 17.3536 32.6564 17.3716 32.5714C17.3895 32.4865 17.4242 32.406 17.4736 32.3346L19.459 29.4255C19.5651 29.306 19.7108 29.2288 19.8693 29.2083C20.0277 29.1879 20.1883 29.2254 20.3212 29.314C20.4542 29.4027 20.5506 29.5364 20.5926 29.6906C20.6346 29.8447 20.6195 30.0089 20.5499 30.1528L18.5572 33.0619C18.5002 33.1537 18.421 33.2297 18.327 33.2831C18.233 33.3364 18.1271 33.3654 18.019 33.3673V33.3673Z" fill="black"/>
<path d="M21.7056 33.3674C21.5731 33.367 21.4437 33.3265 21.3347 33.251C21.1905 33.1523 21.0913 33.0005 21.0586 32.8288C21.0259 32.6571 21.0624 32.4795 21.1602 32.3347L23.1529 29.4256C23.2551 29.2964 23.4023 29.2105 23.565 29.1851C23.7278 29.1597 23.8941 29.1965 24.0309 29.2883C24.1677 29.3801 24.2648 29.5201 24.3029 29.6803C24.341 29.8406 24.3173 30.0093 24.2365 30.1528L22.2511 33.0619C22.1924 33.1538 22.1119 33.2298 22.0167 33.2831C21.9215 33.3364 21.8147 33.3653 21.7056 33.3674V33.3674Z" fill="black"/>
<path d="M12.8539 25.6582H3.81389C3.72733 25.6592 3.64143 25.643 3.56117 25.6105C3.48092 25.578 3.4079 25.53 3.34635 25.4691C3.2848 25.4083 3.23593 25.3358 3.20258 25.2559C3.16924 25.176 3.15207 25.0903 3.15207 25.0037V23.091C3.14236 22.9987 3.15215 22.9055 3.1808 22.8172C3.20946 22.729 3.25633 22.6478 3.31839 22.5789C3.38045 22.5099 3.45631 22.4548 3.54105 22.4171C3.62578 22.3794 3.7175 22.3599 3.81026 22.3599C3.90301 22.3599 3.99473 22.3794 4.07947 22.4171C4.1642 22.4548 4.24006 22.5099 4.30212 22.5789C4.36418 22.6478 4.41105 22.729 4.43971 22.8172C4.46836 22.9055 4.47815 22.9987 4.46844 23.091V24.3419H12.1993V23.7455H10.0175C9.8549 23.7284 9.70436 23.6517 9.59495 23.5301C9.48554 23.4086 9.42499 23.2509 9.42499 23.0873C9.42499 22.9238 9.48554 22.7661 9.59495 22.6445C9.70436 22.523 9.8549 22.4463 10.0175 22.4292H12.8393C12.9263 22.4292 13.0123 22.4463 13.0926 22.4795C13.1729 22.5128 13.2459 22.5615 13.3073 22.623C13.3688 22.6844 13.4175 22.7574 13.4508 22.8377C13.484 22.918 13.5012 23.0041 13.5012 23.091V25.0037C13.5012 25.176 13.4332 25.3414 13.312 25.464C13.1909 25.5865 13.0262 25.6563 12.8539 25.6582V25.6582Z" fill="black"/>
<path d="M11.8513 21.1566H3.85127C3.67575 21.1566 3.50741 21.0869 3.3833 20.9628C3.25918 20.8386 3.18945 20.6703 3.18945 20.4948V14.3493C3.18945 14.1738 3.25918 14.0055 3.3833 13.8813C3.50741 13.7572 3.67575 13.6875 3.85127 13.6875H9.45127C9.62628 13.6888 9.79364 13.7595 9.91673 13.8839L12.3531 16.3275C12.4775 16.4506 12.5481 16.618 12.5495 16.793V20.4948C12.5496 20.5848 12.5313 20.674 12.4958 20.7567C12.4603 20.8395 12.4083 20.9141 12.3429 20.9761C12.2776 21.0381 12.2003 21.086 12.1157 21.1171C12.0312 21.1481 11.9412 21.1616 11.8513 21.1566V21.1566ZM4.46945 19.8402H11.2113V17.0621L9.15309 15.0039H4.46945V19.8402Z" fill="black"/>
<path d="M11.8506 17.4473C11.6769 17.4464 11.5102 17.3787 11.3851 17.2582L8.94875 14.8146C8.87671 14.7448 8.82206 14.6591 8.78921 14.5644C8.75637 14.4697 8.74624 14.3685 8.75966 14.2691C8.77065 14.1712 8.80388 14.077 8.85682 13.9938C8.90976 13.9106 8.981 13.8406 9.06512 13.7891L21.9306 5.78914C22.035 5.7299 22.1524 5.69742 22.2724 5.69459H28.5342C28.6768 5.69373 28.8157 5.73944 28.9299 5.82476C29.0441 5.91009 29.1273 6.03037 29.1669 6.16731C29.2065 6.30285 29.2001 6.44766 29.1488 6.5792C29.0975 6.71074 29.0042 6.82163 28.8833 6.89459L12.1997 17.3455C12.0967 17.4149 11.9747 17.4506 11.8506 17.4473ZM10.4833 14.4728L11.9742 15.9273L26.2651 6.98914H22.4833L10.4833 14.4728Z" fill="black"/>
<path d="M36.4474 7.01824H20.7529C20.3311 7.01633 19.927 6.84791 19.6288 6.54963C19.3305 6.25135 19.1621 5.84734 19.1602 5.42551V3.77459C19.1621 3.35276 19.3305 2.94876 19.6288 2.65048C19.927 2.3522 20.3311 2.1838 20.7529 2.18188H20.8256L36.5202 3.81097C36.6815 3.82881 36.8307 3.90534 36.9394 4.02603C37.048 4.14672 37.1084 4.30314 37.1092 4.46551V6.35642C37.1092 6.53195 37.0395 6.70028 36.9154 6.8244C36.7913 6.94851 36.623 7.01824 36.4474 7.01824V7.01824ZM20.7311 3.49825C20.6622 3.50533 20.5984 3.53732 20.5515 3.58822C20.5046 3.63912 20.4779 3.7054 20.4765 3.77459V5.42551C20.4765 5.46181 20.4837 5.49774 20.4976 5.53127C20.5114 5.5648 20.5318 5.59528 20.5575 5.62094C20.5831 5.6466 20.6136 5.66695 20.6471 5.68084C20.6807 5.69473 20.7166 5.70188 20.7529 5.70188H35.7929V5.06188L20.7311 3.49825Z" fill="black"/>
<path d="M6.59932 15.0036C6.51275 15.0046 6.42686 14.9884 6.3466 14.9559C6.26635 14.9234 6.19333 14.8754 6.13178 14.8145C6.07022 14.7536 6.02136 14.6811 5.98801 14.6012C5.95466 14.5214 5.93749 14.4356 5.9375 14.3491V12.6691C5.93856 12.557 5.96775 12.447 6.02239 12.3492C6.07703 12.2513 6.15537 12.1688 6.25023 12.1091L19.472 3.95634C19.6206 3.8599 19.8013 3.82641 19.9745 3.86323C20.1477 3.90006 20.2992 4.0042 20.3957 4.15272C20.4921 4.30124 20.5256 4.48199 20.4888 4.6552C20.452 4.82842 20.3478 4.9799 20.1993 5.07634L7.25386 13.0327V14.3491C7.25386 14.435 7.23693 14.5201 7.20404 14.5996C7.17115 14.679 7.12293 14.7511 7.06215 14.8119C7.00137 14.8727 6.92922 14.9209 6.8498 14.9538C6.77039 14.9867 6.68527 15.0036 6.59932 15.0036Z" fill="black"/>
<path d="M36.4476 21.5127C36.361 21.5127 36.2753 21.4955 36.1954 21.4622C36.1155 21.4288 36.043 21.38 35.9821 21.3184C35.9213 21.2569 35.8732 21.1839 35.8407 21.1036C35.8083 21.0234 35.792 20.9374 35.793 20.8509V6.30542C35.8101 6.14279 35.8869 5.99225 36.0084 5.88283C36.1299 5.77342 36.2877 5.71289 36.4512 5.71289C36.6147 5.71289 36.7725 5.77342 36.894 5.88283C37.0155 5.99225 37.0923 6.14279 37.1094 6.30542V20.8509C37.1094 21.0264 37.0396 21.1947 36.9155 21.3188C36.7914 21.443 36.6231 21.5127 36.4476 21.5127V21.5127Z" fill="black"/>
<path d="M36.4483 27.92C35.6859 27.92 34.9407 27.694 34.3068 27.2704C33.6729 26.8469 33.1789 26.2449 32.8872 25.5406C32.5954 24.8362 32.5191 24.0612 32.6678 23.3135C32.8165 22.5658 33.1837 21.879 33.7227 21.3399C34.2618 20.8008 34.9486 20.4337 35.6963 20.285C36.444 20.1363 37.219 20.2126 37.9234 20.5044C38.6277 20.7961 39.2297 21.2902 39.6532 21.924C40.0768 22.5579 40.3028 23.3031 40.3028 24.0655C40.3028 25.0878 39.8967 26.0682 39.1739 26.7911C38.451 27.5139 37.4706 27.92 36.4483 27.92V27.92ZM36.4483 21.5346C35.946 21.5346 35.455 21.6836 35.0374 21.9628C34.6198 22.2421 34.2945 22.6389 34.1026 23.1031C33.9107 23.5674 33.8609 24.0781 33.9594 24.5706C34.058 25.0632 34.3004 25.5154 34.6561 25.8701C35.0118 26.2248 35.4648 26.4659 35.9576 26.5631C36.4504 26.6602 36.961 26.6089 37.4247 26.4156C37.8883 26.2224 38.2842 25.896 38.5623 25.4776C38.8403 25.0593 38.9879 24.5678 38.9865 24.0655C38.9894 23.7307 38.9258 23.3986 38.7994 23.0886C38.6731 22.7785 38.4865 22.4966 38.2504 22.2592C38.0143 22.0217 37.7335 21.8335 37.4241 21.7054C37.1148 21.5773 36.7831 21.5118 36.4483 21.5128V21.5346Z" fill="black"/>
</g>
</svg>
