<svg width="16" height="16" viewBox="0 0 16 16" fill="none" xmlns="http://www.w3.org/2000/svg">
<path fill-rule="evenodd" clip-rule="evenodd" d="M11.2 0H4.8C2.14903 0 0 2.14903 0 4.8V11.2C0 13.851 2.14903 16 4.8 16H11.2C13.851 16 16 13.851 16 11.2V4.8C16 2.14903 13.851 0 11.2 0ZM1.59961 4.79998C1.59961 3.03266 3.0323 1.59998 4.79961 1.59998H11.1996C12.9669 1.59998 14.3996 3.03266 14.3996 4.79998V11.2C14.3996 12.9673 12.9669 14.4 11.1996 14.4H4.79961C3.0323 14.4 1.59961 12.9673 1.59961 11.2V4.79998ZM8 12C5.79086 12 4 10.2091 4 8C4 5.79086 5.79086 4 8 4C10.2091 4 12 5.79086 12 8C12 10.2091 10.2091 12 8 12ZM7.99961 10.4C9.32509 10.4 10.3996 9.32546 10.3996 7.99998C10.3996 6.67449 9.32509 5.59998 7.99961 5.59998C6.67413 5.59998 5.59961 6.67449 5.59961 7.99998C5.59961 9.32546 6.67413 10.4 7.99961 10.4ZM12.7992 4.00001C12.7992 4.44184 12.441 4.80001 11.9992 4.80001C11.5574 4.80001 11.1992 4.44184 11.1992 4.00001C11.1992 3.55818 11.5574 3.20001 11.9992 3.20001C12.441 3.20001 12.7992 3.55818 12.7992 4.00001Z" fill="white"/>
</svg>
