<svg width="140" height="36" viewBox="0 0 140 36" fill="none" xmlns="http://www.w3.org/2000/svg">
<path fill-rule="evenodd" clip-rule="evenodd" d="M123.81 3.3846C119.508 4.32444 115.69 7.45675 114.135 11.3207C111.252 18.4841 114.03 27.182 120.225 30.3877C122.416 31.5217 123.997 31.8169 127.078 31.6676C132.54 31.4032 136.545 28.7798 138.688 24.0608C140.229 20.6695 140.427 16.2264 139.206 12.4634C138.444 10.1132 137.683 8.79706 136.045 6.99178C132.889 3.51286 128.774 2.2996 123.81 3.3846ZM7.79732 4.09546C4.55321 4.908 1.60984 7.07318 0.627545 9.36999C-0.820793 12.7576 0.30276 16.8573 3.32879 19.2268C5.09187 20.6072 6.59531 21.0954 9.60219 21.2635C12.5026 21.4258 13.4959 21.7345 14.0789 22.6545C14.604 23.484 14.2655 23.8987 12.8888 24.1122C11.4594 24.334 9.04672 23.9108 5.4302 22.804C3.76075 22.2932 2.32011 21.9473 2.22905 22.0355C1.97478 22.2806 0.15823 29.3998 0.271706 29.7061C0.379812 29.9986 4.50371 31.0983 6.94788 31.4867C7.78261 31.6193 9.89359 31.7285 11.6387 31.7295C16.5709 31.7324 19.3474 30.8235 21.965 28.3484C23.7549 26.6561 24.5007 25.0335 24.5007 22.8313C24.5007 20.165 23.3251 17.95 20.9538 16.1493C19.4783 15.0291 17.8255 14.4354 14.8312 13.9501C11.7986 13.4588 10.9814 13.1194 10.7743 12.2656C10.3398 10.4746 12.9065 10.5323 18.2138 12.4335C20.2148 13.1501 21.9307 13.6554 22.0267 13.5559C22.4175 13.1523 24.1708 6.00267 23.9487 5.71861C23.6522 5.33891 22.032 4.79424 19.4396 4.2027C16.8217 3.60513 10.0059 3.54257 7.79732 4.09546ZM27.495 18.4602V32L39.9675 31.9261C46.8272 31.8855 52.5246 31.7643 52.6283 31.657C52.732 31.5498 52.2942 29.865 51.6553 27.9131L50.4937 24.3644L43.6172 24.3004C36.2548 24.2315 36.3781 24.2543 36.3711 22.9755L36.3676 22.3113L42.1465 22.3086C48.1864 22.3057 49.6765 22.1912 49.6765 21.7294C49.6765 21.577 49.2002 19.9065 48.6181 18.0172L47.5595 14.582H41.9636H36.3676V13.6158V12.6496H41.2781C45.1442 12.6496 46.2141 12.5815 46.3077 12.3291C46.3731 12.1526 46.0254 10.4951 45.5351 8.64561L44.6434 5.28263L43.5992 5.11935C43.0249 5.0295 39.1667 4.9481 35.025 4.93819L27.495 4.92032V18.4602ZM47.8086 5.19326C47.8086 5.3435 49.6667 11.376 51.9376 18.5988L56.0667 31.7314H61.1409H66.2148L70.4349 18.6372C72.7558 11.4354 74.5696 5.45485 74.4654 5.34712C74.3613 5.2394 72.1828 5.18094 69.6245 5.21693L64.9727 5.28263L63.6367 9.26806C62.9019 11.4601 62.1304 13.6305 61.9221 14.0912C61.4701 15.0914 61.4853 15.1114 60.1945 11.8369C59.7161 10.6234 58.8795 8.64078 58.3353 7.43138L57.3455 5.23215L55.0872 5.07756C51.4043 4.82515 47.8086 4.8824 47.8086 5.19326ZM77.1557 8.12074C69.727 30.8208 69.4923 31.6015 70.0483 31.7676C70.3373 31.8541 72.5361 31.9355 74.9345 31.9488L79.2952 31.9729L81.1479 27.0928C82.1669 24.4088 83.1041 22.1772 83.2309 22.1335C83.3574 22.0898 84.2333 24.1238 85.177 26.6532C86.1208 29.1829 86.9513 31.3483 87.0223 31.4657C87.0935 31.5831 89.2794 31.7589 91.8798 31.8568C95.9201 32.0087 96.608 31.9838 96.608 31.6865C96.608 31.4952 95.2376 26.9433 93.5628 21.5715C91.8882 16.1996 90.0411 10.2555 89.4583 8.36228L88.3987 4.92032H83.3009H78.2031L77.1557 8.12074ZM97.4229 11.3311C97.2354 18.3073 97.3731 30.3945 97.6475 31.058C97.7416 31.2853 97.9935 31.529 98.2076 31.5993C98.754 31.7787 113.581 31.8836 113.751 31.7092C113.827 31.6307 113.511 29.9186 113.047 27.9049L112.205 24.2436H109.777H107.349V14.7344V5.22514L106.473 5.07539C105.991 4.99302 103.797 4.92443 101.596 4.92298L97.5949 4.92032L97.4229 11.3311ZM128.993 12.9144C130.697 13.768 131.63 16.0769 131.271 18.5536C131.044 20.1198 130.32 21.1142 128.829 21.9079C127.743 22.4862 127.345 22.5739 126.241 22.4777C123.889 22.2731 122.262 20.9256 121.803 18.8019C121.245 16.2247 122.174 14.0902 124.376 12.8856C125.548 12.2451 127.682 12.2583 128.993 12.9144Z" fill="black"/>
</svg>
