<svg width="593" height="330" viewBox="0 0 593 330" fill="none" xmlns="http://www.w3.org/2000/svg">
<path d="M284.722 77.2194L287.054 77.361L288.283 79.9385L290.443 78.9775L293.2 78.5529L293.304 80.8473H297.945L299.412 81.637L301.014 81.8381L301.938 81.3092L305 82.3968L304.836 77.4131L308.054 77.3237L308.903 78.3815L310.967 79.2159L312.494 80.6164L312.889 80.8399L313.73 80.0055L313.358 79.4841L313.797 78.7168L314.371 79.1563L316.181 77.1822L316.017 76.4745L315.131 76.1169L314.811 74.4929L316.919 74.5376L317.485 73.2787L318.103 72.9211L319.697 73.1371L320.062 71.9601L320.465 71.893L320.74 70.5074L321.776 69.8817L322.379 69.8221L322.625 68.9356L323.124 68.9728L323.765 68.3173L324.16 68.4514L325.396 67.8331L324.167 66.4326L324.964 66.5965L324.279 64.2201L326.506 62.164L325.657 60.987L326.171 60.8231L326.223 59.81L325.97 58.9831L324.964 58.9011L325.15 57.1878L323.534 57.0611L323.079 56.115L322.282 55.8469L322.215 55.0274L321.172 53.5152L321.612 52.8373L322.223 52.7777L322.64 52.6063L322.67 51.9955L323.407 51.4368L323.787 51.8763L324.234 50.9898L323.526 51.0345L323.482 49.8053L325.612 49.8649L325.94 49.4775L325.553 49.038L325.672 48.6357L325.195 47.8834L326.313 47.9653L326.439 47.3619L327.862 47.4662L327.929 48.1962L329.97 48.0472L329.926 46.8032L331.348 46.9149L331.393 47.9504L332.302 48.1292L332.473 48.7549L333.077 48.9114L333.337 49.7532L333.375 50.8855L334.373 51.1686L334.842 50.081L334.038 49.9096L333.792 48.7624L334.403 48.7028L334.671 47.4885L335.475 47.6599L335.818 46.9671L336.526 46.9224L337.07 46.3413L340.213 46.3935L340.355 47.5407L341.152 47.8163L341.316 50.297L340.966 51.0866L341.457 51.3325L341.785 50.8482L343.58 51.3027L344.616 50.878L344.743 52.219L344.117 52.5765L344.281 53.2097L343.67 53.2619L343.729 53.977L343.297 54.357L346.128 54.2825L346.352 53.8951L346.858 53.9323L346.933 54.3495L348.408 56.2119L348.624 57.3591L350.032 57.1729L349.764 55.4148L351.075 55.2211L351.425 53.2023L357.541 53.0309L357.481 53.7461L357.675 53.761L357.459 55.1764L359.798 55.5936L359.954 56.0256L361.236 56.0405L361.78 55.4744L362.182 55.4073L362.524 54.9306L363.426 54.8039L363.91 53.828L365.385 53.8653L365.296 54.7816L368.298 58.0445L367.717 58.916L367.247 60.6145L367.709 61.8884L366.786 62.3056L366.801 63.125L367.501 63.9146L367.694 64.8533L371.918 65.3822L375.345 65.1215L376.023 63.3485L378.817 62.7302L379.435 63.3112L380.783 62.6408L382.348 62.6259L382.817 61.9554L383.309 61.9107L383.614 62.678L383.621 64.4436L384.232 65.1364L384.635 69.4198L386.489 68.6302L389.261 70.0381L391.227 69.9934L391.406 70.947L392.486 70.8948L393.522 72.8838L399.124 73.301L399.169 73.7182L399.928 73.8299L400.264 88.6991L400.569 89.3472L399.683 89.5185L397.649 91.1202L397.194 91.6565L397.12 96.0443L399.772 94.7406L400.509 96.4465L402.215 96.603L403.631 97.415L403.273 97.9588L402.498 98.0407L401.932 98.7484L400.457 98.3313L397.232 100.439L397.016 102.093L395.451 103.941L392.971 103.203L392.032 104.648L391.615 103.412L391.22 103.553L391.451 103.978L390.266 104.313L389.872 103.665L389.171 103.963L388.933 105.118L389.566 105.401L390.46 107.39L390.311 107.859L390.833 108.224L391.607 106.563L392.352 106.667L394.237 107.516L392.084 109.573L388.24 110.817L388.754 112.061L387.95 112.441L386.706 112.567L386.117 113.565L383.778 112.575L382.929 114.124L382.355 114.251L382.213 114.623L382.631 115.063L381.655 116.203L379.561 116.329L379.472 117.097L378.943 116.836L378.206 117.521L378.615 118.058L377.565 118.989L379.137 120.054L377.937 120.68L376.276 119.607L375.703 120.501L374.63 120.859L374.95 123.019L373.982 123.287L374.183 123.987L372.373 122.609L369.333 122.929L368.976 123.66L368.074 123.362L369.4 121.492L369.14 120.404L369.579 119.778L369.445 119.279L369.006 119.033L369.996 117.7L368.357 116.247L367.315 116.322L367.121 115.525L366.137 115.897L365.929 115.197L365.258 115.316L365.288 115.897L363.12 116.821L362.711 118.996L361.675 118.981L361.206 119.898L359.91 119.756L358.777 120.695L359.083 121.395L357.168 122.736L356.14 122.721L355.917 123.078L354.963 123.272L354.777 128.04L353.734 126.215L350.613 127.615L351.514 129.902L351.052 130.811L349.451 131.027L347.372 132.353L346.203 132.904L345.309 132.442L345.368 130.826L346.657 128.949L346.352 128.256L345.674 128.479L345.234 127.198L340.727 128.502L340.079 128.442L339.588 128.688L338.947 128.531L338.09 128.74L338.44 126.87L337.599 126.796L337.174 126.282L336.63 124.986L336.25 125.053L335.811 125.775L335.542 124.509L333.576 125.581L334.09 127.25L332.898 128.003L332.25 127.95L331.825 127.436L331.676 128.092L332.101 128.606L331.922 129.634L331.542 129.694L330.924 129.172L329.061 130.155L327.184 128.956L326.342 128.889L326.104 128.301L324.942 128.68L324.443 127.787L325.478 126.632L326.082 123.816L326.722 122.818L326.402 120.873L327.102 120.449L327.303 115.376L322.811 115.502L322.364 116.329L320.599 116.962L317.455 119.324L316.092 118.259L314.043 118.691L313.187 118.534L314.155 119.845L314.259 121.104L312.538 122.415L306.229 123.235L302.817 125.403L300.761 122.222L302.37 121.268L301.424 118.914L300.18 118.46L296.597 119.503L292.738 118.132L291.59 117.305L289.795 117.782L289.043 114.757L287.933 115.279L287.456 114.869L286.756 115.212L286.786 114.348L286.279 114.802L286.316 113.841L286.152 112.962L283.441 111.368L282.539 114.31L279.656 114.638L279.105 113.454L280.059 108.954L276.975 105.967L277.794 105.229L276.55 103.606L278.613 101.765L277.928 101.237L279.15 97.6832L277.831 94.9492L276.021 94.8524L275.291 92.3419L277.809 92.5877L281.608 90.636L282.204 88.0063L282.845 84.2741L284.618 82.7916L284.722 77.2194Z" stroke="#606060" stroke-width="2"/>
<path d="M183.045 219.005L181.809 219.661L180.297 219.981L179.581 220.458L178.941 221.337L178.226 222.849L177.667 224.443L177.585 225.874L176.952 226.194L176.475 226.991L176.438 227.609L170.538 229.278L149.649 235.886L147.571 220.562L146.267 216.949L145.075 214.618L145.344 213.738L143.638 211.533L143.459 208.777L134.959 206.244L132.016 205.023L127.673 200.65L126.772 197.148L124.612 194.422L125.751 185.699L126.303 182.309L125.319 180.633L124.999 176.603L122.742 174.077L123.263 172.096L122.459 168.639L121.907 167.701L122.384 164.244L122.809 163.909L122.742 160.415L120.142 160.192L120.135 159.268L119.047 158.478L118.57 159.283L117.624 159.037L117.669 160.326L117.311 162.225L115.732 162.069L114.86 161.629L111.411 161.264L111.992 159.789L111.374 158.381L111.791 157.115L110.785 152.012L110.026 151.833L109.37 153.517L108.484 153.077L108.7 152.489L106.941 151.692L105.794 150.634L105.66 148.57L106.614 145.315L106.107 144.153L107.009 144.6L107.597 143.095L108.714 142.089L110.13 142.097L110.391 141.017L112.178 140.979L113.415 141.203L114.838 140.361L114.503 139.743L115.508 138.476L115.814 137.679H117.415L116.566 136.644L117.959 134.193L117.907 133.53L118.555 132.219L118.369 131.086L117.393 130.625L117.348 130.051L116.663 129.842L116.611 127.928L116.879 126.356L115.791 124.844L117.333 123.205L117.088 122.557L118.913 120.382L118.689 120.061L119.136 120.359L119.404 120.262L120.246 118.944L120.768 118.653L121.051 118.176L120.812 117.156L120.231 115.822L119.993 114.169L120.432 113.237L120.73 112.254L121.163 112.411L121.513 112.366L122.012 112.641L122.25 112.634L122.436 112.5L122.563 112.619L122.638 113.051L122.973 113.156L123.211 113.528L123.517 113.409L123.494 112.969L123.829 112.887L123.919 112.686L124.157 112.709L124.276 112.537L124.641 112.507L124.828 112.597L125.178 112.15L125.103 111.695L125.722 111.39L126.191 111.666L126.459 111.986L126.534 112.522L126.437 112.783L125.967 113.372L125.856 113.662L125.967 113.945L126.377 114.318L127.07 114.757L130.102 117.595L130.363 117.7L130.81 117.275L131.987 117.342L132.285 118.042L133.216 118.527L134.706 119.681L134.981 119.689L135.294 119.428L135.585 118.75L136.747 118.072L137.462 117.864L139.041 117.022L139.801 116.314L140.621 115.718L141.164 115.51L141.351 115.308L141.425 115.063L141.336 114.333L141.373 113.58L141.939 111.703L142.17 111.375L142.468 111.271L143.675 111.889L144.561 111.897L144.971 111.532L145.128 110.526L145.336 110.422L146.007 110.563L146.267 110.384L146.349 110.027L146.133 109.058L146.126 108.365L146.61 107.814L146.684 107.792L147.05 108.254L147.176 108.723L147.943 109.14L148.629 110.071L149.314 110.109L149.999 110.481L150.178 110.332L150.29 109.714L149.999 108.917L149.865 108.105L149.955 108.038L150.797 108.015L151.087 107.911L151.445 107.956L152.19 108.552L152.488 108.611L153.27 108.112L153.545 108.246L153.858 108.574L154.208 108.649L155.676 108.097L156.533 107.65L156.808 107.963L157.062 108.842L157.531 109.215L158.09 109.446L158.462 110.071L158.492 110.869L158.939 111.45L160.25 112.344L161.248 112.634L161.494 112.545L161.539 112.381L161.338 111.889L161.397 111.71L162.597 111.137L163.334 111.144L163.729 111.874L164.34 111.606L164.563 110.794L164.66 107.896L164.779 106.861L165.129 106.682L165.703 106.637L166.038 107.159L166.485 107.486L166.716 107.449L166.895 107.218L167.267 107.129L167.536 107.665L168.169 107.65L168.355 107.926L169.063 107.263L169.271 107.241L169.621 106.943L169.785 107.196L169.726 107.688L169.86 108.023L170.947 108.276L171.029 108.202L170.94 107.956L171.007 107.755L171.387 107.665L171.536 107.464L171.432 106.801L171.782 106.637L172.028 106.384L172.147 106.451L172.273 106.317L172.393 106.391L172.557 106.146L173.048 106.347L173.495 107.755L173.704 108.038L174.076 108.105L174.918 107.911L175.641 107.993L176.222 108.112L176.505 108.44L177.063 109.602L177.034 109.915L176.736 110.317L176.52 111.189L176.624 112.686L176.989 113.796L177.324 113.997L177.771 114.042L179.038 113.565L179.596 113.61L179.768 113.856L179.596 114.586L179.708 115.07L180.706 115.547L181.004 116.351L181.466 116.709L182.271 116.821L182.896 116.642L183.239 116.664L184.275 117.037L185.936 117.223L186.316 117.379L186.562 117.774L186.837 117.856L187.18 117.566L188.424 117.864L189.407 117.595L189.69 117.603L190.607 118.862V119.041L190.294 119.182L190.257 119.316L190.279 120.687L190.301 120.866L190.465 120.903L191.605 120.322L194.145 119.674L194.823 119.316L195.769 117.737L197.296 113.744L197.728 113.118L198.235 112.91L199.218 113.051L199.866 113.386L200.008 113.595L200.045 114.638L201.811 116.843L202.369 117.156L204.12 117.372L205.692 117.491L207.197 117.409L208.091 117.588L209.208 117.573L210.646 117.059L211.808 116.999L217.864 114.534L218.207 114.243L218.43 113.64L218.863 110.801L220.174 104.186L221.388 103.777L222.349 104.246L223.414 103.777L224.062 102.644L225.075 104.209L225.202 105.676L225.917 108.082L227.094 108.544L227.862 107.472L228.249 107.188L230.394 108.477V109.371L229.91 109.453L229.426 111.129L232.033 113.67L230.394 114.809L230.685 116.091L230.677 117.461L232.704 116.828L234.03 123.577L235.944 126.624L236.235 127.786L239.386 132.494L239.669 133.657L238.969 136.115L236.674 134.23L234.365 136.279L234.156 138.663L231.869 140.056L232.339 142.626L232.808 143.296L231.102 142.708L229.873 144.309L230.625 145.166L233.27 149.643L232.793 150.008L232.51 149.725L230.342 150.075L229.97 151.111L231.847 150.939L232.882 154.523L236.92 158.515L240.049 156.81L241.554 158.15L241.643 158.985L240.682 160.266L241.233 162.136L245.956 163.738L246.798 164.684L249.16 165.578L251.506 167.216L254.628 173.176L257.28 177.817L258.598 178.406L255.387 181.944L238.313 193.878L237.226 194.228L236.592 193.319L232.428 192.671L233.054 191.226L229.061 186.146L227.251 186.421L226.059 184.149L223.586 180.424L214.788 182.451L209.804 195.778L203.748 195.279L203.33 199.868L198.89 200.233L193.058 205.648L191.836 207.555L190.167 209.381L186.986 214.156L183.045 219.005Z" stroke="#606060" stroke-width="2"/>
<path d="M464.226 192.813L465.954 193.938L466.677 194.787L468.502 194.951L469.21 196.769L475.653 196.046L480.198 202.415L487.088 200.009L490.18 201.29L490.12 202.78L495.074 204.956L499.283 207.31L503.783 207.421L504.595 208.658L505.28 208.636L506.092 208.107L506.517 209.172L506.986 209.716L507.634 208.799L508.059 208.807L507.515 209.656L507.999 209.76L508.506 209.783L509.012 210.163L509.481 209.299L509.824 209.284L509.556 210.014L508.826 210.558L509.027 210.781L509.66 210.654L509.146 211.332L513.944 216.957L515.076 221.24L517.423 223.795L516.976 226.924L517.154 228.101L517.683 228.563L519.181 228.027L519.427 228.362L520.7 229.129L521.237 229.606L523.74 230.142L523.941 230.425L524.328 231.9L523.777 234.53L522.242 236.795L521.475 236.258L519.643 234.627L518.868 234.433L517.698 234.679L516.864 235.014L515.478 235.968L514.555 236.057L514.13 235.811L513.877 235.059L513.735 234.984L512.96 235.186L512.588 235.074L512.491 234.247L512.327 233.927L512.148 232.988L511.612 232.578L511.336 232.094L510.726 231.759L510.584 231.982L510.286 232.131L509.809 232.02L509.116 232.571L508.908 232.981L508.371 233.107L508.155 233.405L507.768 233.636L507.053 233.755L506.829 233.36L506.74 233.375L506.047 234.031L505.593 233.927L505.436 233.793L504.997 234.21L504.274 234.329L503.991 234.239L503.887 234.388L503.343 234.56L503.135 234.955L502.978 234.992L502.285 234.783L502.255 235.029L502.039 235.26L502.002 235.521L501.846 235.692L501.548 235.677L500.982 235.871L500.058 235.841L499.179 236.594L498.65 236.646L498.114 236.303L497.167 236.035L496.84 235.707L496.735 235.752L496.653 236.191L496.37 236.452L495.067 237.003L494.381 236.914L493.726 237.011L493.435 236.78L493.1 236.854L492.742 237.16L492.482 237.875L491.811 238.344H491.245L490.955 237.957L490.761 237.897L490.351 238.054L489.807 238.508L489.465 238.62L488.831 238.657L488.474 238.329L487.975 238.374L487.491 238.247L487.371 238.448L487.55 238.858L487.505 239.044L487.289 238.925L487.073 238.97L486.239 239.886L484.772 240.817L484.541 241.078L484.168 241.19L484.004 241.451L484.168 241.629L484.555 241.354L484.876 241.346L485.353 241.667L485.732 241.719L486.157 242.978L486.746 243.298L487.915 243.119L488.377 242.702L489.465 242.859L489.979 242.471L490.344 242.516L490.567 242.769L490.485 243.022L490.612 243.089L491.23 242.911L491.573 243.589L492.765 244.185L493.279 244.684L493.353 245.22L492.117 245.637L491.528 246.233L492.147 247.187L491.96 247.604L491.573 249.22L491.26 249.772L491.558 250.748L491.841 253.027L492.132 253.884V255.478L492.34 256.849L492.772 257.929L492.675 258.346L492.698 258.547L492.906 258.815L492.869 259.382L493.629 261.058L493.584 261.668L493.823 262.764L494.091 262.957L494.836 264.618L496.668 269.237L496.892 269.535L497.086 270.235L496.914 270.839L496.937 271.226L496.572 271.599L495.856 273.133L495.886 273.275L496.058 273.491L497.071 273.424L497.272 273.513L497.302 274.064L497.6 274.66L497.614 275.16L497.868 275.763L497.54 276.374L497.086 276.411L496.75 276.694L496.378 276.471L495.976 276.396L494.88 276.709L493.562 277.797L492.228 278.177L491.923 278.527L491.916 279.145L492.147 279.577L492.623 280.046L493.286 280.478L494.523 280.799L494.843 281.357L494.806 281.447L494.65 281.417L494.24 281.641L494.076 281.469L494.016 281.641L493.763 281.737L493.525 281.633L493.428 281.842L492.37 282.289L492.377 282.482L492.057 282.698L491.834 282.616L491.446 282.773L491.439 282.609L491.037 282.765L490.962 282.549L490.828 282.542L490.038 282.676L489.994 283.272L489.755 283.868L489.465 285.105L488.951 285.604L488.727 286.438L488.876 287.22L489.338 288.181L489.77 288.583L490.165 288.621L490.321 288.8L490.046 289.12L489.435 289.425L489.346 289.865L489.323 290.52L489.629 290.945L489.606 292.003L490.284 292.487L490.113 293.076L490.463 293.56L490.336 294.275L489.86 294.551L489.591 294.565L489.331 294.357L489.159 294.349L488.742 294.692L488.519 294.647L488.131 294.916L488.019 294.849L487.923 294.513L488.042 293.545L487.774 293.135L487.535 292.457L487.2 292.241L486.634 292.1L486.053 291.541L485.814 290.856L485.606 290.483L485.435 290.371L484.57 290.312L484.436 290.602L484.243 290.654L484.131 290.513V290.245L484.027 290.207L483.386 290.155L483.155 290.006L482.805 290.058L482.611 289.746L481.449 289.559L480.749 290.051L480.13 289.947L479.214 289.962L478.849 289.351L477.553 288.308L477.203 287.541L477.024 287.369L476.175 286.714L475.489 286.527L475.221 286.177L475.005 286.095L474.409 285.052L474.26 284.24L474.327 283.875L474.499 283.637L474.409 283.555L474.059 283.563L473.284 283.816L473.053 284.315L472.904 284.412L472.465 283.838L472.204 283.689L471.638 283.756L471.221 283.6L470.811 283.719L470.416 283.451L469.657 283.302L469.284 283.101L468.904 283.138L468.472 282.765L468.033 282.788L467.824 282.631L467.288 282.825L466.878 282.274L465.395 281.931L465.068 281.41L464.509 281.201L463.25 281.723L462.788 281.551L462.542 282.035L462.185 282.147L459.972 281.641L459.674 282.102L458.952 281.976L458.601 282.088L458.251 282.482L457.968 282.073L457.708 281.916L457.484 281.924L456.94 282.259L456.478 281.76L456.024 281.901L455.488 281.641L454.988 281.67L454.728 281.559L454.296 281.067L453.111 281.141L452.225 280.948L451.361 280.933L450.601 280.65L449.9 280.732L449.454 280.568L447.919 280.97L446.705 281.007L446.176 280.843L445.751 280.255L445.49 280.099L444.202 279.964L443.568 280.069L441.922 279.637L440.723 279.652L440.09 280.27L439.412 280.367L439.173 280.985L438.942 281.171L437.274 281.022L436.678 281.082L435.925 280.903L435.508 281.492L434.92 281.551L433.512 281.953L433.161 281.939L433.05 281.842L432.826 281.164L432.372 280.896L430.435 280.814L429.005 281.082L428.826 281L428.595 280.68L427.924 280.605L427.44 280.203L426.986 280.426L426.502 280.285L425.801 280.642L425.69 280.657L425.541 279.957L424.788 280.285L423.984 279.778L422.583 279.935L422.419 279.614L423.254 279.361L423.641 278.571L420.915 277.283L419.514 276.992L419.171 275.577L418.613 275.331L418.814 274.474L418.263 274.146L418.426 272.463L420.348 270.131L419.827 269.252L417.659 269.52L417.875 268.827L417.056 268.723L416.564 269.058L414.121 268.202L414.113 266.92L417.279 263.911L417.83 263.65L418.173 262.719L417.838 261.281L418.479 260.544L418.806 259.679L418.739 257.191L417.234 256.163L416.415 255.053L415.514 254.927L414.128 253.653L413.882 253.623L410.649 253.273L407.885 250.628L407.416 249.891L408.079 247.447L406.693 245.056L402.045 241.801L401.762 240.914L401.196 240.236L401.077 237.748L397.017 237.644L396.756 233.837L401.129 234.158L400.339 232.079L399.713 224.481L401.091 222.156L402.254 219.616L403.52 217.523L405.181 215.653L408.258 212.494L412.199 208.934L420.475 204.173L423.924 204.866L428.349 204.047L433.288 204.918L433.273 205.529L434.108 205.753L435.098 204.583L435.501 205.797L435.948 205.254L437.266 205.73L437.721 204.658L438.659 204.807L439.993 205.201L442.19 206.177L440.626 204.598L441.632 204.412L443.159 205.194L444.596 204.993L446.042 205.76L446.518 206.982L447.606 206.818L447.584 205.492L451.971 205L451.346 194.064L451.741 193.334L455.48 194.169L457.603 191.785L459.451 193.729L461.782 190.757L464.226 192.813Z" stroke="#606060" stroke-width="2"/>
<path d="M50.1007 214.416L49.9964 214.506L49.7729 214.454L49.3259 213.522L49.1769 213.44L49.2961 213.299L48.8938 212.405L48.8193 211.809L48.4841 211.444L48.432 211.273L48.5139 211.153L48.7374 211.071L49.527 211.384L50.2422 212.189L50.488 213.113L50.1007 214.416V214.416ZM105.793 150.634L106.933 151.699L108.691 152.489L108.475 153.085L109.354 153.524L110.009 151.841L110.769 152.019L111.775 157.122L111.358 158.389L111.969 159.797L111.395 161.272L114.837 161.637L115.708 162.076L117.288 162.233L117.645 160.333L117.608 159.044L118.554 159.29L119.023 158.486L120.118 159.275V160.199L122.718 160.422L122.785 163.916L122.361 164.244L121.884 167.701L122.435 168.639L123.24 172.096L122.718 174.077L124.975 176.603L125.296 180.633L126.279 182.309L125.728 185.706L124.588 194.422L126.748 197.156L127.65 200.657L131.993 205.022L134.935 206.244L143.435 208.777L143.614 211.533L145.32 213.731L145.052 214.61L146.236 216.942L144.94 216.167L143.808 216.249L143.13 215.616L142.132 216.13L140.597 215.668L140.217 214.506L139.576 214.223L138.839 214.729L138.094 214.29L137.014 213.977L136.775 213.314L137.006 212.167L136.507 210.669L135.8 210.572L135.382 210.796L135.159 211.168L134.734 211.302L133.796 210.721L132.045 208.241L128.633 211.623L127.031 211.399L121.31 211.995L118.539 213.075L116.349 213.128L115.008 213.664L114.069 213.887L113.183 213.843L112.155 214.081L111.864 214.558L109.629 214.282L109.831 215.206L109.048 216.703L105.756 219.154L107.275 220.048L106.337 220.95L104.869 221.836L103.119 222.588L102.083 222.73L101.115 223.371L98.8799 223.073L98.418 224.227L96.4663 224.123L93.1512 223.304L93.1289 223.117L93.6727 223.207L93.9334 223.095L93.3822 222.901L93.2928 222.715L93.3449 222.216L93.6504 222.082L93.6057 221.739L93.7472 221.62L94.8646 221.508L94.2761 221.166L94.1793 220.853L94.373 220.652L94.9615 220.495L94.6411 220.137L94.44 219.623L94.0899 219.34L94.0079 219.08L94.1346 218.946L94.7678 218.938L94.9764 218.551L94.1718 217.843L93.8813 217.731L93.4418 217.21L93.7472 216.808L94.2538 216.815L93.7397 216.562L93.6801 216.271L93.479 216.204L93.6354 215.951L93.6057 215.66L94.0154 215.347L94.6486 215.429L94.4176 215.042L94.6411 214.893L94.3357 214.789L94.291 214.588L94.7976 214.312L95.1551 213.716L95.4457 214.051L95.401 213.753L95.4978 213.47L95.4084 213.373L95.2073 213.44L95.0657 213.202L95.2594 212.889L95.3041 212.472L95.6319 212.003L95.6841 211.436L96.578 210.476L96.9803 210.341L96.6003 210.2L96.5631 210.073L97.025 210.006L97.1069 209.894L96.8015 209.723L96.511 209.254L95.8926 208.703L96.1012 207.57L95.9299 206.81L96.4737 206.281L95.9001 206.065L96.1012 205.574L95.8181 204.538L95.6692 204.494L95.468 204.598L95.252 204.494L94.9242 204.717L94.7305 204.628L94.9019 204.292L95.1626 204.211L94.6933 203.734L94.5368 203.793L94.4176 203.711L94.5368 203.197L94.8125 202.989L94.6337 202.616L94.3357 202.497L94.2463 202.549L93.8962 203.123L93.181 203.547L92.7862 204.173L92.7713 204.71L92.5255 204.687L92.2722 204.508L92.302 204.136L92.1754 203.913L92.2349 203.667L92.4286 203.473L92.3392 203.153L92.0785 202.981L91.8029 203.093L91.6166 203.331L91.4677 203.287L91.4975 202.728L91.6166 202.542L91.3559 202.452L91.3038 202.244L90.7078 202.005L90.6259 201.871L90.6929 201.745L90.9611 201.819L91.274 201.469L91.1473 201.29L91.2218 200.933L91.0579 200.65L90.7227 200.419L88.5772 200.836L88.0185 201.447L87.6833 201.611L87.5045 201.581L87.2438 201L86.916 200.94L86.5212 202.735L86.3499 202.937L85.9178 203.115H85.2846L84.2118 202.527L82.7815 202.266L81.7237 201.678L80.9639 201.76L80.6361 201.588L80.6212 201.424L80.4424 201.499L80.3605 201.32L79.4293 200.992L78.3863 200.836L77.8574 200.866L77.3062 200.471L77.3956 201.275L77.7308 201.603L78.1033 201.789L78.3044 202.132L78.2523 202.989L78.0586 203.384L77.9617 203.317L78.0437 203.555L77.9468 203.562L77.6935 202.877L77.8202 202.259L77.5148 201.938L77.254 201.901L77.1795 201.611L76.889 201.35L76.5389 200.039L76.4197 200.046L76.3973 200.292L76.2409 200.307L76.0547 200.575L75.6896 200.642L75.198 201.149L75.0415 201.223L74.9521 201.097L75.3395 200.694L75.7045 200.486L75.8535 199.89L75.9876 199.882L76.0249 199.763L75.9057 199.562L76.1515 199.361L76.2037 198.959L75.5406 199.309L75.0043 199.964L75.3246 199.339L75.3172 199.108L74.4903 198.154L72.5981 197.595L72.017 197.685L71.8234 197.528L71.436 197.7L70.7208 197.461L70.3931 197.618L70.1025 197.603L69.0819 198.482L68.851 198.497L68.6424 198.653L68.5307 199.197L68.2923 199.137L68.0614 199.271L67.3537 199.249L67.0184 199.085L66.6609 199.078L65.8563 198.683L65.171 198.847L64.873 199.041L64.5601 199.48L64.4409 199.54L64.3068 199.398L64.0833 199.443L63.4203 200.679L63.033 201.052L62.7424 201.067L62.6158 200.925L62.7573 200.352L62.6977 200.083L62.5115 199.987L62.3029 200.083L61.8261 200.434L61.4537 200.925L61.3494 201.7L60.9546 202.743L60.7758 202.922L60.5225 202.862L60.366 202.639L60.5523 201.983L60.4554 201.842L59.9712 202.236L59.7552 202.229L59.6211 201.357L59.2635 200.814L58.5484 202.02L58.3994 202.452L58.1386 202.728L58.0344 202.765L57.8556 202.542L57.9748 201.879L57.8034 201.871L57.3937 202.117L57.1777 202.408L57.3118 202.586L56.8201 202.989L56.4476 203.764L56.2763 204.419L56.0155 204.821L55.8219 204.598L55.7623 203.071L54.7864 204.106L54.3543 204.412L53.3114 205.969L53.1326 206.609L52.1418 206.341L51.6203 206.587L51.0467 207.496L51.1212 208.203L50.9201 208.494L50.5402 208.68L50.3018 209.023L49.676 208.814L49.2812 208.494L49.4674 209.068L49.3557 209.522L50.056 210.088L49.907 210.155L49.4674 209.947L49.3632 210.066L49.9666 210.557L50.1975 210.945L50.1304 211.109L49.7356 210.997L48.8044 210.453L48.4916 210.416L48.1116 211.034L47.8584 210.997L47.6572 210.781L47.4933 210.826L47.3592 211.429L47.5529 211.787L47.2847 212.07L47.106 211.958L46.8601 211.429L46.4802 210.975L46.3536 210.982L46.4281 211.556L46.6813 211.958L46.6962 212.181L47.1283 212.621L47.2177 213.008L47.1209 213.12L46.1375 212.546L45.6533 212.159L45.5788 211.988L45.2361 211.98L44.6327 211.533L44.4688 211.541L44.3347 211.794L43.9176 210.93L43.7388 210.833L43.7835 210.535L43.6866 210.334L43.8431 210.073L44.305 210.207L43.7164 209.552L43.7537 209.284L43.6717 209.127L42.9193 208.859L42.5916 208.904L42.4798 208.993L42.7406 209.298H43.0162L43.1577 209.447L43.2248 209.686L43.1428 209.984L43.3216 210.662L44.0815 211.496L44.1634 211.794L44.0591 212.1L44.372 212.293L44.4614 212.465V212.673L44.3422 212.807L44.0889 212.822L43.9474 213.083H43.8058L43.3589 212.74L43.4036 212.554L43.1577 211.705L43.2248 211.392L43.0311 211.317L43.113 211.109L42.6884 210.066L42.2191 209.626L41.5933 209.269L41.571 209.112L41.3996 208.978L41.1166 208.926L41.2283 209.097L41.1613 209.187L40.7888 208.911L40.7441 208.986L41.0793 209.701L41.4518 209.865L41.5039 209.589L41.6753 209.716L41.7647 210.029L41.9882 210.274L41.9211 210.505L42.0329 210.841L41.8466 210.811L41.5412 210.394L41.0868 210.11L41.0272 210.245L41.2358 210.401L41.4071 210.841L41.0644 210.975L41.0942 210.498L40.7739 210.215L40.5355 209.798L40.5728 209.634L40.7143 209.552L40.4163 209.276L40.1556 209.269L40.0885 209.366L40.2673 209.76L40.0513 209.894L40.3567 210.185L40.394 210.476L40.6845 210.855L41.0793 211.198L41.0346 211.369L40.2375 210.937L38.7998 210.535L38.5465 210.133L37.9729 209.783L37.5632 209.701L36.8182 209.328L36.2148 208.747L35.7082 208.792L35.1942 208.069L35.0005 207.533L34.5014 207.265L34.2556 207.272L33.9725 207.049L33.5106 206.982L33.019 206.006L32.7135 206.2L31.8643 206.021L31.6408 205.782L31.7153 205.395L31.6557 205.246L31.1641 205.186L30.7469 204.985L30.7543 204.546L31.1864 203.398L32.1921 202.542L33.2872 202.601L33.7416 202.952L33.831 203.562L34.6504 204.359L35.3656 204.441L37.0045 204.248L37.6079 203.749L38.323 202.691L37.8239 201.26L35.0825 197.551L34.3897 195.949L33.3468 193.357L33.086 192.455L32.572 188.991L30.6277 188.954L29.2942 188.581L27.8043 186.198L27.1637 184.67L26.4187 183.367L24.5415 181.549L23.804 181.46L23.2155 181.646L20.7348 181.892L19.2598 181.922L17.3229 181.311L15.2296 180.417L15.2594 181.005L15.103 182.182L14.7752 183.397L12.1679 181.847L11.3335 180.998L10.9983 180.417L11.6166 180.097L11.6762 179.962L10.3576 177.601L9.59034 176.454L11.3484 175.59L11.639 175.143L12.1679 175.195L12.3318 174.763L10.7301 174.189L10.7003 173.794L11.043 173.087L11.0057 172.461L10.8642 172.081L10.7301 171.895L9.86598 171.507L9.56055 171.008L11.7507 171.738L13.4492 171.649L20.8167 172.803L33.5851 174.226L37.593 175.351L44.6849 178.16L44.5731 175.925L49.0801 176.171L49.8697 175.53L52.3057 175.59L55.2408 172.58L63.1968 167.239L64.1057 167.216L65.4615 165.928L66.0575 166.226L67.3909 165.406L68.1955 162.881L71.1901 162.672L72.911 161.883L79.0345 162.94L79.4218 163.73L78.9227 164.08L78.811 165.868L83.452 166.926L83.966 166.017L84.5992 165.928L87.7802 167.73L89.3371 167.693L90.3577 167.075L90.0299 166.002L91.0356 161.734L92.7862 161.659L92.5627 156.333L93.844 156.899L94.7082 154.887L95.6021 155.32L100.631 155.327L102.873 154.619L102.493 153.733L105.294 151.356L105.793 150.634V150.634Z" stroke="#606060" stroke-width="2"/>
<path d="M395.451 103.941L400.442 105.751L400.502 107.434L401.135 108.41L400.494 110.377L400.174 112.098L400.256 114.355L399.481 114.534L399.086 115.353L399.712 116.322L398.639 117.335L400.77 119.681L402.908 119.123L404.994 118.951L406.163 117.968L406.357 118.579L408.726 119.041L409.523 120.039L408.689 120.687L409.65 123.153L410.663 120.613L412.689 122.773L413.524 122.81L414.641 124.732L414.134 125.03L414.529 126.155L416.198 126.818L416.436 127.719L415.945 127.928L416.161 128.345L415.379 128.598L415.23 128.382L413.255 129.217L413.278 129.701L412.354 130.319L412.853 132.025L413.784 131.98L414.06 132.599L415.513 132.167L418.507 129.984L419.208 129.045L423.454 129.187L423.968 128.896L424.169 128.166L424.862 127.898L425.502 128.584L430.59 127.183L432.468 128.286L433.153 128.122L433.823 126.319L434.159 126.572L435.298 125.917L436.93 125.738L438.554 126.706L439.098 125.753L439.008 123.525L439.91 119.935L441.4 118.482L444.193 117.759L446.756 120.471L449.78 120.59L452.164 122.117L453.021 125.164L451.866 126.751L453.535 127.943L453.207 129.217L451.076 130.99L449.937 132.576L447.888 133.515L447.247 133.962L445.929 133.999L445.527 135.72L445.966 136.376L445.631 137.731L446.011 138.752L445.713 139.922L444.424 141.948L440.655 143.334L437.235 144.98L437.019 146.254L438.181 147.587L438.144 148.332L439.366 148.734L441.541 150.53L441.578 151.93L442.748 152.608L444.148 154.068L442.763 154.657L442.465 154.232L441.258 154.858L441.385 155.715L441.049 157.145L442.07 159.179L448 158.203L448.596 159.976L447.985 162.359L448 163.283L445.333 166.025L444.223 165.645L443.485 165.704L442.733 166.397L442.897 167.529L441.75 167.88L442.286 168.982L443.538 169.563L443.739 170.517L446.003 170.457L446.689 170.666L446.376 171.433L445.102 171.485L444.722 172.603L446.584 174.301L448.044 174.189L449.073 175.009L446.376 175.992L447.24 177.236L446.249 177.244L446.115 179.031L445.4 179.002L444.685 182.048L443.813 183.978L444.111 184.835L444.439 184.984L445.199 188.261L445.355 189.364L444.037 188.783L442.666 188.999L442.74 190.63L442.122 192.135L440.982 192.567L442.279 193.238L443.031 194.519L444.439 195.562L446.592 196.366L447.292 194.437L448.193 193.878L449.899 194.713L451.345 194.064L451.97 205L447.583 205.492L447.605 206.818L446.517 206.982L446.041 205.76L444.595 204.993L443.158 205.194L441.63 204.412L440.625 204.598L442.189 206.177L439.992 205.201L438.658 204.807L437.72 204.658L437.265 205.73L435.947 205.254L435.5 205.797L435.097 204.583L434.106 205.753L433.272 205.529L433.287 204.918L428.348 204.047L423.923 204.866L420.474 204.173L412.198 208.934L408.257 212.495L405.18 215.653L403.519 217.523L402.252 219.616L378.325 219.341L364.461 219.855L361.899 219.668L350.292 219.966L329.784 220.011L302.4 219.579L302.169 217.568L301.468 217.359L295.725 217.679L276.826 212.547L274.151 211.057L271.514 208.077L268.497 207.816L261.219 203.898L259.729 203.853L252.466 201.015L251.832 200.374L250.432 201.238L246.141 198.832L244.219 198.981L242.036 197.514L240.308 195.882L234.326 196.992L238.312 193.878L255.386 181.944L258.597 178.406L257.278 177.817L254.626 173.176L258.716 169.459L257.911 166.866L263.312 165.675L262.202 164.252L262.701 163.447L262.157 162.129L265.227 162.248L265.972 156.638L277.138 158.486L278.211 157.882L279.261 158.024L280.908 157.443L281.869 155.081L286.376 154.917L290.726 150.12L292.931 149.859L293.87 146.559L295.77 146.753L296.544 144.831L298.757 142.812L301.811 141.024L306.631 135.497L309.849 131.362L309.171 129.991L309.581 129.545L309.074 128.561L309.588 127.928L312.002 127.615L314.661 126.475L315.675 125.596L316.136 124.486L316.963 123.592L316.717 122.996L315.153 122.117L315.086 121.641L314.259 121.104L314.155 119.845L313.186 118.534L314.043 118.691L316.092 118.259L317.455 119.324L320.599 116.962L322.364 116.329L322.811 115.502L327.303 115.376L327.102 120.449L326.402 120.873L326.722 122.818L326.082 123.816L325.478 126.632L324.443 127.786L324.942 128.68L326.104 128.3L326.342 128.889L327.184 128.956L329.061 130.155L330.924 129.172L331.542 129.693L331.922 129.634L332.101 128.606L331.676 128.092L331.825 127.436L332.25 127.95L332.898 128.002L334.09 127.25L333.576 125.581L335.542 124.509L335.811 125.775L336.25 125.052L336.63 124.985L337.174 126.282L337.598 126.796L338.44 126.87L338.09 128.74L338.947 128.531L339.587 128.688L340.079 128.442L340.727 128.502L345.234 127.198L345.674 128.479L346.352 128.256L346.657 128.949L345.368 130.826L345.309 132.442L346.203 132.904L347.372 132.353L349.451 131.027L351.052 130.811L351.514 129.902L350.613 127.615L353.734 126.215L354.777 128.04L354.963 123.272L355.917 123.078L356.14 122.721L357.168 122.736L359.083 121.395L358.777 120.695L359.91 119.756L361.206 119.897L361.675 118.981L362.711 118.996L363.12 116.821L365.288 115.897L365.258 115.316L365.929 115.197L366.137 115.897L367.121 115.525L367.314 116.322L368.357 116.247L369.996 117.7L369.005 119.033L369.445 119.279L369.579 119.778L369.14 120.404L369.4 121.492L368.074 123.361L368.976 123.659L369.333 122.929L372.373 122.609L374.183 123.987L373.982 123.287L374.95 123.019L374.63 120.858L375.703 120.501L376.276 119.607L377.937 120.68L379.137 120.054L377.565 118.989L378.615 118.057L378.206 117.521L378.943 116.836L379.472 117.096L379.561 116.329L381.655 116.202L382.631 115.063L382.213 114.623L382.355 114.251L382.929 114.124L383.778 112.575L386.117 113.565L386.705 112.567L387.95 112.44L388.754 112.061L388.24 110.817L392.084 109.572L394.237 107.516L392.352 106.667L391.607 106.563L390.832 108.224L390.311 107.859L390.46 107.39L389.566 105.401L388.933 105.118L389.171 103.963L389.871 103.665L390.266 104.313L391.451 103.978L391.22 103.553L391.615 103.412L392.032 104.648L392.97 103.203L395.451 103.941Z" stroke="#606060" stroke-width="2"/>
<path d="M283.718 23.5234L284.247 23.4712L285.386 23.069L286.131 25.8923L286.437 26.3393L286.02 26.9352L287.666 31.4645L284.887 32.4553L287.621 34.1687L288.634 34.2655L289.424 36.3588L289.014 36.7537L287.703 36.8803L283.919 38.8768L285.431 43.7338L287.286 43.3316L287.316 47.25L286.139 48.4047L285.491 49.2837L286.124 51.1759L288.567 51.4366L288.716 57.8878L290.899 59.2511L290.534 60.8602L288.411 60.4132L287.465 61.1656L285.938 61.0613L285.297 61.8361L285.818 64.205L286.534 64.2497L286.653 66.4846L286.347 66.4622L286.444 69.1962L284.902 69.5984L284.723 77.2193L284.619 82.7915L282.846 84.2739L282.205 88.0061L281.609 90.6358L277.81 92.5876L275.292 92.3417L276.022 94.8522L277.833 94.949L279.151 97.683L277.929 101.236L278.615 101.765L276.551 103.605L277.795 105.229L276.976 105.967L280.06 108.954L279.106 113.454L279.658 114.638L282.541 114.31L283.442 111.368L286.154 112.962L286.318 113.841L286.28 114.802L286.787 114.348L286.757 115.212L287.457 114.869L287.934 115.279L289.044 114.757L289.796 117.782L291.592 117.305L292.739 118.132L296.598 119.503L300.181 118.46L301.425 118.914L302.371 121.268L300.762 122.222L302.818 125.403L306.23 123.235L312.54 122.415L314.261 121.104L315.087 121.641L315.155 122.117L316.719 122.996L316.965 123.592L316.138 124.486L315.676 125.596L314.663 126.475L312.003 127.615L309.59 127.928L309.076 128.561L309.582 129.544L309.173 129.991L309.85 131.362L306.632 135.497L301.812 141.024L298.758 142.812L296.546 144.831L295.771 146.753L293.871 146.559L292.933 149.859L290.728 150.12L286.377 154.917L281.87 155.081L280.909 157.443L279.263 158.024L278.213 157.882L277.14 158.486L265.973 156.638L265.228 162.248L262.159 162.129L262.703 163.447L262.204 164.252L263.314 165.674L257.913 166.866L258.717 169.459L254.627 173.176L251.506 167.217L249.16 165.578L246.798 164.684L245.956 163.738L241.233 162.136L240.682 160.266L241.643 158.985L241.554 158.15L240.049 156.81L236.92 158.516L232.882 154.523L231.847 150.939L229.97 151.111L230.342 150.075L232.51 149.725L232.793 150.008L233.27 149.643L230.625 145.166L229.873 144.309L231.102 142.708L232.808 143.296L232.339 142.626L231.869 140.056L234.156 138.663L234.365 136.279L236.674 134.23L238.969 136.115L239.669 133.657L239.386 132.494L236.235 127.786L235.944 126.624L234.03 123.577L232.704 116.828L230.677 117.461L230.685 116.091L230.394 114.809L232.033 113.67L229.426 111.129L229.91 109.453L230.394 109.371V108.477L228.249 107.189L227.861 107.472L227.094 108.544L225.917 108.082L225.202 105.676L225.075 104.209L224.062 102.644L223.414 103.777L222.349 104.246L221.388 103.777L221.47 103.754L220.136 102.548L219.682 102.011L219.071 100.313L218.676 99.9924L218.214 99.8657L217.216 100.611L216.769 100.64L215.868 100.402L214.311 99.3219L213.633 99.2847L213.439 99.4038L213.104 99.0984L211.733 99.1282L211.584 98.4727L211.16 98.4056L210.988 97.7799L210.668 97.3105L210.445 96.5581L210.616 95.9249L210.526 95.7536L209.357 95.627L206.131 95.6716L205.029 95.396L204.343 95.1055L203.055 94.0253L202.883 93.7199L204.612 91.9916L204.79 91.7681L204.746 91.3807L204.12 91.1871L203.077 91.0381L199.851 88.9299L199.74 89.0788L199.881 89.4141L199.889 89.8313L199.442 89.8685L199.278 89.794L198.712 89.4364L198.108 88.5723L198.019 88.2743L198.004 87.7677L198.19 86.8962L199.151 86.7099L200.552 86.6652L201.162 86.397L201.937 85.7489L202.66 84.7581L204.507 83.0299L205.059 82.7319L206.601 82.9926L206.861 82.8436L207.338 82.8585L207.673 82.717L208.359 82.0987L208.731 81.242L209.387 81.1898L211.175 80.2512L211.651 79.5957L212.612 78.9327L212.732 78.739L211.994 76.9511L211.391 75.9082V74.977L211.316 74.8205L210.161 74.7162L209.513 74.4928L209.431 74.2767L209.394 72.0866L209.208 71.8854L208.053 71.6471L207.994 71.3938L207.569 71.2522L207.599 69.1664L207.778 68.928L209.178 68.6673L209.588 68.414L209.893 68.0564L210.191 67.3412L211.934 66.0972L212.761 65.0915L212.59 64.7265L212.173 64.3093L212.054 63.475L212.672 63.4303L213.372 63.7059L213.566 63.2515L215.115 62.2309L215.614 62.3724L216.359 63.2068L217.06 63.3111L217.507 63.0354L218.334 62.1564L218.952 62.3426L219.116 62.5214L219.436 62.5438L219.868 62.8194L220.963 63.8772L221.269 63.9219L222.028 63.0578L222.401 63.1546L222.677 63.0206L223.466 62.9982L223.66 63.1025L224.368 62.73L224.599 62.7375L225.574 63.9443L226.26 64.1529L227.012 63.7282L228.13 62.8567L228.159 61.4338L227.742 60.1897L227.28 60.1003L226.617 59.7875L225.075 59.862L223.243 59.1319L222.669 58.5658L222.177 57.5526L221.336 56.9418L220.963 57.061L220.866 57.6495L220.68 57.791L219.175 57.8581L218.386 57.6197L217.939 57.0014L217.402 56.5767L216.777 56.4203L216.061 56.4948L215.197 56.4278L214.333 55.8765L214.125 55.3699L213.968 53.6938L214.214 53.3288L215.093 52.4572L215.242 51.1684L215.413 50.863L216.047 50.7661L216.434 51.1163L217.149 51.1088L217.32 51.3547L217.402 51.7569L217.745 51.9432L218.118 51.9655L218.646 51.8836L219.19 51.6079L219.563 51.1982L220.062 50.9375L220.196 50.3415L219.727 49.1273L218.959 48.725L217.685 48.7846L217.41 49.1794L216.829 49.5072L215.979 49.3507L213.961 49.2688L213.462 48.6654L213.186 48.5387L212.739 48.5164L212.188 48.2259L210.474 48.1141L210.385 47.9651L210.4 47.2574L210.519 46.8924L211.681 46.8254L211.838 47.034L211.964 47.5182L212.113 47.6076L212.277 47.5182L212.374 46.1251L212.523 45.9687L213.29 45.693L213.894 44.598L214.609 44.0691L214.847 43.7264V43.2571L214.683 42.8548L213.804 42.1396L213.663 41.6703L213.097 41.499L212.545 41.6405L212.113 41.2978L211.547 41.268L211.45 40.8807L211.681 40.4337L212.225 39.875L213.141 39.8973L213.968 39.6962L214.393 40.6199L214.795 40.8211L215.398 40.7764L215.466 40.6125L215.339 40.1357L215.696 39.2567L215.235 38.4298L215.398 37.9158L216.024 37.2602L216.121 36.9473L216.479 36.7909L217.045 36.8207L217.395 36.56L218.356 36.6866L218.557 36.9846L218.855 38.2734L219.19 38.5713L219.712 38.6384L220.099 38.8619L220.323 39.6739L220.553 39.875L220.956 38.8321L221.209 38.4596L221.842 38.2957L222.356 38.0275L222.535 38.5117L223.138 39.1375L223.429 38.914L223.578 38.5043L223.548 38.1914L224.04 37.953L224.122 38.0946L223.898 38.3925L223.988 38.5192L224.412 38.3106L224.815 38.549L224.353 39.361L224.33 39.5845L225.157 39.8079L225.418 40.0836L225.887 40.0761L226.543 40.0165L226.759 39.8526V39.4727L226.327 38.5788L226.193 38.0499L226.409 37.7742L226.729 37.7817L227.206 37.3869H227.638L228.137 37.7817L229.12 37.9456L229.396 37.7668L229.59 37.8636L230.998 37.9009L231.549 37.6103L231.966 37.5806L232.227 37.372L232.473 37.4018L233.218 38.1095L232.957 38.4521L232.123 38.8619L232.093 39.0704L232.532 40.3071L232.711 40.5678L233.352 40.836L233.828 41.1936L234.104 41.2085L234.275 40.8732L234.082 40.3816L234.216 40.0463L234.499 39.726L234.73 39.1226L235.318 38.8842L235.512 38.5862L235.534 38.3627L236.19 37.8636L236.413 37.8115L236.726 37.2453L237.248 37.0516L237.427 36.8282L237.702 36.7611L237.97 36.3663L237.874 36.0758L237.941 35.9044L238.447 35.9938L239.579 35.8672L240.175 36.0981H240.868L241.494 36.2843L242.351 36.1056L242.731 35.9044L242.939 35.6362L243.051 34.9509L242.82 34.4369L242.917 34.1389L243.036 34.0197L243.543 33.9229L243.714 33.7515L244.109 33.7292L244.191 33.9154L244.384 34.0048L245.047 33.7515L246.552 33.9899L246.813 33.8484L247.595 33.7143L247.722 33.5206L248.064 33.6994L248.213 33.4312L248.444 33.5429L249.867 32.9693L250.031 32.7905L250.627 32.6713L251.245 32.3138L252.206 32.0903L252.326 31.8966L252.802 31.9785L253.324 31.7104L253.719 32.0605L253.935 31.9115L254.143 31.9338L254.248 31.8147L254.486 31.9785L254.694 31.8966L254.754 31.4496L255 31.092L255.119 31.2485L255.328 31.1963L255.201 31.6582L255.246 31.7774L255.499 31.8221L255.924 31.4571L256.199 30.9282L256.564 31.0846L256.818 30.9803L257.108 31.1963L257.495 31.1218L257.726 31.1814L258.211 30.7792L258.807 30.8462L259.283 30.6078L259.827 30.6302L260.155 30.511L261.332 30.6525L261.667 30.4812L261.824 30.1981L261.809 29.9374L261.928 29.8107L262.189 29.7586L262.39 29.9225L262.695 29.9746L262.971 29.7735L263.254 29.7437L263.679 29.5128L263.738 29.2446L264.044 28.9987L264.416 28.9466L264.595 29.0732L265.787 28.7753L265.891 28.9391L265.817 29.0509V29.8778L265.966 29.9299L266.755 29.7139L267.448 29.3265L268.342 28.6412L268.938 28.3655L269.184 28.4028L269.884 28.9168L270.473 29.483L271.121 30.3769L272.722 30.3322L272.968 30.0119L272.976 29.6915L272.581 28.1197L272.245 27.6131L272.536 26.682L272.409 25.8029L272.596 25.5645L273.683 24.8047L274.674 24.4024H275.114L276.156 24.6929L276.469 24.6035L276.507 24.2087L276 23.5159L276.052 23.1062L276.268 22.838L276.752 22.6518L277.974 22.987L278.645 22.9721L279.203 23.2105L280.053 23.7916L280.425 23.8362L280.738 23.6724L281.11 23.1956L281.334 22.5847L281.379 22.1303L281.647 21.594L282.533 21.1768L283.174 21.1172L283.39 21.1693L283.546 21.4226L283.256 22.4879L283.271 23.1509L283.718 23.5234Z" stroke="#606060" stroke-width="2"/>
<path d="M183.79 227.699L184.296 227.326L184.535 226.783L184.803 226.447L185.31 226.716L185.578 227.021L186.047 227.192H186.725L187.03 227.766L186.859 228.444L186.993 229.591L186.926 230.336L186.554 230.805L186.993 231.714L187.299 232.899L187.842 233.234L188.282 233.673L188.52 234.314L188.543 234.888L181.361 229.688L181.436 228.95L181.741 228.749V228.042L181.913 227.706H182.382L182.784 227.907L183.388 227.93L183.79 227.699ZM195.567 227.163H194.025L194.13 224.548L195.359 224.242L197.773 224.086L199.62 224.294L199.978 225.062L201.363 225.315L202.853 225.367L203.062 225.725H199.21L197.154 226.857L195.567 227.163V227.163ZM226.043 184.149L227.235 186.421L229.038 186.146L233.031 191.226L232.405 192.671L236.569 193.327L237.203 194.236L238.298 193.886L234.312 197.007L240.294 195.89L242.015 197.528L244.198 198.996L246.127 198.847L250.418 201.246L251.819 200.382L252.452 201.022L259.715 203.868L261.205 203.905L268.483 207.824L271.5 208.084L274.137 211.064L276.812 212.547L295.718 217.679L301.455 217.359L302.155 217.568L302.386 219.579L302.185 221.3L304.472 223.065L304.911 224.473L304.494 225.397L303.615 226.641L303.16 228.168L303.026 230.306L302.103 233.688L304.851 235.968L307.153 236.951L307.243 251.18L306.96 251.582L306.788 252.833L308.33 254.346L309.209 254.063L310.871 254.994L310.908 255.664L312.569 257.683L316.54 260.521L315.519 261.534L314.96 261.08L314.081 261.438L313.336 262.227L313.642 262.659L314.066 263.762L313.895 265.907L313.277 266.205L311.847 264.961L311.854 268.105L310.476 269.513L310.595 270.176L310.297 271.807L308.829 272.224L309.262 274.139L309.88 273.759L309.649 272.515L310.446 272.061L310.29 272.962L311.131 272.925L310.878 273.983L311.437 275.323L312.465 275.048L312.405 275.703L310.99 276.612L306.192 279.011L302.326 280.441L298.706 283.168L294.631 287.28L292.597 286.028L286.749 292.1L285.49 291.794L285.379 280.039L281.445 281.886L279.367 275.197L278.897 273.297L275.493 270.273L273.735 268.507L271.947 264.559L271.634 264.201L271.135 263.918L270.271 263.933L269.63 264.097L262.784 267.353L262.456 267.412L253.755 266.861L248.116 266.287L246.082 265.959L239.691 267.084L226.535 269.669L226.274 269.647L225.768 269.163L215.666 256.692L213.767 254.778L213.074 252.573L206.295 247.678L207.017 247.038L207.457 246.799L207.963 245.347L208.165 243.894L207.829 242.345L207.219 240.356L206.645 239.648L205.766 239.581L205.46 238.635L204.82 238.091L204.447 236.839V235.96L204.82 235.119L204.783 232.385L204.447 231.17L203.769 230.664L203.941 229.919L204.485 228.667L204.552 227.453L204.008 225.293L203.3 224.518L203.196 223.065L203.941 222.559L204.343 220.436L204.648 220.033L204.82 219.311L206.876 218.804L207.382 218.096L207.621 217.188L208.969 215.936L210.489 215.668L211.532 214.722L212.88 214.215L214.296 213.374L215.204 211.824L215.443 209.358L215.398 208.107L214.839 208.025L214.042 208.665L211.815 208.271L209.826 208.353L208.396 206.602L208.477 204.136L208.716 203.101L207.68 202.78L206.965 202.147L204.976 202.229L204.894 202.944L205.691 203.339L206.407 203.421L207.36 204.136V205.09L206.801 205.41L206.243 206.051L205.446 206.446L204.492 205.969L203.375 205.648V207.958L202.838 208.338L202.637 207.637L202.734 205.648L202.339 204.851L201.639 204.151H200.641L197.355 206.341L196.759 207.138L196.67 208.628L197.102 209.165L197.609 210.282L197.944 210.789L198.957 211.228H199.769L200.447 210.893L201.289 210.654L203.077 210.52L203.479 211.295L204.12 211.802L204.999 212.107L206.116 211.332L206.66 210.654L207.3 210.52L207.435 211.839L208.582 213.761L208.552 215.243L208.247 216.324L206.697 217.299H205.885L203.963 217.672L203.054 217.366L202.212 216.458L201.438 216.018L199.143 215.549L197.996 215.415L197.355 215.787L196.037 217.001L195.024 217.068L194.554 216.8L194.823 215.385L194.517 214.878L194.413 213.969L194.45 212.852L193.876 212.144L192.997 211.973H190.569L190.1 212.077L190.137 212.889L191.724 215.422L192.096 216.264L191.828 217.24L192.163 219.802L191.992 220.816L191.589 221.493L191.12 221.732L190.614 221.464L190.003 223.252L189.466 223.691L188.826 223.453L188.014 223.52L187.202 223.825H186.427L186.323 223.281L186.36 222.574L186.531 221.762L187.373 220.48L187.984 219.802L188.252 219.192L187.641 218.752L186.934 218.38L186.293 218.752L185.518 219.527L184.609 219.594L183.73 219.46L183.328 219.125L183.037 219.013L186.986 214.156L190.167 209.381L191.828 207.555L193.05 205.648L198.883 200.233L203.322 199.868L203.74 195.279L209.803 195.778L214.78 182.451L223.578 180.417L226.043 184.149V184.149Z" stroke="#606060" stroke-width="2"/>
<path d="M61.2751 243.09L61.3347 243.171L61.6923 242.955L61.9083 243.052L61.1857 243.514L60.9399 243.82L61.0069 244.095L60.8952 244.125L60.776 243.797L60.9399 243.209L60.8058 242.367L60.8803 242.278L61.1857 242.687L61.2751 243.09V243.09ZM62.2659 240.609L62.4744 240.668L62.683 240.549L62.8767 240.37L62.9959 239.976L63.1226 240.497L63.3162 240.341L63.3758 240.467L63.2715 241.391L63.3535 241.696L64.009 242.032L63.2417 241.868L63.1375 242.069L62.6756 242.173L62.6607 242.009L62.9959 241.719L62.6011 241.57L62.8246 241.182L62.7799 240.952L62.2882 240.922L61.6774 240.192L61.655 240.028L62.0275 239.685L62.0871 239.775L61.8636 240.073L62.2659 240.609V240.609ZM53.3116 238.128L53.8479 238.262L54.1385 238.53L53.3786 238.635L53.0211 239.112L52.9838 239.678L53.1924 240.199L53.2669 240.84L53.4457 241.115L53.617 241.138L53.7064 240.914L53.7735 240.989L53.5947 241.548L53.9522 242.062L54.8164 242.494L55.5911 242.196L55.7103 242.225L55.755 242.337L55.4719 242.948L55.3825 242.963L55.174 242.717L54.131 242.568L53.6617 242.292L53.0955 241.391L52.6113 239.76L52.9317 238.769L52.954 238.285L53.3116 238.128V238.128ZM57.1853 237.83L57.7664 237.927L57.9601 238.449L57.8483 239L57.975 239.402L57.595 240.073L57.5801 240.438L57.4386 240.736L57.1108 240.966L56.8948 240.989L56.5968 241.317L56.5 241.54L56.6192 241.853L56.5149 241.935L56.3435 241.793L56.2467 241.376L56.3212 241.175L56.2169 240.736L56.418 240.303L56.3957 239.961L56.3137 239.76L55.971 239.469L56.0381 239.067L55.8146 238.612L56.1349 238.225L56.6489 238.262L57.1853 237.83V237.83ZM90.6857 228.63L90.7899 228.645L90.9017 228.436L91.0581 228.392L91.2295 228.518L91.6243 229.576L91.6392 230.031L91.818 230.448L91.736 230.731L91.818 231.178L91.7882 231.275L91.2891 231.319L91.4902 231.617L91.4529 231.699L90.708 231.401L90.5516 230.947L90.1716 230.373L89.6725 229.889L89.4714 229.539L89.6278 229.308L90.3132 228.772L90.3504 228.682L90.112 228.459L90.0897 228.265L90.4547 228.414L90.6857 228.63V228.63ZM93.1812 223.304L96.4963 224.123L98.448 224.227L98.9099 223.073L101.145 223.371L102.113 222.73L103.149 222.589L104.899 221.836L106.367 220.95L107.305 220.048L105.786 219.154L109.078 216.703L109.861 215.206L109.659 214.282L111.894 214.558L112.185 214.081L113.213 213.843L114.099 213.888L115.038 213.664L116.379 213.128L118.569 213.076L121.34 211.995L127.061 211.399L128.663 211.623L132.075 208.241L133.826 210.722L134.764 211.303L135.189 211.169L135.412 210.796L135.83 210.573L136.537 210.669L137.036 212.167L136.805 213.314L137.044 213.977L138.124 214.29L138.869 214.729L139.606 214.223L140.247 214.506L140.627 215.668L142.162 216.13L143.16 215.616L143.838 216.249L144.97 216.167L146.266 216.942L147.577 220.555L149.648 235.878L139.398 239.246L139.435 311.975L137.513 311.9L136.664 312.75L136.247 312.429L136.038 312.385L134.638 312.645L134.094 312.921L133.945 313.331L133.773 313.472L133.565 313.308L133.453 312.966L133.192 312.638L133.043 312.705L133.036 313.107L132.76 313.301L132.462 313.226L131.732 312.794L130.883 312.02L129.915 310.783L129.088 310.113L128.432 309.219L127.099 307.021L126.019 304.473L125.341 303.475L124.536 302.685L124.313 302.328L124.253 301.933L124.387 300.6L123.732 299.654L122.622 298.417L117.094 294.506L114.688 292.919L113.98 292.495L113.273 292.219L109.868 292.323L104.557 293.172L102.158 293.828L97.9862 295.668L96.5558 296.16L95.498 296.852L90.7155 301.143L88.0113 303.386L88.0336 302.998L88.6519 301.538L88.7339 300.629L88.7115 300.004L88.5179 299.259L87.9293 298.469L88.0411 297.627L87.691 297.255L87.907 295.735L88.1752 295.199L89.2032 293.947L89.8513 292.822L91.155 289.53L91.4679 287.98L91.304 287.094L90.9464 286.401L89.7247 285.008L89.6427 284.755L89.9184 284.337L89.8588 284.71L90.0301 285.09L90.7974 285.701L91.3412 286.431L91.7882 287.645L92.1532 287.25L92.3394 286.744L92.4214 285.708L92.2873 284.695L91.9968 284.457L91.3561 284.449L91.0432 284.173L90.5441 284.382L90.7601 284.024L90.4473 283.175L88.4508 282.587L87.8549 282.49L86.7002 282.661L86.1862 283.034L85.8807 283.51L85.7913 283.503L84.9942 282.199L84.5696 281.901L84.2642 281.827L83.7502 281.849L83.5118 281.76L82.6849 281.886L81.5451 282.229L80.6661 282.669L80.3681 282.661L80.1074 282.415L79.1687 280.896L79.0645 280.516L78.5281 279.681L78.2897 278.802L76.621 277.223L76.7998 277.029L76.8371 276.672L76.5391 275.741L75.809 275.674L74.4234 275.957L74.2446 276.15L73.4326 276.113L71.4734 276.433L71.0712 276.314L71.0116 276.001L71.1159 275.137L71.6969 272.701L71.7491 271.115L71.6373 270.027L71.3989 269.61L71.3021 268.917L71.0116 268.202L70.3411 267.569L70.2294 267.218L69.7675 266.92L69.5962 266.861L69.4844 266.995L69.4025 266.928L68.8438 265.982L68.1286 264.313L67.4954 263.538L66.9516 260.603L66.2513 259.575L66.0651 259.396L65.4766 259.255L65.1935 258.912L65.3053 257.586L65.0967 256.64L64.6348 255.478L63.8898 254.748L62.3329 254.048L61.2378 253.772L58.5411 253.564L57.6472 253.191L56.6117 252.476L56.1796 251.783L56.1126 251.5L56.0753 248.602L55.8817 247.745L55.8966 247.671L56.269 248.282L56.2839 248.565L56.4627 248.528L57.1704 246.472L57.7217 246.561L58.0048 246.494L58.1686 246.658L58.6156 246.621L59.2637 246.881L60.0757 246.814L60.7462 246.926L61.2229 246.68L61.7519 247.105L63.2566 247.231L63.9271 247.112L64.1953 246.665L64.389 246.621L64.6944 246.829L65.715 247.127L66.1247 247.76L66.2662 247.783L66.4152 248.111L66.7505 248.267L67.1378 248.192L66.959 248.535L67.1304 248.952L68.4266 249.846L69.9686 249.876L70.4231 249.511L70.7508 249.049L71.0861 248.863L71.2052 248.528L72.4568 248.2L72.6281 248.192L72.6951 248.334L72.494 248.654L72.5164 248.796L72.6728 248.736L73.0751 249.183L73.3954 249.109L73.5518 248.96L73.5667 248.721L74.3415 249.064L74.8183 248.893L74.9225 248.729L74.781 248.401L74.2297 247.962L73.373 247.582L71.5703 247.596L71.0041 247.753L71.019 247.5L71.2648 247.254L71.2127 246.978L70.8402 247.231L70.7732 247.157L70.803 246.464L70.3858 245.615L69.5962 244.468L69.1194 244.296L68.3446 243.566L67.6369 243.201L67.6146 243.075L67.1751 242.702L66.9069 242.598L66.8696 242.851L66.5419 243.022L65.9534 242.963L65.3574 243.06L64.8434 242.762L64.8061 242.561L65.3499 242.747L65.201 242.523L65.2829 242.158L65.4915 241.853L65.2457 241.667L65.2382 241.331L66.4152 239.7L66.6089 239.573L67.2272 239.29L67.4507 239.268L67.8306 239.447L67.9796 239.387L69.1641 238.165L69.6632 237.905L69.9239 237.927L70.4231 238.21H70.6987L70.803 237.637L70.6316 236.035L70.7806 235.297L70.8849 235.052L71.0935 234.888L71.2648 234.15L71.7416 233.346L72.0917 233.077L72.2854 232.69L72.5834 232.616L73.0825 231.908L73.3135 231.759L73.6114 232.176L73.7828 232.258L75.0119 232.191L75.4962 232.064L75.66 231.811L76.1741 231.669L77.1797 231.059L77.3138 230.731L77.8129 230.098L78.1035 230.12L78.2003 230.314L78.4983 230.485L78.6845 230.343L79.1464 230.656L79.9435 230.746L80.4799 231.148L80.7555 231.2L81.5004 231.126L82.2826 230.813L82.8339 230.798L83.5714 231.036L84.6516 230.88L85.6126 230.895L86.0446 230.813L86.6927 230.507L87.1173 230.522L87.974 230.299L88.6147 230.545L89.8886 230.604L90.0822 230.805L90.3206 231.372L90.9017 231.811L91.5647 231.886L91.7733 231.848L91.7658 231.655L92.6896 232.102L93.211 232.131L93.2185 231.93L92.2277 231.476L92.4288 231.401L92.4884 231.193L92.3171 230.925L92.2947 230.545L91.9968 230.165L91.9148 229.874L91.9074 229.33L92.0415 229.137L92.8088 229.464L93.5165 230.001L94.2689 230.12L94.8723 230.835L95.5725 231.327L95.6694 231.208L95.0064 230.604L94.2987 229.517L94.0826 229.427L93.5388 229.487L93.2483 229.032L92.3394 228.6L92.4288 228.362L92.7641 228.161L92.6225 227.93L92.8758 227.766L93.4271 227.542L93.8591 227.483L94.3732 227.602L94.4551 227.513L94.1422 226.932V226.596L93.8889 226.671L93.5835 227.192L92.8982 227.513L92.5778 227.773L92.4661 227.706L92.548 227.468L92.3841 227.356L92.4512 226.984L92.0042 226.924L92.3841 226.82L92.1234 226.686L92.116 226.559L92.5853 226.149L92.8907 226.09L92.8609 225.784L93.3749 225.732L93.5388 226.038L94.0528 226.351L94.172 226.321L93.36 225.218L92.6523 224.66L93.0099 224.563L93.3079 224.272L93.2706 224.093L93.0173 224.086L93.0248 223.9L93.4196 223.803L93.4718 223.922L93.6431 223.848L93.658 223.952L93.7995 223.974L94.0454 223.855L94.1944 223.639L93.8219 223.713L93.1812 223.304V223.304Z" stroke="#606060" stroke-width="2"/>
<path d="M439.821 29.6467L440.476 29.6169L440.789 29.7882L440.953 30.0564L441.087 31.1291L440.625 31.8368L440.729 32.6563L440.67 32.9766L440.074 33.6545L439.441 34.0046L439.314 34.8092L438.867 34.9805L437.951 35.651L437.675 35.5169L437.288 34.8017L436.796 34.9954L436.461 34.9582L435.857 34.6006L435.098 34.5112L434.792 34.5187L434.658 34.6155L434.606 35.0252L434.725 35.5169L435.686 36.8131L435.813 37.8411L436.401 38.9362L439.508 41.9532L451.188 51.4066L455.36 55.407L456.12 56.301L458.735 60.6291L461.014 64.0857L463.718 68.9949L463.823 68.8906L465.462 72.0641L465.342 72.146L470.028 80.4298L470.885 82.4263L472.166 84.4079L472.345 84.907L472.926 85.7041L473.909 87.6558L474.036 87.5813L474.178 87.857L474.066 87.9464L475.213 90.36L475.496 90.6431L475.481 90.8442L476.926 93.8613L475.839 93.9879L475.451 96.26L473.231 96.8262L473.619 98.0926L471.749 99.9252L471.347 99.4409L468.449 99.8656L468.516 101.251L469.261 101.125L469.037 102.056L469.172 103.158L468.419 102.897L465.454 104.782L463.622 105.356L463.294 104.603L462.407 104.998L462.221 105.833L460.657 106.667L460.322 106.399L459.085 107.598L460.821 110.109L461.215 112.418L462.318 112.753L462.988 113.766L464.165 114.69L465.134 115.189L468.129 117.178L467.607 122.251L468.978 122.639L469.395 125.589L468.404 126.617L465.916 131.138L463.92 132.055L461.573 131.474L455.353 128.881L454.496 127.377L453.535 127.943L451.866 126.751L453.021 125.164L452.164 122.117L449.781 120.59L446.756 120.471L444.193 117.759L441.4 118.482L439.91 119.934L439.009 123.525L439.098 125.753L438.554 126.706L436.93 125.738L435.299 125.916L434.159 126.572L433.824 126.319L433.153 128.121L432.468 128.285L430.591 127.183L425.503 128.583L424.862 127.898L424.169 128.166L423.968 128.896L423.454 129.187L419.208 129.045L418.508 129.984L415.513 132.167L414.06 132.599L413.785 131.98L412.853 132.025L412.354 130.319L413.278 129.701L413.256 129.217L415.23 128.382L415.379 128.598L416.161 128.345L415.945 127.928L416.437 127.719L416.198 126.818L414.53 126.155L414.135 125.03L414.641 124.732L413.524 122.81L412.689 122.773L410.663 120.612L409.65 123.153L408.689 120.687L409.523 120.039L408.726 119.041L406.357 118.579L406.164 117.968L404.994 118.951L402.908 119.122L400.77 119.681L398.64 117.335L399.712 116.321L399.087 115.353L399.482 114.534L400.256 114.355L400.174 112.098L400.495 110.377L401.135 108.41L400.502 107.434L400.443 105.751L395.451 103.94L397.016 102.093L397.232 100.439L400.457 98.331L401.932 98.7481L402.499 98.0404L403.273 97.9585L403.631 97.4147L402.216 96.6027L400.51 96.4462L399.772 94.7403L397.12 96.044L397.195 91.6562L397.649 91.1199L399.683 89.5182L400.569 89.3469L400.264 88.6988L399.929 73.8296L399.169 73.7179L399.124 73.3007L399.042 72.362L396.338 72.1609L395.6 70.2091L395.898 69.3227L396.569 70.2464L397.627 70.4028L398.245 71.7288L398.96 71.4234L398.759 69.129L399.683 68.7565L399.541 67.4975L400.279 67.1027L399.467 64.9051L398.036 65.4042L397.373 65.1956L396.502 67.5497L394.543 67.5795L394.178 65.665L395.206 64.4581L394.729 63.4525L393.127 64.5773L392.777 64.2123L393.641 63.5046L394.192 62.1265L395.019 60.8898L394.922 60.0331L395.757 59.6309L395.712 59.102L396.457 58.6997L395.779 57.6419L395.027 58.1484L394.796 57.5897L393.969 57.8951L393.917 58.4166L391.846 60.2268L391.488 58.0739L391.823 55.7869L393.045 56.3829L393.596 55.8167L392.405 53.932L391.652 52.2484L393.529 50.4084L393.775 49.3208L394.52 49.507L394.885 47.9277L395.898 48.0469L397.18 48.8515L398.185 47.3392L400.659 47.8979L400.51 49.5815L401.776 49.7007L402.044 48.4417L403.087 48.6652L402.938 49.1643L403.46 49.3729L403.452 50.3339L403.713 50.4904L403.758 50.6617L403.661 51.2204L405.426 51.8834L406.596 49.0005L405.97 48.6354L406.402 46.4825L408.853 46.8848L409.501 44.7021L410.321 44.8362L410.738 44.6276L410.976 44.2104L411.192 43.2569L411.319 43.1526L411.81 43.3314L413.77 43.3165L413.971 43.4357L414.284 44.0242L414.611 43.8678L416.332 42.5045L417.182 41.7L417.83 41.4094L419.588 40.0462L420.601 39.5024L421.018 38.9958L421.011 38.4892L419.781 36.7312L421.703 35.7404L422.724 36.1724L422.888 36.1426L431.775 32.0007L431.835 31.7847L431.462 31.3228V31.1813L431.872 29.9745L431.999 29.9372L433.511 30.6151L435.075 30.7418L435.775 30.7045L436.558 30.1905L437.913 30.2203L438.733 29.3785L439.12 28.4622L439.888 28.3952L440.901 27.7843L441.69 27.4565L441.951 27.4938L442.048 28.1344L441.988 28.2462L439.798 29.4381L439.821 29.6467Z" stroke="#606060" stroke-width="2"/>
<path d="M329.635 4.48245L330.001 5.35404L330.187 5.45088L331.125 5.20505L332.094 4.75808L332.712 4.66868L333.196 4.75063L334.388 5.30189L334.805 5.13055L335.886 5.06351L336.973 5.25719L338.463 6.00214L339.335 6.28522L339.774 6.57575L340.095 6.97803L340.609 8.48282L340.929 8.78825L341.666 9.07133L342.516 9.18307L343.7 10.4197L343.946 10.5314L344.922 10.5612L345.168 10.4346L345.913 9.5928L347.499 8.90744L347.715 8.64671L348.222 7.21641L348.58 6.83649L349.146 6.84394L350.084 7.38775L350.852 7.40265L351.135 7.28345L351.582 6.77689L351.917 6.6279L353.362 6.34482L353.63 6.39697L353.772 7.425L354.114 8.1178L354.636 9.15328L355.232 9.69709L355.426 10.591L355.94 11.1125L356.439 12.0809L356.543 12.7067L356.424 14.4201L356.521 15.3215L356.208 16.0813L356.156 16.7145L356.215 16.9603L356.901 17.9362L356.953 19.1505L357.072 19.59L357.556 20.5361L358.204 21.2289L359.642 21.6014L360.521 22.2942L360.588 22.4953L360.603 23.4935L359.471 23.8437L359.21 24.0523L359.098 24.2906L358.949 25.4155L359.031 26.4584L359.232 27.8142L359.582 29.0285L359.456 30.0267L359.158 30.7866L359.031 30.8909L358.8 30.876L357.541 30.6301L356.655 30.1608L356.536 30.1832L356.446 30.362L356.454 31.3081L356.558 31.5315L356.819 31.7401L357.571 31.9264L357.72 32.1722L357.809 32.7235L357.281 33.4386L357.228 33.6546L357.392 33.9079L357.824 34.1687L358.048 34.4368L358.256 34.9062L358.346 35.733L358.569 35.9267L359.098 36.0832L359.27 36.0236L360.357 35.0775L360.692 34.3698L361.34 34.2357L363.471 34.9062L363.613 35.2339L363.516 35.8075L363.665 36.0757L364.678 35.882L365.698 36.2247L366.034 35.9714L366.645 35.8001L367.017 35.3457L367.002 34.8838L366.712 34.0271L366.972 33.1332L367.315 32.6341L369.2 32.8724L371.017 33.2747L371.531 33.6993L371.569 34.1836L372.083 34.4741L372.038 34.9434L373.051 35.517L373.163 35.4798L373.394 35.1073L373.491 34.1985L373.014 33.6919L371.889 33.0959L372.098 32.351L372.522 31.6358L372.157 31.0473L371.479 30.5184L371.233 29.9597L371.3 29.848L371.613 29.7735L372.671 29.7884L373.237 29.915L374.481 30.8685L374.772 31.7625L374.668 32.4478L375.338 32.8724L374.995 33.9377L375.137 34.1016L376.426 34.9434L377.796 35.3233L377.841 36.0236L376.955 35.8299L376.716 36.1353L376.016 36.1726L375.927 36.5748L376.202 36.9846L376.187 37.2602L376.731 37.6848L376.746 37.804L376.135 39.8973L376.888 40.7093L377.625 40.9626L377.811 40.8657L378.4 39.4429L378.69 39.0034L381.119 39.9867L380.962 38.9289L380.292 37.6103L379.592 37.4688L378.973 37.506L378.705 37.6997L378.206 37.6029L378.549 36.0608L379.189 35.7405L379.368 35.4574L381.99 35.6883L382.475 35.7703L382.84 36.1353L384.859 36.3365L384.814 37.4315L385.752 37.5805L386.14 38.8469L386.356 38.981L388.039 39.3386L389.179 39.7185L389.313 39.8973L390.937 39.8377L391.049 39.6515L390.952 39.1524L391.056 38.9959L391.518 39.1673L392.107 39.6664L392.755 39.9867L392.874 39.9271L392.904 39.7334L392.524 38.8544L392.531 38.6011L393.649 38.2286L394.26 37.7146L394.409 37.3719L394.208 36.992L394.29 36.9175L395.146 37.0069L395.176 37.2751L395.981 37.4166L395.601 39.9718L395.124 42.1247L391.854 41.633L391.369 42.5344L391.727 43.3166L391.235 43.5476L390.17 43.7636L390.341 44.4713L389.894 46.3784L388.881 46.5423L388.896 47.3095L389.209 47.3691L389.224 47.4585L388.702 49.1794L390.237 49.7306L390.393 50.0137L390.922 50.1776L390.93 50.5948L390.617 51.5036L390.87 51.809L391.652 52.2486L392.405 53.9321L393.597 55.8169L393.045 56.383L391.824 55.7871L391.489 58.0741L391.846 60.227L393.917 58.4167L393.969 57.8953L394.796 57.5898L395.027 58.1486L395.779 57.642L396.457 58.6998L395.712 59.1021L395.757 59.631L394.923 60.0333L395.02 60.89L394.193 62.1266L393.641 63.5047L392.777 64.2124L393.127 64.5775L394.729 63.4526L395.206 64.4583L394.178 65.6651L394.543 67.5796L396.502 67.5498L397.374 65.1958L398.037 65.4044L399.467 64.9052L400.279 67.1028L399.541 67.4977L399.683 68.7566L398.759 69.1291L398.96 71.4235L398.245 71.729L397.627 70.403L396.569 70.2465L395.899 69.3228L395.601 70.2093L396.338 72.161L399.042 72.3622L399.124 73.3008L393.522 72.8836L392.487 70.8946L391.407 70.9468L391.228 69.9932L389.261 70.0379L386.49 68.63L384.635 69.4196L384.233 65.1362L383.622 64.4434L383.614 62.6778L383.309 61.9105L382.817 61.9552L382.348 62.6257L380.784 62.6406L379.435 63.3111L378.817 62.73L376.023 63.3483L375.346 65.1213L371.919 65.382L367.695 64.8531L367.501 63.9145L366.801 63.1248L366.786 62.3054L367.71 61.8882L367.248 60.6143L367.717 58.9159L368.298 58.0443L365.296 54.7814L365.386 53.8651L363.911 53.8279L363.426 54.8037L362.525 54.9304L362.182 55.4071L361.78 55.4742L361.236 56.0403L359.955 56.0254L359.798 55.5934L357.459 55.1762L357.675 53.7608L357.482 53.7459L357.541 53.0308L351.425 53.2021L351.075 55.2209L349.764 55.4146L350.032 57.1727L348.624 57.3589L348.408 56.2117L346.933 54.3493L346.859 53.9321L346.352 53.8949L346.129 54.2823L343.298 54.3568L343.73 53.9768L343.67 53.2617L344.281 53.2095L344.117 52.5763L344.743 52.2188L344.616 50.8779L343.581 51.3025L341.786 50.8481L341.458 51.3323L340.966 51.0864L341.316 50.2968L341.152 47.8161L340.355 47.5405L340.214 46.3933L337.07 46.3411L336.526 46.9222L335.819 46.9669L335.476 47.6597L334.671 47.4883L334.403 48.7026L333.792 48.7622L334.038 49.9094L334.843 50.0808L334.373 51.1684L333.375 50.8853L333.338 49.753L333.077 48.9112L332.474 48.7547L332.302 48.129L331.394 47.9502L331.349 46.9147L329.926 46.803L329.971 48.047L327.93 48.196L327.862 47.466L326.44 47.3617L326.313 47.9651L325.196 47.8832L325.672 48.6356L325.553 49.0378L325.941 49.4773L325.613 49.8647L323.482 49.8051L323.527 51.0343L324.235 50.9896L323.788 51.8761L323.408 51.4366L322.67 51.9953L322.64 52.6061L322.223 52.7775L321.612 52.8371L321.173 53.515L322.216 55.0272L322.283 55.8467L323.08 56.1148L323.534 57.0609L325.151 57.1876L324.965 58.901L325.97 58.9829L326.224 59.8098L326.171 60.8229L325.657 60.9868L326.507 62.1638L324.279 64.2199L324.965 66.5963L324.168 66.4324L325.397 67.8329L324.16 68.4512L323.765 68.3171L323.125 68.9727L322.625 68.9354L322.38 69.8219L321.776 69.8815L320.741 70.5073L320.465 71.8929L320.063 71.9599L319.698 73.1369L318.104 72.9209L317.485 73.2785L316.919 74.5374L314.811 74.4927L315.131 76.1167L316.018 76.4743L316.182 77.182L314.371 79.1561L313.798 78.7166L313.358 79.4839L313.731 80.0053L312.889 80.8397L312.494 80.6162L310.967 79.2157L308.904 78.3814L308.054 77.3235L304.836 77.4129L305 82.3966L301.938 81.309L301.015 81.8379L299.413 81.6368L297.945 80.8471H293.304L293.2 78.5527L290.444 78.9773L288.283 79.9383L287.054 77.3608L284.723 77.2192L284.901 69.5984L286.443 69.1961L286.347 66.4622L286.652 66.4845L286.533 64.2497L285.818 64.205L285.296 61.836L285.937 61.0613L287.464 61.1656L288.41 60.4132L290.533 60.8602L290.898 59.2511L288.715 57.8878L288.566 51.4366L286.123 51.1758L285.49 49.2837L286.138 48.4046L287.315 47.25L287.285 43.3315L285.43 43.7338L283.918 38.8767L287.702 36.8803L289.013 36.7536L289.423 36.3588L288.633 34.2655L287.62 34.1687L284.886 32.4553L287.665 31.4645L286.019 26.9352L286.436 26.3392L286.13 25.8923L285.386 23.0689L288.939 21.7057L293.453 20.5957L294.586 20.8043L295.256 19.9178L295.487 19.7911L297.714 19.4634L299.115 19.5751L299.703 18.9494L300.739 18.8302L302.467 18.413L302.631 18.2416L302.773 17.452L302.951 17.2583L303.272 17.2956L303.912 17.668L305.44 17.6159L306.401 17.9735L306.78 17.8543L307.086 17.6159L307.63 17.6084L309.44 16.856L309.663 16.4165L309.879 15.3661L310.103 15.0384L310.58 14.6435L310.952 14.4946L311.548 14.5244L313.202 15.3438L314.304 15.0607L315.779 14.9713L315.995 14.7478L315.839 14.2264L316.033 13.3473L316.428 12.7439L317.023 12.1778L316.614 11.8127L316.435 11.4626L315.802 10.7251L315.683 10.4867L315.794 9.91312L315.422 9.32461L315.437 9.19797L316.539 9.17562L317.076 8.93724L317.284 8.98939L317.828 9.43636L318.014 9.36186L318.23 9.05643L318.476 8.96704L319.839 9.12348L321.232 8.8255L321.538 9.13093L321.791 9.15328L322.03 8.71376L322.223 7.58888L322.365 7.3505L322.774 7.15681L323.043 6.85883L323.162 6.29267L323.385 5.95745L323.341 5.32424L323.668 4.94432L323.937 4.85492L324.629 5.00391L326.939 6.54596L327.244 6.6428L327.408 6.49381L327.527 6.15113L327.311 5.29444L326.902 4.83257L326.671 4.78788L326.313 4.95922L326.179 4.86237L326.112 3.81199L326.231 3.32778L326.596 3L327.125 3.0149L328.131 3.32033L329.337 4.08018L329.635 4.48245Z" stroke="#606060" stroke-width="2"/>
<path d="M479.804 99.9178L480.094 100.38L481.085 102.726L483.342 107.218L483.476 107.68L485.294 111.338L485.555 112.098L485.667 111.807L485.853 112.329L486.836 114.049L487.447 115.383L487.246 113.945L487.313 113.275H487.536L487.641 113.684L489.093 113.677L489.064 112.403L489.198 111.986L489.756 111.919L489.935 111.509L490.963 111.479L491 111.33L491.202 111.278L491.753 111.301L492.52 110.429L493.086 110.422L493.034 109.982L493.228 109.118L493.22 107.986L493.168 107.516L492.61 106.928L492.677 105.11L493.138 105.006L495.306 105.088L495.425 104.73L495.433 103.724L495.656 103.099L496.014 102.756L497.653 103.24L498.167 103.449L498.591 103.784L499.374 103.948L499.284 104.216L499.456 104.432L500.759 104.916L501.504 105.483L501.862 105.244L502.234 104.648L502.562 104.767L502.853 105.207L502.86 106.093L502.547 107.539L501.869 108.619L501.787 109.386L501.579 109.93L501.646 110.764L503.046 110.809L505.423 109.908L506.413 109.922L506.473 110.228L506.6 110.243L506.652 110.362L506.674 110.958L506.905 111.055L507.039 111.681L506.726 112.105L506.913 112.478L507.24 112.537L507.665 113.647L507.687 113.93L507.263 114.809L507.255 115.256L507.687 115.361L509.706 115.45L511.792 115.048L511.889 114.981L511.956 114.079L512.038 114.012L512.246 114.124L512.224 114.504L513.222 113.923L515.032 114.184L515.323 114.31L516.5 115.338L517.252 115.569L518.057 115.487L518.34 115.331L518.78 114.787L518.996 114.727L519.666 114.794L520.351 114.675L520.955 114.847H521.551L522.4 115.167L522.869 115.189L523.138 115.107L524.605 114.169L525.223 113.535L525.365 113.208L525.38 112.098L525.603 111.107L526.184 110.943L527.466 111.464L528.3 111.666L529.082 111.718L529.462 111.487L529.708 111.07L530.758 110.042L530.915 109.639L530.818 109.088L531.012 108.976L531.399 109.028L531.563 109.207L531.831 109.282L532.032 109.766L532.122 109.848L532.248 109.811L532.412 110.086L533.068 109.587L533.91 109.505L535.191 109.811L535.593 109.498L535.303 109.9L535.407 110.153L536.465 110.615L536.986 110.548L537.776 110.734L538.61 111.122L539.631 112.008L540.711 112.127L541.121 112.276L541.404 112.47L543.311 114.63L543.542 116.031L543.691 116.299L544.629 117.32L545.076 118.169H545.188L545.866 118.795L546.611 119.853L547.281 120.493L547.49 120.881L547.572 121.193L547.177 121.871L547.155 122.296L547.84 124.434L547.818 124.762L547.512 125.432L547.52 125.693L547.915 126.43L548.808 127.451L548.98 127.555L550.053 127.511L550.768 126.892L551.021 126.87L552.205 127.95L552.682 128.174L553.762 128.397L554.15 128.65L554.753 129.261L555.036 129.395L555.893 129.477L556.109 129.783L556.176 130.327L557.226 130.349L557.591 130.461L558.545 131.243L558.947 131.884L559.066 132.435L558.895 132.643L558.56 132.42L558.403 132.599L558.448 132.926L558.247 133.418L558.299 134.275L558.515 134.707L558.806 134.915L560.087 135.303L560.281 135.802V136.301L561.413 138.365L561.54 138.804L561.584 139.348L561.383 140.205L561.45 140.488L561.644 140.83L562.255 141.099L562.597 141.657L563.283 141.59L563.685 141.858L563.842 142.164L564.333 142.007L564.653 142.238L564.937 142.007L565.123 141.627L565.682 141.389L566.546 141.352L567.455 141.665L567.991 142.29L568.326 142.387L569.466 142.082L569.935 142.201L570.524 142.581L571.865 142.447L572.036 142.484L572.207 142.708L572.014 143.527L572.088 143.713L572.736 143.959L573.518 143.363L573.928 143.251L574.554 143.281L575.351 144.488L575.478 144.51L575.984 144.063L575.828 143.348L576.431 142.566L576.386 141.94L576.476 141.806L578.226 141.18L579.195 140.57L580.059 139.37L580.864 138.826L581.162 138.35L581.489 138.275L581.825 137.962L582.041 137.575L581.817 137.195L581.899 136.897L584.64 136.904L584.678 137.106L584.126 138.245L584.141 138.61L584.35 138.961L583.925 139.326L583.128 139.773L582.696 139.638L582.011 140.51L581.988 141.128L582.197 141.836L582.525 142.171L583.285 142.045L584.618 142.67L584.655 142.775L584.372 143.058L584.931 143.52L584.7 144.272L584.782 144.771L586.16 145.553L586.272 146.47L586.078 146.738L586.063 146.961L586.488 147.468L586.644 148.004L586.995 148.168L587.494 148.131L588.023 149.04L590.22 149.233L591.36 149.926L591.546 150.209L592.001 152.131V152.496L591.77 152.459L591.375 152.154L590.689 152.176L590.25 151.736L589.43 151.371L587.032 152.481L586.369 152.496L585.832 152.168H585.631L585.244 152.571L585.013 153.584L583.918 154.277L583.583 154.694L583.478 154.895L583.441 155.521L583.635 156.564L584.745 157.972L584.752 158.456L584 159.022L583.896 159.201L583.821 159.655L584.149 160.281L584.059 160.937L583.166 161.95L582.935 162.598L582.733 162.754L582.19 162.903L582.011 163.559L581.735 163.887L581.534 164.684L580.856 164.825L579.292 165.741L578.659 165.406L578.323 165.555L577.623 165.6L577.012 166.397L576.126 167.023L575.411 167.015L573.243 166.725L572.535 167.127L571.812 166.941L571.216 167.187L570.71 167.239L569.138 168.528L568.721 169.325L568.654 170.152L567.879 172.118L567.395 173.057L567.335 173.794L567.417 174.644L567.134 175.366L567.075 175.865L566.494 177.012L566.404 177.743L567.142 181.817L567.551 184.857L567.298 186.734L567.827 188.135L568.669 189.334L568.795 189.811L568.557 190.891L568.736 191.532L568.646 192.88L568.557 193.148L568.371 193.29L567.216 193.401L566.911 193.737L566.702 194.899L566.278 195.815L566.233 196.515L565.019 196.396L564.11 196.642L563.693 196.485L563.238 196.783L562.791 196.456L561.8 196.634L561.324 197.625L559.886 198.616L559.588 199.182L559.186 199.376L558.612 199.383L558.225 199.577L558.031 200.478L557.383 200.843L556.712 200.828L555.774 201.424L555.655 201.41L555.476 201.156L554.284 201.268L554.172 201.149L554.224 201.03L554.776 200.732L555.051 200.076L555.483 199.704L555.275 199.51L555.245 199.167L554.872 199.003L554.746 198.467L554.306 197.849L554.038 197.67H553.718L553.278 197.849L552.272 197.834L551.453 198.236L550.797 198.035L550.552 197.64L550.328 197.551L549.509 197.826L548.98 197.685L547.229 197.774L546.745 197.879L545.985 198.251L544.965 198.519L544.674 198.504L543.788 197.864L542.812 197.849L541.977 197.461L540.666 197.141L539.809 197.134L538.059 196.538L537.694 196.322L537.18 195.74L536.286 194.981L535.578 195.182L534.744 194.087L533.202 193.997L532.189 193.036L530.766 192.999L530.431 193.066L530.118 193.282L529.581 196.582L529.313 197.215L528.747 197.506L528.456 199.078L528.084 200.374L526.885 203.048L526.631 203.957L526.266 206.386L525.663 208.554L523.577 212.845L523.182 213.887L522.735 215.556L522.504 219.042L522.05 220.085L521.268 221.471L520.746 223.088L519.666 225.494L519.39 226.298L519.145 227.572L519.182 228.027L517.684 228.563L517.156 228.101L516.977 226.924L517.424 223.795L515.077 221.24L513.945 216.957L509.147 211.332L509.661 210.654L509.028 210.781L508.827 210.558L509.557 210.014L509.825 209.284L509.483 209.299L509.013 210.163L508.507 209.783L508 209.76L507.516 209.656L508.06 208.807L507.635 208.799L506.987 209.716L506.518 209.172L506.093 208.107L505.281 208.636L504.596 208.658L503.784 207.421L499.284 207.31L495.075 204.956L490.121 202.78L490.181 201.29L487.089 200.009L480.199 202.415L475.655 196.046L469.211 196.769L468.503 194.951L466.678 194.787L465.955 193.938L464.227 192.813L461.784 190.757L459.452 193.729L457.604 191.785L455.481 194.169L451.742 193.334L451.347 194.064L449.902 194.712L448.196 193.878L447.294 194.437L446.594 196.366L444.441 195.562L443.033 194.519L442.281 193.237L440.985 192.567L442.124 192.135L442.743 190.63L442.668 188.999L444.039 188.783L445.357 189.364L445.201 188.261L444.441 184.983L444.113 184.834L443.815 183.978L444.687 182.048L445.402 179.002L446.117 179.031L446.251 177.243L447.242 177.236L446.378 175.992L449.075 175.009L448.047 174.189L446.587 174.301L444.724 172.602L445.104 171.485L446.378 171.433L446.691 170.666L446.006 170.457L443.741 170.517L443.54 169.563L442.288 168.982L441.752 167.879L442.899 167.529L442.735 166.397L443.488 165.704L444.225 165.645L445.335 166.025L448.002 163.283L447.987 162.359L448.598 159.976L448.002 158.203L442.072 159.178L441.052 157.145L441.387 155.714L441.26 154.858L442.467 154.232L442.765 154.657L444.151 154.068L442.75 152.608L441.581 151.93L441.543 150.53L439.368 148.734L438.146 148.332L438.184 147.587L437.021 146.254L437.238 144.98L440.657 143.333L444.426 141.948L445.715 139.921L446.013 138.752L445.633 137.731L445.968 136.376L445.529 135.72L445.931 133.999L447.25 133.962L447.89 133.515L449.939 132.576L451.079 130.99L453.209 129.217L453.537 127.943L454.498 127.377L455.355 128.881L461.575 131.474L463.922 132.055L465.918 131.139L468.406 126.617L469.397 125.589L468.98 122.639L467.609 122.251L468.131 117.178L465.136 115.189L464.167 114.69L462.99 113.766L462.32 112.753L461.217 112.418L460.823 110.109L459.087 107.598L460.323 106.399L460.659 106.667L462.223 105.833L462.409 104.998L463.296 104.603L463.624 105.356L465.456 104.782L468.421 102.898L469.173 103.158L469.039 102.056L469.263 101.125L468.518 101.251L468.451 99.8656L471.349 99.441L471.751 99.9252L473.621 98.0926L473.233 96.8262L475.453 96.2601L475.841 93.988L476.928 93.8613L479.804 99.9178Z" stroke="#606060" stroke-width="2"/>
<path d="M302.4 219.579L329.785 220.011L332.407 224.294L333.696 228.541L335.685 233.606L337.473 241.346L338.299 242.523L339.409 248.624L340.713 257.459L340.169 257.825L339.908 259.545L338.903 261.117L338.664 263.419L336.847 267.956L336.884 268.373L334.932 271.167L336.452 271.703L336.05 272.329L336.675 274.266L337.458 273.923L337.785 273.945L337.621 274.668L338.627 274.511L340.162 275.629L340.609 274.526L340.937 274.556L341.22 275.726L342.523 275.845L342.881 276.366L343.395 276.165L343.752 276.612L343.492 277.484L344.229 278.199L344.766 277.841L345.138 278.124L344.617 279.048L345.071 279.413L345.54 279.622L345.168 279.994L345.659 280.687L345.466 282.296L345.51 283.265L345.794 283.615L345.436 284.553L346.956 285.492L348.021 285.432L348.185 286.088L349.042 286.408L349.123 287.049L349.593 287.176L349.772 287.667L350.189 288.256L350.978 288.405L351.962 290.126L353.116 289.82L353.377 290.289L353.116 291.027L353.742 291.057L353.75 291.511L354.562 292.249L354.375 292.621L354.36 293.105L354.495 293.433L354.428 293.716L354.614 293.873L355.351 293.813L354.77 294.543L353.899 295.072L353.683 295.079L353.273 294.767L352.796 295.213L352.535 295.646L351.559 296.718L351.515 297.113L350.837 298.819L350.472 298.894L350.092 298.543L349.854 298.476L349.839 297.776L349.667 297.493L348.878 297.054L348.036 296.316L347.708 296.309L347.589 296.45L347.425 297.232L347.023 297.717L346.434 298.171L346.553 299.311L345.779 299.81L345.242 299.981L344.631 300.667L344.08 301.851L342.665 302.648L342.337 303.415H342.121L341.965 302.939L341.629 302.983L341.033 304.324L340.117 304.697L339.745 304.376L339.357 304.272L338.836 304.6L337.852 304.704L337.316 305.173L336.295 305.449L335.118 306.619L334.761 307.364L333.927 307.609L333.405 308.056L333.174 308.459L333.301 308.734L333.666 308.973L333.562 309.293L333.435 309.353L332.742 309.241L331.908 309.442L331.275 309.204L330.351 309.315L329.993 309.531L329.651 310.276L328.958 310.671L328.6 311.565L328.392 311.707L327.96 311.468L327.796 311.52L327.177 312.481L327.118 313.331L326.619 313.807L326.522 314.374H326.187L325.978 314.515L325.33 315.215L323.959 317.204L323.728 317.726L323.631 318.299L323.214 318.679L322.641 318.903L322.194 319.275L322.03 318.769L322.588 318.389L322.179 318.203L321.925 318.322L321.717 318.24L321.56 317.763L320.823 318.225L320.726 318.039L319.184 317.942L319.191 318.344L320.324 318.419L320.599 318.851L320.331 319.134L320.637 319.923L320.368 322.248L321.397 323.671L321.747 324.699L322.499 325.101L322.767 325.756L321.419 326.293L320.666 326.241L320.413 326.591L318.886 326.144L319.057 325.786L318.461 325.295L317.873 325.451L316.592 324.356L315.407 323.939L314.282 322.68L312.479 321.614L311.712 321.406L311.265 320.78L311.496 320.065L312.77 320.02L312.74 318.389L313.202 317.927L312.77 316.847L313.21 316.385L313.984 316.221L313.738 316.072L313.552 316.154L313.12 315.752L312.167 316.37L311.906 315.998L311.444 316.407L310.409 315.439L309.768 314.664L309.492 314.59L309.053 314.187L304.233 314.038L303.451 314.232L303.175 314.195L302.907 314.016L292.716 313.256L291.628 300.845L284.082 299.929L284.149 294.059L284.44 293.716L284.469 291.653L285.483 292.092L285.505 291.802L286.764 292.107L292.612 286.043L294.645 287.295L298.72 283.183L302.341 280.464L306.207 279.033L311.012 276.634L312.427 275.726L312.487 275.07L311.459 275.346L310.9 274.005L311.153 272.947L310.312 272.984L310.468 272.09L309.678 272.537L309.909 273.789L309.291 274.169L308.859 272.254L310.327 271.83L310.625 270.198L310.505 269.535L311.884 268.12L311.876 264.976L313.306 266.22L313.925 265.922L314.089 263.777L313.664 262.674L313.359 262.242L314.103 261.452L314.983 261.095L315.541 261.542L316.562 260.529L312.584 257.69L310.923 255.672L310.885 254.994L309.224 254.063L308.345 254.346L306.803 252.841L306.974 251.589L307.265 251.18L307.175 236.951L304.874 235.968L302.125 233.688L303.041 230.306L303.183 228.168L303.629 226.641L304.509 225.397L304.926 224.473L304.486 223.065L302.199 221.3L302.4 219.579Z" stroke="#606060" stroke-width="2"/>
<path d="M65.559 94.1296L67.2501 94.1818L67.481 94.0179L68.0471 94.4276L68.8591 94.2339L68.9634 94.3382L69.2987 94.2637L69.3806 94.368L69.6786 94.3457L69.6935 94.1892L71.012 93.9211L71.3622 94.2116L71.4218 94.5394L72.3381 94.7628L72.4423 95.6791L72.42 96.5433L72.2412 96.7891L71.0046 96.8562L70.729 96.9009L70.6545 97.0275L70.7141 97.3404L71.0344 97.5564L71.1461 97.7799L71.1387 98.3163L71.6899 98.5472L72.785 98.5025L73.3586 98.726L74.6623 98.0704L75.0273 97.5564L75.0199 97.02L75.3402 96.9083L75.6307 97.5341L76.0404 97.4521L76.2267 97.5266L76.4949 97.981L76.0926 98.7781L76.2341 99.0091L76.5396 99.0463L77.441 98.577L77.8581 98.1673L78.5807 97.8916L78.6478 97.7873L78.1114 96.506L78.0891 96.2155L78.3647 95.5599L79.5492 94.07L80.8901 94.1594L82.0075 94.7926L82.5662 94.6213L83.1696 94.6958L83.6538 94.4202L83.9369 94.003L84.1231 93.2283L84.6074 93.1314L85.3896 93.2729L86.0004 92.8334L85.9706 92.3194L86.3505 92.1406L86.7305 92.2896L86.8496 92.4312L87.1476 94.6809L87.9969 95.8058L88.3991 96.7593L88.8983 97.2286L89.0398 98.1151L89.6209 98.5099L89.6283 98.7409L89.5017 98.8377L89.5687 99.1431L89.8592 99.2549L89.8816 99.1506L90.3211 98.9048L90.2988 99.307L90.7606 99.3443L90.6116 99.0091L90.7457 98.9346L90.9245 99.1208L91.0363 99.091L91.081 98.5248L91.215 98.5025L91.3715 99.0985L91.6322 99.2623L91.5279 98.8005L92.2282 98.5844L92.4815 98.6664L92.407 98.1598L92.7496 98.346V97.9587L92.8688 97.7277L92.9731 97.8991L92.9433 98.1226L93.0923 98.0108L93.2041 98.2045L93.4052 98.1002L93.4424 98.3609L93.8075 98.2045L94.2023 98.3982L94.5897 98.2492L94.5748 98.3907L94.165 98.6366L94.2395 98.8973H94.3662L94.5524 98.6962L94.7387 98.8154L94.843 98.3609L95.0739 98.3684L95.0441 98.6589L95.2378 98.8228L95.4464 99.2474L95.5581 99.158L95.4687 98.8675L95.8635 99.024L95.8039 98.6664L96.2137 98.8601L96.9437 98.5472L97.2044 98.2939L97.3683 98.279L97.495 98.4801L97.7706 98.5844L98.4411 98.5174L98.4485 98.2939L98.158 97.9736L98.2101 97.7277L98.5975 97.832L98.8806 97.4819L98.9998 97.5639L98.8284 97.9214L98.9104 98.0257L99.2307 98.1375L99.7075 98.0406L99.9011 98.13L100.14 98.6217L100.326 98.6291L100.49 98.2641L100.855 98.0555L101.317 97.914L101.54 97.9959L101.816 98.4131L102.196 98.495L102.523 98.8079L102.531 99.1357L103.186 99.456L103.261 99.7168L103.775 99.9328L104.423 99.97L104.505 100.313L104.81 100.663L105.235 100.886L105.317 101.162L105.198 101.318L104.781 101.378L105.175 101.877L105.079 102.339L104.907 102.436L104.855 102.793L104.952 103.106L105.518 103.635L105.645 104L105.593 104.298L105.853 104.626L106.166 104.529L106.799 104.842L106.904 105.162L107.12 105.013L107.41 105.058L107.76 104.931L108.185 105.401L108.356 105.438L108.87 105.341L109.019 105.192L110.018 105.676L110.196 105.907L111.001 106.101L111.277 106.369L111.224 106.608L111.373 106.734L112.252 107.017L112.543 107.3L112.737 107.799L112.521 108.358L112.565 108.626L112.632 108.649L112.744 108.366L112.863 108.313L113.273 108.917L113.295 109.125L113.042 109.2L112.915 109.371L113.154 109.587L113.139 109.915L113.504 110.057L113.429 110.444L113.958 110.861L114.472 112.001L114.815 112.47L115.076 112.612L116.923 112.761L117.929 113.305L117.974 113.722L117.281 114.891L117.057 115.852L117.229 116.679L116.677 117.774L116.633 118.422L117.862 120.322L118.309 120.292L118.689 120.061L118.912 120.382L117.087 122.557L117.333 123.205L115.791 124.844L116.879 126.356L116.61 127.928L116.662 129.842L117.348 130.051L117.393 130.625L118.368 131.087L118.555 132.219L117.907 133.53L117.959 134.193L116.566 136.644L117.415 137.679H115.813L115.508 138.476L114.502 139.743L114.837 140.361L113.415 141.203L112.178 140.979L110.39 141.017L110.129 142.097L108.714 142.089L107.596 143.095L107.008 144.6L106.107 144.153L106.613 145.315L105.66 148.57L105.794 150.634L105.317 151.357L102.516 153.733L102.896 154.619L100.654 155.327L95.6251 155.32L94.7312 154.888L93.8745 156.899L92.5858 156.34L92.8092 161.659L91.0661 161.734L90.0529 165.995L90.3807 167.068L89.3601 167.686L87.8032 167.723L84.6223 165.92L83.989 166.002L83.475 166.911L78.834 165.853L78.9457 164.065L79.4449 163.715L79.0575 162.926L72.934 161.868L71.2132 162.657L68.2185 162.866L67.4065 165.391L66.073 166.211L65.4771 165.913L64.1287 167.202L63.2199 167.224L55.2638 172.565L52.3287 175.575L49.8927 175.515L49.1031 176.163L44.5962 175.918L44.7079 178.152L37.6234 175.344L33.6082 174.219L20.8398 172.796L13.4722 171.642L11.7737 171.731L9.58358 171.001L8.28737 169.466L8.35441 169.22L8.25757 169.146L7.55732 169.161L6.53674 168.93L4.68926 168.043L2.43207 167.187L2 166.859L3.57929 162.427L4.56262 160.125L5.28522 157.979L6.14191 156.042L8.44381 154.612L9.39734 153.361L9.90391 152.064L10.105 151.059L9.9933 150.567L9.65807 150.09L7.38598 148.056L6.20151 147.356L6.16426 147.066L6.48459 145.151L6.73787 142.387L7.31148 141.248L7.52752 139.661L7.52007 138.178L7.7957 136.093L8.00429 135.608L8.16072 135.437L8.95782 135.422L10.917 134.67L11.6843 134.156L12.5857 133.254L13.1891 132.331L14.1576 130.386L14.247 130.133L14.0607 129.53L13.1146 128.025L14.0682 127.049L14.0086 126.781L13.718 126.654L13.7106 125.499L13.9639 125.03L15.0813 124.948L15.2377 124.851L15.2526 123.995L15.5283 123.823L15.7592 123.13L16.7053 122.222L17.3161 122.073L18.3591 122.624L18.9103 123.332L20.1023 123.965L19.9756 124.218L20.4524 124.851L20.5939 124.971L21.1452 125.045L21.1973 125.417L21.6368 126.043L22.4041 126.766L23.015 127.585L23.2012 128.196L23.5886 128.516L23.6557 129.15L24.1771 129.597L24.4081 130.021L25.0264 130.215L25.1903 130.446L25.667 132.629L25.9426 132.904L25.9873 133.277L26.1512 133.552L26.5386 133.835L26.9334 134.528L27.0452 135.05L26.9483 135.34L27.1197 135.467L27.738 135.586L28.0509 135.385L28.3041 135.444L28.4978 135.824L28.7139 135.914L28.8256 136.331L29.2502 136.137L29.4886 136.376L29.5035 136.636L29.9356 136.815L30.0548 136.711L30.0622 136.122L34.4202 134.141L36.2676 132.331L36.4837 131.973L36.1559 131.027L36.1112 130.573L35.2024 130.394L34.8075 130.208L34.7107 130.014L34.7479 129.612L34.9118 129.403L35.0236 128.926L35.0608 128.449L34.8522 127.876L34.1594 126.743L33.921 125.976L33.705 124.024L32.9899 120.27L33.1984 119.577L32.9824 118.996L32.0438 118.475L31.8799 118.162L31.865 117.856L32.1555 117.506L32.4684 117.417L32.9452 117.528L33.921 118.43L35.0385 118.519L35.5301 118.936L35.7164 118.951L36.3421 118.214L37.3627 117.625L38.0034 116.679L39.5976 114.787L40.3276 114.377L41.5568 114.102L42.2049 113.543L43.0839 113.469L44.1939 113.074L44.3429 112.634L44.2088 112.21L43.5979 110.794L43.3521 110.392L42.9424 110.072L42.9275 109.885L43.7246 108.552L43.6203 107.613L43.8065 107.427L44.2535 107.315L44.328 106.861L44.8867 106.987L45.5348 107.352L45.8402 107.338L46.8385 106.98L48.2986 107.248L48.8871 107.203L50.3621 105.885L50.7941 105.319L51.7551 104.455L54.9584 103.248L55.8896 103.076L58.0201 102.011L58.0872 101.922L57.819 101.728L57.5285 101.006L58.0872 100.432L58.0723 100.201L57.7594 99.8657L59.361 99.7242L59.4057 98.9048H60.0985L60.1358 98.5621L59.7931 97.7799L59.9347 96.6252L60.1358 95.9697L60.3518 95.9175L60.4934 96.0665L60.62 95.9622L60.9105 95.0161L61.7151 95.0236L62.0429 95.1949L63.0634 95.3439L63.0783 95.7834L62.3706 96.4762L62.3259 96.6625L63.6147 96.5135L63.7339 96.2751L63.935 96.1857L64.166 94.5766L63.6371 94.2861L63.3689 93.9732L63.272 93.0793L63.4434 92.1704L63.8531 92.1332L65.1716 92.7589L65.559 94.1296Z" stroke="#606060" stroke-width="2"/>
<path d="M402.254 219.616L401.092 222.156L399.713 224.481L400.339 232.079L401.129 234.158L396.756 233.837L397.017 237.644L401.077 237.748L401.196 240.236L401.762 240.914L402.045 241.801L406.694 245.056L408.079 247.447L407.416 249.891L407.886 250.628L410.649 253.273L413.882 253.623L414.128 253.653L415.514 254.927L416.415 255.053L417.235 256.163L418.739 257.191L418.807 259.68L418.479 260.544L417.838 261.281L418.173 262.719L417.831 263.65L417.279 263.911L414.113 266.92L414.121 268.202L416.564 269.058L417.056 268.723L417.875 268.828L417.659 269.52L419.827 269.252L420.349 270.131L418.427 272.463L418.263 274.146L418.814 274.474L418.613 275.331L419.172 275.577L419.514 276.992L420.915 277.283L423.641 278.571L423.254 279.361L422.419 279.614L422.583 279.935L423.984 279.778L424.788 280.285L425.541 279.957L425.69 280.657L425.802 280.642L425.444 281.268L425.183 282.52L425.004 282.833L424.394 283.294L422.911 282.825L421.131 282.743L420.565 282.855L420.222 282.803L418.695 282.132L418.009 282.229L417.399 282.497L416.959 282.423L416.832 282.289L416.311 282.259L415.901 281.693L415.253 281.417L415.179 281.223L414.531 280.903L414.113 280.493L413.517 280.419L413.085 280.091L412.959 280.166L412.899 279.808L412.765 279.644L411.692 279.19L411.409 279.413H410.292L409.8 278.75L409.621 278.124L409.212 277.759L408.63 277.469L408.444 276.903L408.131 276.754L407.535 276.217L407.305 276.277L407.014 276.091L406.88 276.173L406.604 275.674L405.904 275.607L405.695 275.353L405.457 275.487L405.167 275.331L404.533 275.256L404.414 275.107L404.042 275.04L403.84 274.608L402.395 274.705L402.038 274.616L401.837 274.735L402.149 275.383L402.097 275.54L401.874 275.659L401.628 275.666L401.025 276.001L400.339 276.188L399.632 275.972L399.341 275.636L398.924 275.517L398.216 276.672L398.008 277.387L396.98 277.096L396.384 277.163L394.357 278.229L393.389 278.631L393.203 278.855L393.143 278.981L393.285 279.242L393.247 279.48L392.957 280.106L392.569 280.605L392.361 281.134L392.413 283.57L391.81 284.717L391.258 286.639L391.229 287.734L391.474 288.911L392.562 290.312L392.517 290.744L392.234 290.885L392.003 290.915L391.661 290.677L390.133 290.535L389.612 290.103L389.619 289.18L389.441 288.993L388.606 288.949L386.677 288.42L385.641 288.524L385.232 288.42L384.777 288.576L384.435 288.449L383.846 288.427L383.392 288.084L382.811 287.988L382.446 287.786L381.44 286.393L380.322 286.043L379.451 285.559L379.175 285.514L378.624 285.648L377.894 285.492L374.758 284.039L374.035 284.017L373.439 284.211L373.082 284.129L372.776 284.419L372.419 284.486L371.964 284.33L371.502 283.846L370.459 283.548L370.012 283.265L369.796 282.959L368.709 282.594L368.053 282.624L367.219 283.086L365.99 283.436L365.297 283.928L364.477 283.734L364.276 283.451L363.71 283.056L363.449 283.049L363.017 283.25L361.87 283.294L361.52 283.689L360.231 283.622L360.119 283.771L360.134 284.114L359.516 285.336L358.749 285.745L358.786 286.49L358.615 286.974L356.819 287.183L356.365 287.585L356.328 287.764L356.596 288.174L357.549 288.874L357.564 289.247L357.333 289.738L357.08 289.82L356.752 289.723L356.149 289.209L355.911 289.41L355.605 289.895L355.516 290.543L355.285 291.183L354.994 291.63L354.778 291.75L354.562 292.249L353.75 291.511L353.743 291.057L353.117 291.027L353.378 290.289L353.117 289.82L351.962 290.126L350.979 288.405L350.189 288.256L349.772 287.667L349.593 287.176L349.124 287.049L349.042 286.408L348.185 286.088L348.021 285.432L346.956 285.492L345.437 284.553L345.794 283.615L345.511 283.265L345.466 282.296L345.66 280.687L345.168 279.994L345.541 279.622L345.071 279.413L344.617 279.048L345.139 278.124L344.766 277.841L344.23 278.199L343.492 277.484L343.753 276.612L343.395 276.165L342.881 276.366L342.524 275.845L341.22 275.726L340.937 274.556L340.609 274.526L340.162 275.629L338.628 274.511L337.622 274.668L337.786 273.945L337.458 273.923L336.676 274.266L336.05 272.329L336.452 271.703L334.933 271.167L336.885 268.373L336.847 267.956L338.665 263.419L338.903 261.117L339.909 259.545L340.17 257.825L340.714 257.46L339.41 248.625L338.3 242.523L337.473 241.346L335.685 233.606L333.696 228.541L332.407 224.294L329.785 220.011L350.294 219.966L361.9 219.668L364.463 219.855L378.326 219.341L402.254 219.616Z" stroke="#606060" stroke-width="2"/>
<path d="M208.723 203.101L208.484 204.136V205.328L208.403 206.602L209.833 208.353L211.822 208.271L214.049 208.666L214.846 208.025L215.405 208.107L215.45 209.358L215.211 211.824L214.303 213.374L212.887 214.215L211.539 214.722L210.496 215.668L208.976 215.936L207.628 217.188L207.389 218.097L206.883 218.804L205.736 219.043L204.827 219.311L204.655 220.033L204.35 220.436L204.149 221.583L203.948 222.559L203.203 223.065L203.27 223.706L203.307 224.518L204.015 225.293L204.32 226.477L204.559 227.453L204.492 228.667L203.948 229.919L203.776 230.664L204.454 231.17L204.79 232.385L204.827 235.119L204.454 235.96V236.839L204.827 238.091L205.467 238.635L205.773 239.581L206.652 239.648L207.225 240.356L207.836 242.345L208.172 243.894L207.97 245.347L207.464 246.799L207.024 247.038L206.689 247.373L206.302 247.678L200.968 243.827H200.953V243.82L188.542 234.858L188.527 234.865L188.505 234.292L188.267 233.651L187.827 233.212L187.283 232.876L187.112 232.303L186.978 231.692L186.538 230.783L186.911 230.314L186.978 229.569L186.844 228.422L187.015 227.744L186.71 227.17H186.032L185.562 226.999L185.294 226.693L184.788 226.425L184.519 226.76L184.281 227.304L183.775 227.677L183.365 227.908L182.761 227.885L182.359 227.684H181.89L181.718 228.019V228.727L181.413 228.928L181.339 229.666L177.755 227.081L176.422 227.595L176.459 226.969L176.936 226.172L177.577 225.851L177.658 224.421L178.217 222.827L178.932 221.315L179.566 220.436L180.281 219.959L181.793 219.639L183.007 218.991L183.03 218.983V219.05L183.298 219.095L183.7 219.43L184.579 219.564L185.488 219.497L185.793 219.229L186.263 218.722L186.903 218.35L187.611 218.722L188.222 219.162L187.954 219.773L187.343 220.451L186.903 221.091L186.501 221.732L186.33 222.544L186.292 223.252L186.397 223.795H187.171L187.983 223.49L188.795 223.423L189.436 223.661L189.972 223.222L190.278 222.41L190.583 221.434L191.09 221.702L191.559 221.464L191.962 220.786L192.133 219.773L191.999 218.387L191.827 217.813L191.798 217.203L192.066 216.227L191.693 215.385L190.613 213.597L190.107 212.852L190.069 212.04L190.539 211.936L191.954 211.899L192.967 211.936L193.846 212.107L194.42 212.815L194.383 213.932L194.487 214.841L194.792 215.348L194.688 216.19L194.517 216.763L194.986 217.031L195.999 216.964L196.573 216.391L197.318 215.75L197.958 215.378L199.106 215.512L200.625 215.817L201.4 215.988L202.175 216.428L203.017 217.337L203.925 217.642L205.847 217.27H206.659L207.367 216.8L208.209 216.294L208.514 215.214L208.544 213.731L208.105 212.889L207.397 211.809L207.293 211.169L207.255 210.491L206.615 210.625L206.071 211.303L204.953 212.077L204.074 211.772L203.434 211.265L203.031 210.491H202.19L201.244 210.625L200.402 210.863L199.724 211.198H198.912L197.899 210.759L197.564 210.252L197.057 209.135L196.625 208.598L196.714 207.109L197.31 206.311L200.595 204.121H201.594L202.294 204.822L202.689 205.619L202.592 207.608L202.793 208.308L203.329 207.928V205.619L204.447 205.939L205.4 206.416L206.197 206.021L206.756 205.38L207.315 205.06V204.136L206.361 203.421L205.646 203.339L204.849 202.944L204.931 202.229L206.205 202.147H206.92L207.635 202.78L208.723 203.101V203.101ZM197.154 226.857L197.869 226.395L198.584 226.09L199.202 225.732H203.054L202.845 225.375L201.355 225.323L199.97 225.069L199.612 224.302L197.765 224.093L196.535 224.198L195.358 224.25L194.129 224.555L194.077 225.635L194.025 227.177H195.567L197.154 226.857Z" stroke="#606060" stroke-width="2"/>
<circle cx="85.8059" cy="261.125" r="5.58711" fill="#FFDB50"/>
<circle cx="83.5715" cy="189.61" r="5.58711" fill="#FFDB50"/>
<circle cx="168.495" cy="124.054" r="5.58711" fill="#FFDB50"/>
<circle cx="252.675" cy="51.7941" r="5.58711" fill="#FFDB50"/>
<circle cx="367.398" cy="103.941" r="5.58711" fill="#FFDB50"/>
<circle cx="361.439" cy="136.718" r="5.58711" fill="#FFDB50"/>
<circle cx="391.236" cy="139.698" r="5.58711" fill="#FFDB50"/>
<circle cx="431.462" cy="92.7663" r="5.58711" fill="#FFDB50"/>
<circle cx="459.027" cy="261.125" r="5.58711" fill="#FFDB50"/>
</svg>
