<svg width="20" height="15" viewBox="0 0 20 15" fill="none" xmlns="http://www.w3.org/2000/svg">
<path fill-rule="evenodd" clip-rule="evenodd" d="M19.1134 12.8438C19.7346 11.7792 20 10.0626 20 7.27018C20 4.48889 19.7371 2.78226 19.1093 1.68912C18.4801 0.553966 17.7339 0.193665 16.253 0.107183C15.242 0.0386566 12.7293 0 10.0024 0C7.26964 0 4.75586 0.0386422 3.73728 0.10772C2.26465 0.193871 1.51828 0.554968 0.883574 1.69327C0.264894 2.78264 0 4.49761 0 7.28036C0 10.0473 0.266177 11.7709 0.889011 12.8567C1.51547 13.9803 2.24994 14.3371 3.7351 14.4414C4.80251 14.5039 7.45856 14.5455 10.0024 14.5455C12.5406 14.5455 15.1953 14.5039 16.253 14.4421C17.7518 14.3371 18.4862 13.9798 19.1134 12.8438ZM16.1387 1.92173C17.0651 1.97587 17.2368 2.05913 17.5305 2.59057C17.9579 3.3309 18.182 4.77973 18.182 7.28036C18.182 9.76206 17.9568 11.2189 17.5325 11.9464C17.2378 12.4794 17.0672 12.5625 16.1366 12.6277C15.1356 12.6861 12.5065 12.7273 10.0026 12.7273C7.49302 12.7273 4.86267 12.6861 3.85202 12.627C2.93291 12.5624 2.75986 12.4783 2.47175 11.9616C2.0446 11.2168 1.81836 9.75185 1.81836 7.27018C1.81836 4.78998 2.04339 3.33307 2.46827 2.58492C2.76086 2.06024 2.93512 1.97593 3.85208 1.92226C4.82298 1.85646 7.31313 1.81818 10.0026 1.81818C12.6863 1.81818 15.1753 1.85647 16.1387 1.92173ZM8.18164 4.54547L12.7271 7.27274L8.18164 10V4.54547Z" fill="white"/>
</svg>
